<?xml version="1.0" encoding="UTF-8" standalone="no"?>
<!-- Created with Inkscape (http://www.inkscape.org/) -->

<svg
   xmlns:dc="http://purl.org/dc/elements/1.1/"
   xmlns:cc="http://creativecommons.org/ns#"
   xmlns:rdf="http://www.w3.org/1999/02/22-rdf-syntax-ns#"
   xmlns:svg="http://www.w3.org/2000/svg"
   xmlns="http://www.w3.org/2000/svg"
   xmlns:xlink="http://www.w3.org/1999/xlink"
   xmlns:sodipodi="http://sodipodi.sourceforge.net/DTD/sodipodi-0.dtd"
   xmlns:inkscape="http://www.inkscape.org/namespaces/inkscape"
   width="48"
   height="48"
   id="svg2"
   version="1.1"
   inkscape:version="0.91 r13725"
   sodipodi:docname="elif.svg">
  <defs
     id="defs4">
    <linearGradient
       id="linearGradient5224">
      <stop
         style="stop-color:#ffff00;stop-opacity:1;"
         offset="0"
         id="stop5226" />
      <stop
         style="stop-color:#ffffff;stop-opacity:1;"
         offset="1"
         id="stop5228" />
    </linearGradient>
    <linearGradient
       id="linearGradient3782">
      <stop
         style="stop-color:#ffff00;stop-opacity:1;"
         offset="0"
         id="stop3784" />
      <stop
         style="stop-color:#ffffff;stop-opacity:1;"
         offset="1"
         id="stop3786" />
    </linearGradient>
    <linearGradient
       id="linearGradient2990">
      <stop
         style="stop-color:#ffff00;stop-opacity:1;"
         offset="0"
         id="stop2992" />
      <stop
         style="stop-color:#ffffff;stop-opacity:1;"
         offset="1"
         id="stop2994" />
    </linearGradient>
    <linearGradient
       inkscape:collect="always"
       xlink:href="#linearGradient2990"
       id="linearGradient2996"
       x1="27.146667"
       y1="1046.9756"
       x2="2.0799999"
       y2="1022.3889"
       gradientUnits="userSpaceOnUse" />
    <linearGradient
       inkscape:collect="always"
       xlink:href="#linearGradient2990"
       id="linearGradient3770"
       gradientUnits="userSpaceOnUse"
       x1="20.640001"
       y1="1039.4556"
       x2="2.0799999"
       y2="1022.3889" />
  </defs>
  <sodipodi:namedview
     id="base"
     pagecolor="#ffffff"
     bordercolor="#666666"
     borderopacity="1.0"
     inkscape:pageopacity="0.0"
     inkscape:pageshadow="2"
     inkscape:zoom="18.75"
     inkscape:cx="24.213333"
     inkscape:cy="23.573333"
     inkscape:document-units="px"
     inkscape:current-layer="layer1"
     showgrid="false"
     inkscape:window-width="2560"
     inkscape:window-height="1510"
     inkscape:window-x="-8"
     inkscape:window-y="31"
     inkscape:window-maximized="1" />
  <metadata
     id="metadata7">
    <rdf:RDF>
      <cc:Work
         rdf:about="">
        <dc:format>image/svg+xml</dc:format>
        <dc:type
           rdf:resource="http://purl.org/dc/dcmitype/StillImage" />
        <dc:title />
      </cc:Work>
    </rdf:RDF>
  </metadata>
  <g
     inkscape:label="Layer 1"
     inkscape:groupmode="layer"
     id="layer1"
     transform="translate(0,-1004.3622)">
    <rect
       style="fill:#ffff00;fill-opacity:1;stroke:#c88c00;stroke-width:2;stroke-miterlimit:4;stroke-opacity:1;stroke-dasharray:none"
       id="rect2996"
       width="31.819805"
       height="31.819805"
       x="-726.1012"
       y="728.22253"
       transform="matrix(0.70710677,-0.7071068,0.70710677,0.7071068,0,0)" />
    <path
       style="fill:#ffa3a3;fill-opacity:1;stroke:none"
       d="m 24,1007.2622 0,42.2 -21.1,-21.1 z"
       id="path2996"
       inkscape:connector-curvature="0"
       sodipodi:nodetypes="cccc" />
    <g
       style="font-style:normal;font-variant:normal;font-weight:500;font-stretch:normal;font-size:28px;line-height:125%;font-family:Ubuntu;-inkscape-font-specification:'Ubuntu Medium';text-align:start;letter-spacing:0px;word-spacing:0px;writing-mode:lr-tb;text-anchor:start;fill:#666666;fill-opacity:1;stroke:none"
       id="text2995">
      <path
         d="m 19.491999,1038.9221 -3.388,0 0,-14.644 3.388,0 0,14.644 z m 0.364,-18.928 q 0,0.952 -0.616,1.512 -0.616,0.56 -1.456,0.56 -0.868,0 -1.484,-0.56 -0.616,-0.56 -0.616,-1.512 0,-0.98 0.616,-1.54 0.616,-0.56 1.484,-0.56 0.84,0 1.456,0.56 0.616,0.56 0.616,1.54 z"
         style=""
         id="path3349" />
      <path
         d="m 29.750937,1017.1941 q 1.176,0 2.072,0.224 0.896,0.196 1.344,0.364 l -0.644,2.8 q -0.476,-0.224 -1.12,-0.364 -0.616,-0.14 -1.344,-0.14 -0.812,0 -1.372,0.252 -0.56,0.224 -0.896,0.644 -0.336,0.42 -0.476,1.036 -0.14,0.588 -0.14,1.288 l 0,0.98 5.32,0 0,2.828 -5.32,0 0,11.816 -3.388,0 0,-15.68 q 0,-2.828 1.484,-4.424 1.484,-1.624 4.48,-1.624 z"
         style=""
         id="path3351" />
    </g>
  </g>
</svg>
