<?xml version="1.0" encoding="UTF-8" standalone="no"?>
<!-- Created with Inkscape (http://www.inkscape.org/) -->

<svg
   xmlns:dc="http://purl.org/dc/elements/1.1/"
   xmlns:cc="http://creativecommons.org/ns#"
   xmlns:rdf="http://www.w3.org/1999/02/22-rdf-syntax-ns#"
   xmlns:svg="http://www.w3.org/2000/svg"
   xmlns="http://www.w3.org/2000/svg"
   xmlns:sodipodi="http://sodipodi.sourceforge.net/DTD/sodipodi-0.dtd"
   xmlns:inkscape="http://www.inkscape.org/namespaces/inkscape"
   width="48px"
   height="48px"
   id="svg4742"
   version="1.1"
   inkscape:version="0.48.0 r9654"
   sodipodi:docname="gears.svg">
  <defs
     id="defs4744" />
  <sodipodi:namedview
     id="base"
     pagecolor="#ffffff"
     bordercolor="#666666"
     borderopacity="1.0"
     inkscape:pageopacity="0.0"
     inkscape:pageshadow="2"
     inkscape:zoom="7"
     inkscape:cx="-2.3571429"
     inkscape:cy="24"
     inkscape:current-layer="layer1"
     showgrid="true"
     inkscape:grid-bbox="true"
     inkscape:document-units="px"
     inkscape:window-width="1920"
     inkscape:window-height="1123"
     inkscape:window-x="0"
     inkscape:window-y="24"
     inkscape:window-maximized="1" />
  <metadata
     id="metadata4747">
    <rdf:RDF>
      <cc:Work
         rdf:about="">
        <dc:format>image/svg+xml</dc:format>
        <dc:type
           rdf:resource="http://purl.org/dc/dcmitype/StillImage" />
        <dc:title></dc:title>
      </cc:Work>
    </rdf:RDF>
  </metadata>
  <g
     id="layer1"
     inkscape:label="Layer 1"
     inkscape:groupmode="layer">
    <g
       style="font-size:13.75000000000000000px;font-style:normal;font-weight:400;fill:#c0c0c0;fill-opacity:1;stroke:#000000;stroke-width:0.98733915;stroke-linecap:butt;stroke-linejoin:miter;stroke-miterlimit:2;stroke-opacity:1;font-family:Ubuntu;stroke-dasharray:none"
       stroke-miterlimit="2"
       transform="matrix(1.5192348,0,0,1.5192348,15.2644,15.2644)"
       font-size="13.75"
       font-weight="400"
       font-style="normal"
       id="g639">
      <path
         style="fill-rule:evenodd;stroke-width:0.98733915;stroke-miterlimit:2;stroke-dasharray:none"
         inkscape:connector-curvature="0"
         vector-effect="none"
         d="M 8.8892,1.40791 6.91382,1.09504 6.23705,3.17793 8.01906,4.08591 6.36396,6.36396 4.94975,4.94975 3.17793,6.23705 4.08591,8.01906 1.40791,8.8892 1.09504,6.91382 l -2.19008,0 -0.31287,1.97538 -2.678,-0.87014 0.90798,-1.78201 -1.77182,-1.2873 -1.41421,1.41421 -1.6551,-2.27805 1.78201,-0.90798 -0.67677,-2.08289 -1.97538,0.31287 0,-2.81582 1.97538,0.31287 0.67677,-2.08289 -1.78201,-0.90798 1.6551,-2.27805 1.41421,1.41421 1.77182,-1.2873 -0.90798,-1.78201 2.678,-0.87014 0.31287,1.97538 2.19008,0 0.31287,-1.97538 2.678,0.87014 -0.90798,1.78201 1.77182,1.2873 1.41421,-1.41421 1.6551,2.27805 -1.78201,0.90798 0.67677,2.08289 1.97538,-0.31287 0,2.81582 M 4,0 C 4,2.20914 2.20914,4 0,4 -2.20914,4 -4,2.20914 -4,0 c 0,-2.20914 1.79086,-4 4,-4 2.20914,0 4,1.79086 4,4"
         id="path641" />
    </g>
    <g
       style="font-size:13.75px;font-style:normal;font-weight:400;fill:#c0c0c0;fill-opacity:1;stroke:#000000;stroke-width:1;stroke-linecap:butt;stroke-linejoin:miter;stroke-miterlimit:2;stroke-opacity:1;font-family:Ubuntu"
       stroke-miterlimit="2"
       transform="matrix(1.5192348,0,0,1.5192348,32.7356,32.7356)"
       font-size="13.75"
       font-weight="400"
       font-style="normal"
       id="g643">
      <path
         style="fill-rule:evenodd;stroke-width:0.98733915;stroke-miterlimit:2;stroke-dasharray:none"
         inkscape:connector-curvature="0"
         vector-effect="none"
         d="M 8.8892,1.40791 6.91382,1.09504 6.23705,3.17793 8.01906,4.08591 6.36396,6.36396 4.94975,4.94975 3.17793,6.23705 4.08591,8.01906 1.40791,8.8892 1.09504,6.91382 l -2.19008,0 -0.31287,1.97538 -2.678,-0.87014 0.90798,-1.78201 -1.77182,-1.2873 -1.41421,1.41421 -1.6551,-2.27805 1.78201,-0.90798 -0.67677,-2.08289 -1.97538,0.31287 0,-2.81582 1.97538,0.31287 0.67677,-2.08289 -1.78201,-0.90798 1.6551,-2.27805 1.41421,1.41421 1.77182,-1.2873 -0.90798,-1.78201 2.678,-0.87014 0.31287,1.97538 2.19008,0 0.31287,-1.97538 2.678,0.87014 -0.90798,1.78201 1.77182,1.2873 1.41421,-1.41421 1.6551,2.27805 -1.78201,0.90798 0.67677,2.08289 1.97538,-0.31287 0,2.81582 M 4,0 C 4,2.20914 2.20914,4 0,4 -2.20914,4 -4,2.20914 -4,0 c 0,-2.20914 1.79086,-4 4,-4 2.20914,0 4,1.79086 4,4"
         id="path645" />
    </g>
  </g>
</svg>
