<?xml version="1.0" encoding="UTF-8" standalone="no"?>
<!-- Created with Inkscape (http://www.inkscape.org/) -->

<svg
   xmlns:dc="http://purl.org/dc/elements/1.1/"
   xmlns:cc="http://creativecommons.org/ns#"
   xmlns:rdf="http://www.w3.org/1999/02/22-rdf-syntax-ns#"
   xmlns:svg="http://www.w3.org/2000/svg"
   xmlns="http://www.w3.org/2000/svg"
   xmlns:xlink="http://www.w3.org/1999/xlink"
   xmlns:sodipodi="http://sodipodi.sourceforge.net/DTD/sodipodi-0.dtd"
   xmlns:inkscape="http://www.inkscape.org/namespaces/inkscape"
   width="159.5"
   height="161.53624"
   id="svg2"
   version="1.1"
   inkscape:version="0.48.4 r9939"
   sodipodi:docname="globe.svg">
  <sodipodi:namedview
     id="base"
     pagecolor="#ffffff"
     bordercolor="#666666"
     borderopacity="1.0"
     inkscape:pageopacity="0.0"
     inkscape:pageshadow="2"
     inkscape:zoom="8.0601109"
     inkscape:cx="79.75"
     inkscape:cy="81.944598"
     inkscape:document-units="px"
     inkscape:current-layer="layer1"
     showgrid="false"
     showguides="true"
     inkscape:guide-bbox="true"
     inkscape:window-width="2560"
     inkscape:window-height="1511"
     inkscape:window-x="-8"
     inkscape:window-y="31"
     inkscape:window-maximized="1"
     fit-margin-top="0"
     fit-margin-left="0"
     fit-margin-right="0"
     fit-margin-bottom="0" />
  <defs
     id="defs4">
    <linearGradient
       inkscape:collect="always"
       id="linearGradient4664">
      <stop
         style="stop-color:#000000;stop-opacity:0.678"
         offset="0"
         id="stop4666" />
      <stop
         id="stop4672"
         offset="0.50963503"
         style="stop-color:#000000;stop-opacity:0.67916667" />
      <stop
         style="stop-color:#000000;stop-opacity:0;"
         offset="1"
         id="stop4668" />
    </linearGradient>
    <linearGradient
       id="linearGradient4643"
       inkscape:collect="always">
      <stop
         id="stop4645"
         offset="0"
         style="stop-color:#fbfefb;stop-opacity:1" />
      <stop
         id="stop4647"
         offset="1"
         style="stop-color:#96e696;stop-opacity:1" />
    </linearGradient>
    <linearGradient
       inkscape:collect="always"
       id="linearGradient4614">
      <stop
         style="stop-color:#ffffff;stop-opacity:1;"
         offset="0"
         id="stop4616" />
      <stop
         style="stop-color:#ffffff;stop-opacity:0;"
         offset="1"
         id="stop4618" />
    </linearGradient>
    <radialGradient
       inkscape:collect="always"
       xlink:href="#linearGradient4148-4"
       id="radialGradient4154-0"
       cx="153.67142"
       cy="518.45782"
       fx="153.67142"
       fy="518.45782"
       r="145"
       gradientUnits="userSpaceOnUse"
       gradientTransform="matrix(1.8399551,0,0,1.8399551,-164.55956,-424.39302)" />
    <linearGradient
       inkscape:collect="always"
       id="linearGradient4148-4">
      <stop
         style="stop-color:#d5f6ff;stop-opacity:1"
         offset="0"
         id="stop4150-9" />
      <stop
         id="stop4156-4"
         offset="0.7923339"
         style="stop-color:#00ccff;stop-opacity:1" />
      <stop
         style="stop-color:#004455;stop-opacity:1"
         offset="1"
         id="stop4152-6" />
    </linearGradient>
    <radialGradient
       inkscape:collect="always"
       xlink:href="#linearGradient4148-21-953-823"
       id="radialGradient4190-1-723-608"
       gradientUnits="userSpaceOnUse"
       gradientTransform="matrix(0.91997755,0,0,0.91997755,10.979851,115.7309)"
       cx="153.67142"
       cy="518.45782"
       fx="153.67142"
       fy="518.45782"
       r="145" />
    <linearGradient
       inkscape:collect="always"
       id="linearGradient4148-21-953-823">
      <stop
         style="stop-color:#adcfad;stop-opacity:1"
         offset="0"
         id="stop4519" />
      <stop
         id="stop4521"
         offset="0.7923339"
         style="stop-color:#00cf00;stop-opacity:1" />
      <stop
         style="stop-color:#004400;stop-opacity:1"
         offset="1"
         id="stop4523" />
    </linearGradient>
    <linearGradient
       inkscape:collect="always"
       xlink:href="#linearGradient4614"
       id="linearGradient4624"
       gradientUnits="userSpaceOnUse"
       x1="185"
       y1="501.27222"
       x2="185"
       y2="701.42175" />
    <radialGradient
       inkscape:collect="always"
       xlink:href="#linearGradient4643"
       id="radialGradient4633"
       gradientUnits="userSpaceOnUse"
       gradientTransform="matrix(1.8399551,0,0,1.8399551,-164.55956,-424.39302)"
       cx="153.67142"
       cy="518.45782"
       fx="153.67142"
       fy="518.45782"
       r="145" />
    <radialGradient
       inkscape:collect="always"
       xlink:href="#linearGradient4643"
       id="radialGradient4639"
       gradientUnits="userSpaceOnUse"
       gradientTransform="matrix(1.8399551,0,0,1.8399551,-444.55956,-424.39302)"
       cx="153.67142"
       cy="518.45782"
       fx="153.67142"
       fy="518.45782"
       r="145" />
    <linearGradient
       inkscape:collect="always"
       xlink:href="#linearGradient4643"
       id="linearGradient4641"
       gradientUnits="userSpaceOnUse"
       x1="185"
       y1="506.42221"
       x2="185"
       y2="608.73401" />
    <linearGradient
       inkscape:collect="always"
       xlink:href="#linearGradient4614"
       id="linearGradient4658"
       gradientUnits="userSpaceOnUse"
       x1="185"
       y1="458.66183"
       x2="185"
       y2="701.42175" />
    <radialGradient
       inkscape:collect="always"
       xlink:href="#linearGradient4148-4"
       id="radialGradient4660"
       gradientUnits="userSpaceOnUse"
       gradientTransform="matrix(1.8399551,0,0,1.8399551,-164.55956,-424.39302)"
       cx="153.67142"
       cy="518.45782"
       fx="153.67142"
       fy="518.45782"
       r="145" />
    <radialGradient
       inkscape:collect="always"
       xlink:href="#linearGradient4664"
       id="radialGradient4670"
       cx="179.86092"
       cy="727.57294"
       fx="179.86092"
       fy="727.57294"
       r="79.75"
       gradientTransform="matrix(1,0,0,0.19749216,0,583.51322)"
       gradientUnits="userSpaceOnUse" />
    <radialGradient
       inkscape:collect="always"
       xlink:href="#linearGradient4664"
       id="radialGradient4680"
       gradientUnits="userSpaceOnUse"
       gradientTransform="matrix(1,0,0,0.19749216,0,583.51322)"
       cx="179.86092"
       cy="727.57294"
       fx="179.86092"
       fy="727.57294"
       r="79.75" />
    <radialGradient
       inkscape:collect="always"
       xlink:href="#linearGradient4664"
       id="radialGradient4688"
       gradientUnits="userSpaceOnUse"
       gradientTransform="matrix(1,0,0,0.19749216,0,583.51322)"
       cx="179.86092"
       cy="727.57294"
       fx="179.86092"
       fy="727.57294"
       r="79.75" />
    <radialGradient
       inkscape:collect="always"
       xlink:href="#linearGradient4148-4"
       id="radialGradient4690"
       gradientUnits="userSpaceOnUse"
       gradientTransform="matrix(1.8399551,0,0,1.8399551,-164.55956,-424.39302)"
       cx="153.67142"
       cy="518.45782"
       fx="153.67142"
       fy="518.45782"
       r="145" />
    <radialGradient
       inkscape:collect="always"
       xlink:href="#linearGradient4148-21-953-823"
       id="radialGradient4692"
       gradientUnits="userSpaceOnUse"
       gradientTransform="matrix(0.91997755,0,0,0.91997755,10.979851,115.7309)"
       cx="153.67142"
       cy="518.45782"
       fx="153.67142"
       fy="518.45782"
       r="145" />
    <linearGradient
       inkscape:collect="always"
       xlink:href="#linearGradient4614"
       id="linearGradient4694"
       gradientUnits="userSpaceOnUse"
       x1="185"
       y1="458.66183"
       x2="185"
       y2="701.42175" />
    <radialGradient
       inkscape:collect="always"
       xlink:href="#linearGradient4664"
       id="radialGradient3020"
       gradientUnits="userSpaceOnUse"
       gradientTransform="matrix(1,0,0,0.19749216,0,583.51322)"
       cx="179.86092"
       cy="727.57294"
       fx="179.86092"
       fy="727.57294"
       r="79.75" />
    <radialGradient
       inkscape:collect="always"
       xlink:href="#linearGradient4148-4"
       id="radialGradient3022"
       gradientUnits="userSpaceOnUse"
       gradientTransform="matrix(1.8399551,0,0,1.8399551,-164.55956,-424.39302)"
       cx="153.67142"
       cy="518.45782"
       fx="153.67142"
       fy="518.45782"
       r="145" />
    <radialGradient
       inkscape:collect="always"
       xlink:href="#linearGradient4148-21-953-823"
       id="radialGradient3024"
       gradientUnits="userSpaceOnUse"
       gradientTransform="matrix(0.91997755,0,0,0.91997755,10.979851,115.7309)"
       cx="153.67142"
       cy="518.45782"
       fx="153.67142"
       fy="518.45782"
       r="145" />
    <linearGradient
       inkscape:collect="always"
       xlink:href="#linearGradient4614"
       id="linearGradient3026"
       gradientUnits="userSpaceOnUse"
       x1="185"
       y1="458.66183"
       x2="185"
       y2="701.42175" />
    <radialGradient
       inkscape:collect="always"
       xlink:href="#linearGradient4148-21-953-823"
       id="radialGradient3030"
       gradientUnits="userSpaceOnUse"
       gradientTransform="matrix(0.91997755,0,0,0.91997755,10.979851,115.7309)"
       cx="153.67142"
       cy="518.45782"
       fx="153.67142"
       fy="518.45782"
       r="145" />
    <radialGradient
       inkscape:collect="always"
       xlink:href="#linearGradient4148-21-953-823"
       id="radialGradient3034"
       gradientUnits="userSpaceOnUse"
       gradientTransform="matrix(0.91997755,0,0,0.91997755,7.2578178,122.92683)"
       cx="153.67142"
       cy="518.45782"
       fx="153.67142"
       fy="518.45782"
       r="145" />
    <radialGradient
       inkscape:collect="always"
       xlink:href="#linearGradient4148-4"
       id="radialGradient3036"
       gradientUnits="userSpaceOnUse"
       gradientTransform="matrix(1.8399551,0,0,1.8399551,-164.55956,-424.39302)"
       cx="153.67142"
       cy="518.45782"
       fx="153.67142"
       fy="518.45782"
       r="145" />
  </defs>
  <g
     inkscape:label="Layer 1"
     inkscape:groupmode="layer"
     id="layer1"
     transform="translate(-103.42893,-580.98279)">
    <path
       sodipodi:type="arc"
       style="color:#000000;fill:url(#radialGradient3036);fill-opacity:1;fill-rule:evenodd;stroke:#008080;marker:none;visibility:visible;display:inline;overflow:visible;enable-background:accumulate"
       id="path3924"
       sodipodi:cx="193"
       sodipodi:cy="638.36218"
       sodipodi:rx="145"
       sodipodi:ry="145"
       d="m 338,638.36218 a 145,145 0 1 1 -290,0 145,145 0 1 1 290,0 z"
       transform="matrix(0.5146298,0,0,0.5146298,83.589047,334.53056)" />
    <path
       style="color:#000000;fill:url(#radialGradient3034);fill-opacity:1;fill-rule:evenodd;stroke:#005500;stroke-width:0.5;marker:none;visibility:visible;display:inline;overflow:visible;enable-background:accumulate"
       d="m 182.5376,588.81084 c -2.99818,0 -5.95381,0.1713 -8.85937,0.51563 l 0.82812,0.10937 c 0,0 1.73061,0.76107 2.01563,1.04688 0.29144,0.28822 0.20757,1.15996 0.10937,1.64062 -0.0998,0.48146 -0.38158,0.57899 -0.76562,1.15625 -0.38646,0.57888 0.76562,0.28125 0.76562,0.28125 l 1.34375,0.67188 c 0,0 -0.38907,0.01 -0.96875,0.10937 -0.5797,0.0958 -1.34375,0.28125 -1.34375,0.28125 l -0.0937,1.0625 1.92188,-0.39062 -0.1875,0.67187 -1.34375,0.29688 -1.35938,1.625 -0.0937,3.07812 0.29688,2.60938 0.76562,2.10937 1.25,0.20313 1.4375,0.85937 1.9375,-0.0937 1.92188,-2.59375 2.01562,-1.9375 0.57813,-1.04687 0.96875,-0.57813 2.10937,-0.48437 2.6875,-0.57813 c 0,0 2.50462,-1.6357 2.79688,-1.82812 0.28582,-0.1916 7.21875,-2.3125 7.21875,-2.3125 l 1.53125,0.0937 c 0,0 0.39763,-1.91696 0.10937,-2.10938 -0.29224,-0.1916 1.14063,-1.34375 1.14063,-1.34375 0,0 0.20951,-0.099 0.26562,-0.125 -6.66204,-1.95408 -13.70586,-3 -21,-3 z m -22.26562,3.375 c -3.60011,1.12586 -7.07966,2.52172 -10.42188,4.15625 l -0.10937,0.25 -1.0625,0.57813 -1.29688,0.96875 -1.10937,0.42187 -0.0781,-0.29687 c -3.68206,2.06204 -7.17535,4.42718 -10.4375,7.0625 1.65539,-0.8244 4.5,-2.28125 4.5,-2.28125 l 0.67188,-0.71875 1.10937,-0.10938 2.40625,-1.09375 1.82813,-1.25 0.1875,0.0937 -1.39063,1.29688 -0.375,0.48437 -1.10937,0.53125 1,0.14063 -0.14063,0.57812 1.10938,-0.20312 1.10937,-0.90625 0.85938,0.29687 0.39062,0.42188 1.20313,-0.0469 -0.0469,-0.90625 -1.875,-1.35937 -0.4375,-0.42188 -0.1875,-0.48437 0.8125,0.0937 0.67188,0.57812 0.71875,-0.71875 1.45312,-0.1875 1.4375,-1.01562 -0.0937,-0.625 1.10938,-1.0625 -0.73438,-0.76563 1.9375,-0.0469 1.67188,0.0469 c 0,0 0.82383,-0.38046 0.96875,-0.14062 0.145,0.23994 1.39062,1.15625 1.39062,1.15625 l -0.48437,0.42187 -1.96875,0.25 -0.48438,0.95313 1.45313,0.20312 1.09375,-1.15625 1.20312,-0.0937 0.20313,1.14063 c 0,0 -1.35528,0.78063 -1.54688,0.82812 -0.1924,0.0516 -1,0.42188 -1,0.42188 l -0.0625,0.875 -1.29687,0.14062 -1.34375,-0.23437 -0.625,0.0469 -1.01563,0.8125 0.82813,0.71875 c 0,0 1.199,-0.4817 1.39062,-0.625 0.1916,-0.1432 0.82545,-0.42986 0.96875,-0.1875 0.1442,0.23992 0.95313,0.90625 0.95313,0.90625 l 0.67187,1.3125 0.625,0.1875 1.92188,0.625 c 0,0 1.35937,0.3433 1.35937,0.4375 0,0.0966 -0.14062,-0.82812 -0.14062,-0.82812 l -1.01563,-1.20313 c 0,0 -0.0514,-0.32779 0.28125,-0.23437 0.34058,0.0958 1.15625,0.8125 1.15625,0.8125 0.1416,0.0482 1.10938,0.625 1.10938,0.625 l 0.39062,-1.04688 0.85938,-0.53125 -0.32813,-0.625 -0.48437,-0.53125 -0.53125,-0.625 0.0469,-0.71875 c 0,0 0.13723,-0.11052 0.28125,-0.20312 0.1434,-0.095 0.59008,-0.42358 0.6875,-0.23438 0.0942,0.1924 1.04688,1.4375 1.04688,1.4375 l 0.92187,0.20313 0.42188,-0.73438 c 0,0 1.20312,-0.14295 1.20312,-0.0937 0,0.0484 0.0937,-0.57812 0.0937,-0.57812 l 1.10938,-0.28125 -1.57813,-1.40625 -0.875,-0.42188 -0.67187,0.1875 -0.625,-0.71875 0.67187,-0.625 0.29688,-0.875 -0.76563,-0.76562 -1.20312,-0.23438 -0.29688,-0.625 c 0,0 -1.01133,-0.14127 -1.15625,-0.0469 -0.1458,0.0998 -0.85937,-0.875 -0.85937,-0.875 l -0.53125,-0.70313 z m 39.54687,7.15625 -1.73437,0.96875 c 0,0 0.86803,0.3709 1.15625,0.5625 0.28824,0.1924 0.85937,-0.1875 0.85937,-0.1875 l 0,0.875 c 0,0 1.53861,0.84997 1.34375,1.14063 -0.1908,0.28742 2.51563,-0.28125 2.51563,-0.28125 l 2.6875,-0.875 0.57812,-1.04688 -1.0625,-0.875 -4.90625,0.57813 -1.4375,-0.85938 z m 25.96875,3.29688 c -0.43352,0.13829 -0.89062,0.29687 -0.89062,0.29687 l -1.28125,1.21875 c 0,0 -0.32623,0.60541 -0.39063,0.76563 -0.0668,0.1618 0.0937,1.85937 0.0937,1.85937 0,0 0.77232,0.0106 0.54688,0.23438 -0.22542,0.22304 -0.1875,1.25 -0.1875,1.25 l 0.89062,0.59375 c 0,0 1.19434,0.39317 1.35938,0.35937 0.1538,-0.0314 0.72992,-0.41997 0.82812,-0.48437 0.0894,-0.0628 0.79179,-0.76336 1.01563,-0.73438 0.2238,0.0354 0.80822,-0.60366 0.875,-0.375 0.0628,0.22462 0.18604,1.02631 0.3125,1.21875 0.128,0.1924 0.58961,0.53754 0.78125,0.98438 0.1908,0.45006 0.44266,0.90822 0.375,1 -0.0668,0.0998 -0.51563,0.53125 -0.51563,0.53125 0,0 -0.9477,0.13276 -1.07812,0.26562 -0.1272,0.1264 -0.29401,0.1886 -0.39063,0.125 -0.099,-0.0644 0.32528,-0.51744 0.42188,-0.64062 0.0974,-0.1312 -0.23056,-0.64078 -0.35938,-0.60938 -0.1304,0.0338 -0.24982,-0.2792 -0.125,-0.375 0.1304,-0.0966 0.0937,-0.71875 0.0937,-0.71875 0,0 -0.18623,-0.0963 -0.28125,-0.0625 -0.0966,0.0322 -1.21875,0.48438 -1.21875,0.48438 0,0 -0.60842,0.6384 -0.64062,0.76562 -0.0346,0.132 -0.30489,0.80221 -0.14063,1.28125 0.1594,0.48388 0.54688,1.26563 0.54688,1.26563 0,0 0.42262,0.27661 0.26562,0.40625 -0.1578,0.1272 -0.48437,0.60937 -0.48437,0.60937 l -0.76563,0.0312 c 0,0 -1.38514,0.17314 -1.51562,0.23438 -0.1264,0.066 -1.46659,0.47895 -1.40625,0.60937 0.0678,0.128 -0.29688,1.5 -0.29688,1.5 -0.062,0.0322 -1.40308,1 -1.5625,1 -0.1602,0 -1.15625,0.25 -1.15625,0.25 0,0 -0.45383,1.19022 -0.48437,1.125 -0.032,-0.0652 -1.5,0.70313 -1.5,0.70313 0,0 -1.12405,-0.32351 -1.15625,-0.45313 -0.0318,-0.1272 -0.42251,-0.40912 -0.45313,-0.3125 -0.0336,0.0974 0.39063,1.08883 0.39063,1.28125 0,0.1876 0.0663,0.57873 -0.0625,0.45313 -0.1288,-0.1312 -0.77901,-0.32541 -0.90625,-0.39063 -0.1312,-0.0628 -1.21875,-0.0312 -1.21875,-0.0312 l -0.45313,0 c 0,0 -0.54592,0.48805 -0.57812,0.39063 -0.0244,0.0682 -0.0625,0.40625 -0.0625,0.40625 l 0.32812,0.32812 1.15625,0.48438 1.09375,0.67187 0.40625,1.01563 0.48438,0.96875 c 0,0 -0.31544,1.97908 -0.375,2.07812 -0.071,0.0942 -0.75,0.54688 -0.75,0.54688 l -2.07813,-0.0312 c 0,0 -1.0292,-0.2178 -1.125,-0.25 -0.0958,-0.034 -1.54992,0.1905 -1.57812,0.0625 -0.0318,-0.1296 -0.48438,-0.0937 -0.48438,-0.0937 l -0.21875,-0.26563 -0.57812,0 -0.48438,0.54688 -0.70312,0.0312 0,0.57812 c 0,0 0.29782,1.31455 0.26562,1.21875 -0.0318,-0.099 -0.14062,1.54688 -0.14062,1.54688 0,0 -0.67992,1.39372 -0.75,1.5 0.016,0.0418 -0.0469,0.9375 -0.0469,0.9375 l 0.42188,0.67187 0.0625,0.79688 c 0,0 -0.31634,0.73547 -0.1875,0.67187 0.1296,-0.0652 1.14369,0.0335 1.17187,-0.0937 0.032,-0.1272 0.65658,-0.41054 0.75,-0.1875 0.095,0.22382 0.447,-0.0131 0.54688,0.375 0.0892,0.38402 0.44975,0.93623 0.48437,1.03125 0.0314,0.0998 0.28125,0.1875 0.28125,0.1875 l 0.0937,0.26563 -0.1875,0.15625 -0.79687,1.79687 -1.78125,1.25 -1.04688,0.67188 -0.29687,0.79687 -0.4375,0.51563 -0.14063,1 c 0,0 0.1293,1.24648 0.0625,1.3125 -0.062,0.0636 -2.39062,2.28125 -2.39062,2.28125 l -1.29688,0.28125 -0.70312,1.21875 c 0,0 -0.95365,0.89826 -1.01563,1.0625 -0.0668,0.1578 -0.54687,0.76562 -0.54687,0.76562 0,0 0.0322,1.28457 0,1.09375 -0.033,-0.1924 -1.39063,1.0625 -1.39063,1.0625 0,0 -0.2489,1.46521 -0.3125,1.53125 -0.0636,0.0612 -0.69783,1.18845 -0.79687,1.15625 -0.0958,-0.033 -0.20313,0.77743 -0.20313,0.90625 0,0.1272 0.32813,0.5 0.32813,0.5 0,0 0.45377,0.87787 0.48437,0.78125 0.0164,0.0432 0.0312,0.28125 0.0312,0.28125 l -0.45312,0.45313 c 0,0 0.48437,0.73232 0.48437,0.82812 l 0,1.98438 -0.51562,1.09375 -0.26563,1.42187 -0.76562,0.60938 0.0312,0.375 0.67187,0.54687 0.10938,0.60938 -0.20313,0.67187 0,0.67188 0.48438,1.125 c 0,0 0.4823,0.39349 0.57812,0.29687 0.0958,-0.0966 1.05708,0.60511 1.1875,0.82813 0.1288,0.22464 1.3125,1.6371 1.3125,1.70312 0,0.0628 0.1875,0.375 0.1875,0.375 l 0.57813,1.96875 c 0,0 2.79497,2.29813 2.85937,2.20313 0.0644,-0.0934 2.98438,2.09375 2.98438,2.09375 0,0 2.3439,-1.1599 2.3125,-1.0625 -0.0346,0.0942 1.98437,-0.0937 1.98437,-0.0937 l 1.21875,0.1875 0.89063,0.42187 3.28125,-1.5 0.64062,-0.5 2.53125,-0.0937 1.21875,0.48438 c 0,0 0.79688,1.18258 0.79688,1.375 0,0.1924 0.48163,1.06632 0.54687,0.9375 0.062,-0.1248 2.85491,-0.24935 2.95313,-0.21875 0.0926,0.0314 1.3125,1.21875 1.3125,1.21875 l -0.0625,1.125 -0.1875,1.98437 -0.39063,0.95313 -0.375,0.875 -0.10937,0.60937 c 0,0 2.89062,4.23423 2.89062,4.26563 0,0.0314 0.73438,1.76562 0.73438,1.76562 l 0.875,2.20313 0.51562,1.25 -0.51562,0.70312 0.82812,2.15625 -0.28125,2.10938 -1.25,2.73437 -0.54687,2.01563 0.15625,2.70312 1.5,3.10938 1.57812,3.5625 0.15625,3.90625 0.71875,1.34375 c 14.30609,-13.57554 23.21875,-32.76797 23.21875,-54.04688 0,-3.58205 -0.26126,-7.1154 -0.75,-10.5625 l -1.0625,-1.9375 c 0,0 -1.21493,-3.01165 -1.34375,-3.17187 -0.1256,-0.1594 -0.61172,-0.9689 -0.45312,-0.9375 0.1602,0.033 1.3125,-0.125 1.3125,-0.125 0,0 0.33873,0.40837 0.54687,0.65625 -0.41361,-1.8802 -0.8848,-3.73852 -1.4375,-5.5625 -0.0694,0.15248 -0.15013,0.29875 -0.29687,0.39062 -0.38404,0.24234 -0.95952,0.56805 -1.29688,0.32813 -0.3341,-0.24154 -1.69561,-0.18883 -1.84375,-0.14063 -0.1426,0.0484 -1.77469,-0.053 -1.96875,0.28125 -0.1916,0.33816 -1.4261,0.0982 -1.625,0 -0.1916,-0.095 -2.55836,-1.04785 -2.75,-1.09375 -0.1916,-0.0474 -1.39969,-0.57465 -1.59375,-0.71875 -0.1916,-0.1458 -1.39082,-0.29422 -1.4375,-0.4375 -0.049,-0.145 0.10205,-0.34517 -0.0937,-0.29687 -0.1884,0.0444 -1.58961,0.4841 -1.78125,0.625 -0.1956,0.1498 -0.625,0.53125 -0.625,0.53125 0,0 -0.57953,0.58326 -0.53125,1.01562 0.0516,0.43314 0.58221,0.77571 0.39063,1.01563 -0.1916,0.23992 -0.85938,0.51562 -0.85938,0.51562 0,0 -0.73207,-0.66982 -0.96875,-0.76562 -0.24074,-0.0966 -2.5,-0.4375 -2.5,-0.4375 l -0.92187,-1.04688 c 0,0 -1.43325,-0.96732 -1.57813,-1.01562 -0.1458,-0.0476 -1.74127,0.004 -1.98437,-0.1875 -0.24158,-0.1956 -1.00741,-1.20535 -1.39063,-1.15625 -0.38568,0.0476 -0.23791,-0.57606 -0.0937,-0.67188 0.1434,-0.0958 0.57869,-0.91838 0.53125,-1.0625 -0.05,-0.1458 0.24553,-0.96318 -0.23437,-1.20312 -0.4806,-0.24636 -0.15625,-1.0625 -0.15625,-1.0625 0,0 0.48933,-0.0937 0.29687,-0.0937 -0.1924,0 -0.91537,0.0525 -1.10937,-0.1875 -0.1892,-0.24074 -0.2507,-0.345 -0.4375,-0.25 -0.1964,0.0974 -1.38873,0.2983 -1.53125,0.25 -0.1458,-0.0474 -1.30758,0.0937 -1.5,0.0937 -0.1916,0 0.0525,0.049 -0.1875,0 -0.24394,-0.0482 -1.20332,0.38892 -1.25,0.57812 -0.044,0.1924 -1.01053,-0.0442 -1.15625,0 -0.1466,0.0484 -1.54688,0.0469 -1.54688,0.0469 l -2.29687,0.39062 c 0,0 -1.54625,0.77571 -1.59375,1.01563 -0.0484,0.24076 -0.52858,0.62537 -0.67188,0.71875 -0.1426,0.0974 -1.00938,-0.0128 -1.0625,-0.15625 -0.045,-0.144 -1.59375,0.0625 -1.59375,0.0625 0,0 -0.6201,-0.34887 -0.8125,-0.20313 -0.1916,0.1442 -0.1875,-0.625 -0.1875,-0.625 l 0.23438,-0.57812 0.875,-0.57813 2.0625,-0.375 1.01562,-0.67187 0.625,-0.25 0.375,-1 c 0,0 0.72016,-0.15024 0.67188,-0.29688 -0.0474,-0.1442 -0.23438,-0.8125 -0.23438,-0.8125 l 1.39063,-2.17187 1.98437,-0.95313 0.32813,-0.6875 c 0,0 -0.18868,-0.85346 -0.0469,-1 0.1434,-0.145 1.4375,-0.4375 1.4375,-0.4375 l 1.64063,0.53125 c 0,0 0.87086,-0.57525 1.0625,-0.67187 0.1916,-0.0974 1.10937,-0.625 1.10937,-0.625 0,0 0.088,-0.43815 0.28125,-0.39063 0.1924,0.0474 1.01116,-0.13492 1.10938,0.25 0.0958,0.38484 0.8125,1.57813 0.8125,1.57813 l 1.10937,1.15625 1.0625,0.82812 1.29688,0.46875 c 0,0 0.76295,0.67043 0.90625,0.71875 0.1442,0.0466 0.875,0.875 0.875,0.875 l 0.375,0.67188 c 0,0 -0.22942,0.5241 -0.42188,0.76562 -0.1916,0.23752 -0.77693,0.86404 -0.92187,0.8125 -0.145,-0.0442 -1.25,-0.23437 -1.25,-0.23437 l -1.20313,0.14062 c 0,0 -0.19517,0.29131 0.14063,0.53125 0.33652,0.23992 0.72756,0.19899 1.0625,0.39063 0.34216,0.1916 1.20312,0.57812 1.20312,0.57812 0,0 0.57813,0.0911 0.57813,0.23438 0,0.145 0.18902,-0.38301 0.14062,-0.71875 -0.0472,-0.33574 -0.0873,-0.76196 0.25,-0.85938 0.33894,-0.0958 0.85938,-0.0104 0.85938,-0.15625 0,-0.1432 0.15625,-0.32812 0.15625,-0.32812 l 0.42187,-0.53125 -0.0469,-0.32813 0.4375,-0.34375 c 0,0 -0.24184,-0.28731 -0.4375,-0.53125 -0.19,-0.24154 -0.38928,-0.38426 -0.25,-0.625 0.1474,-0.23912 0.6294,-0.58386 0.875,-0.39062 0.23908,0.1916 0.97021,0.28891 0.92187,0.53125 -0.0458,0.23832 -0.004,0.57982 0.0937,0.39062 0.0924,-0.194 0.0469,-0.96875 0.0469,-0.96875 0,0 -0.38145,-0.5298 -0.71875,-0.57812 -0.33334,-0.0498 -1.21481,-0.48231 -1.45313,-0.57813 -0.2391,-0.0966 -0.67187,-0.32812 -0.67187,-0.32812 0,0 0.19045,-0.53268 -0.0937,-0.48438 -0.29144,0.0474 -1.15625,-0.0927 -1.15625,-0.23437 0,-0.1474 -0.86199,-0.82787 -0.90625,-0.96875 -0.0484,-0.1474 -0.82813,-1.20313 -0.82813,-1.20313 0,0 -0.42289,-0.43402 -0.46875,-0.57812 -0.05,-0.145 -0.10652,-0.38241 -0.20312,-0.76563 -0.099,-0.38486 0.96937,-1.34642 0.92187,-1.20312 -0.049,0.1418 0.24266,0.33328 0.4375,0.76562 0.1892,0.43478 0.95026,1.1649 1.04688,1.45313 0.095,0.28742 1.15394,1.09409 1.39062,1.1875 0.24476,0.095 0.39192,0.3865 0.875,0.57812 0.48308,0.1932 0.43854,0.28749 1.0625,0.57813 0.62236,0.28906 0.71992,0.39035 0.8125,0.53125 0.0998,0.1466 0.47768,0.10381 0.625,0.34375 0.1434,0.23912 0.34375,0.29133 0.34375,0.53125 0,0.23912 0.19515,0.23729 0.0937,0.71875 -0.0942,0.48066 -0.2366,0.62295 -0.1875,0.71875 0.0484,0.0982 0.91266,1.875 1.25,1.875 0.33578,0 1.33162,0.39391 1.1875,0.96875 -0.1434,0.57646 0.625,1.34375 0.625,1.34375 0,0 0.64937,0.0352 1.09375,0.10937 0.018,-0.33572 -0.0523,-0.87442 0.3125,-1.07812 0.4283,-0.24072 1.05055,-0.48125 0.95313,-0.71875 -0.0982,-0.23992 -0.19489,-0.66651 -0.57813,-0.95313 -0.38002,-0.28742 -0.76359,-0.44605 -0.85937,-0.92187 -0.0942,-0.48224 -0.24484,-1.1159 0.1875,-0.92188 0.43234,0.1908 0.81914,1.114 1.01562,0.48438 0.1892,-0.62396 0.66428,-1.05117 1,-0.90625 0.3406,0.144 0.97022,0.3857 0.92188,0.57812 -0.049,0.1924 0.4375,1.73438 0.4375,1.73438 0,0 0.18543,0.13967 0.28125,0.85937 0.0958,0.71978 0.71918,0.91553 0.625,1.15625 -0.0974,0.23832 -0.38232,0.38616 0.39062,0.48438 0.76566,0.0966 1.48438,0.22945 1.48438,0.42187 0,0.1932 0.63775,0.29582 0.73437,0.4375 0.0942,0.145 0.66819,0.42799 0.76563,0.14063 0.0958,-0.28582 0.29336,-0.86227 0.4375,-0.76563 0.1442,0.0998 1.34006,0.0979 1.4375,0.48438 0.0748,0.28441 0.54718,0.36096 0.78125,0.42187 -0.85539,-2.20579 -1.8214,-4.35484 -2.875,-6.45312 l -1.70313,-0.42188 -1.0625,-0.53125 -0.57812,-0.625 0.53125,0 -0.1875,-0.76562 0.0937,-0.53125 0.46875,-0.28125 0.23437,-0.92188 c -2.73204,-4.68754 -5.97109,-9.03525 -9.625,-13 -0.20744,0.11419 -0.6007,0.39328 -0.75,0.45313 -0.1602,0.0636 -0.63693,0.25507 -0.73437,0.0312 -0.0942,-0.22544 -0.29688,-0.57813 -0.29688,-0.57813 0,0 -0.15191,-0.31455 -0.21875,-0.21875 -0.057,0.0926 -0.42187,0.125 -0.42187,0.125 l -0.82813,0.3125 c 0,0 -0.45269,0.32621 -0.54687,0.39063 -0.099,0.0636 -0.57323,0.0605 -0.76563,0.15625 -0.1916,0.0974 -0.77888,0.58399 -0.9375,0.35937 -0.1626,-0.22304 -0.25506,0.14948 -0.45312,-0.20312 -0.1876,-0.35184 -0.11753,-0.73788 -0.34375,-0.67188 -0.22142,0.0644 -0.73648,0.20009 -0.79688,0.32813 -0.0668,0.128 -0.14164,0.12198 -0.26562,0.25 -0.1288,0.1272 -1.0625,0.23437 -1.0625,0.23437 l 0,-0.0781 1.0625,-0.89063 0.23437,-0.875 c 0,0 0.98587,0.16884 1.01563,0.29688 0.0314,0.1264 0.26364,-0.28874 0.51562,-0.0625 0.25924,0.22382 0.5764,0.19658 0.60938,0.39062 0.028,0.1932 0.21856,0.41009 0.25,0.28125 0.0314,-0.1288 0.0312,-0.54687 0.0312,-0.54687 0,0 -0.27488,-0.15016 -0.4375,-0.25 -0.1618,-0.095 -0.12975,-0.39177 0.0312,-0.48438 0.1578,-0.0958 0.60477,-0.36382 0.73437,-0.26562 0.1288,0.0934 0.70313,-0.125 0.70313,-0.125 0,0 0.0934,-0.18941 0.15625,-0.28125 0.0668,-0.0998 0.39062,-0.96875 0.39062,-0.96875 0,0 -0.23405,-0.10078 -0.29687,-0.39063 -0.0124,-0.0553 -0.002,-0.13231 0.0156,-0.21875 -2.5409,-2.41968 -5.26262,-4.6586 -8.125,-6.70312 z m -71.85937,0.9375 c -0.0966,0.0998 -0.4375,0.4375 -0.4375,0.4375 l -3.17188,-0.29688 -1.10937,1.92188 -0.23438,1.01562 c 0,0 -1.74056,1.74054 -1.95312,1.875 0.1272,-0.037 0.9375,0.76563 0.9375,0.76563 l -0.71875,1.73437 -2.75,1.59375 -1.34375,0.1875 c 0,0 -0.81395,2.98106 -0.76563,3.17188 0.0474,0.194 -1.10937,0.71875 -1.10937,0.71875 l -0.8125,0.57812 -0.34375,-1.04687 c 0,0 -0.36909,-0.81113 -0.51563,-1.01563 0.21498,0.0886 1,0.1875 1,0.1875 l 0.14063,-0.67187 -0.76563,0.0469 0.32813,-1.10937 0.73437,-1.20313 -2.51562,-0.1875 -0.5625,-0.67187 -1.26563,-0.1875 -0.0937,-0.53125 -0.85937,-0.53125 -1.0625,-0.48438 -1.15625,0.14063 -0.0469,-1 0.28125,-0.96875 -1,-0.17188 c -14.86867,13.36288 -24.32719,32.63424 -24.70312,54.10938 l 1.17187,0.28125 1.89063,-0.57813 1.20312,0.57813 1.82813,2.10937 1.875,0.48438 1.92187,0.67187 0.90625,0 0.25,1.10938 c 0,0 0.87008,1.10588 1.0625,1.25 0.1908,0.144 0.0469,1.39062 0.0469,1.39062 l 0.8125,0.4375 0.95312,1.01563 0.625,0.57812 0.6875,0.76563 0.42188,-0.29688 0.875,0.25 1.25,1.15625 0.8125,-0.48437 -0.23438,-0.92188 0.76563,-0.76562 0.67187,0 0.71875,0.57812 -0.0469,0.67188 0.875,1.39062 0.0469,3.90625 -0.78125,1.25 -1.04687,0.71875 -0.0469,1.15625 -1.10937,0.4375 -0.4375,1.53125 -0.67188,1.34375 0.14063,1.15625 0.96875,0.875 -0.875,0.90625 -0.625,0.92188 0.57812,1.82812 c 0,0 0.28125,0.90992 0.28125,0.8125 0,-0.0958 0.92188,0.625 0.92188,0.625 l 1.6875,3.35938 1.625,2.375 c 0,0 2.3892,4.77466 2.4375,4.8125 0.71736,0.52736 5.9375,4.29687 5.9375,4.29687 l 0.90625,4.6875 0.25,9.875 0.76562,2.82813 -0.0781,1.29687 c 4.04624,2.79274 8.38155,5.19762 12.95312,7.15625 0.39252,5.4e-4 1.10938,0.0781 1.10938,0.0781 l 2.1875,-0.57813 c 0,0 0.82924,-1.47833 0.76562,-1.73437 -0.0644,-0.25602 -0.0625,-1.09375 -0.0625,-1.09375 0,0 -0.004,-0.57219 -0.51562,-0.64063 -0.51608,-0.062 -0.51261,-0.24632 -0.64063,-0.76562 -0.1304,-0.51124 -0.51562,-1.09375 -0.51562,-1.09375 l -0.64063,0.125 0.57813,-0.5625 1.28125,0.95312 1.92187,0.32813 1.48438,-1.48438 1.01562,-2.5 0.45313,-1.85937 0.96875,0 1.01562,-1.85938 0.39063,-1.73437 -0.32813,-2.125 0.45313,-0.76563 3.34375,-2.23437 2.5,-0.84375 0.82812,-0.64063 c 0,0 1.28125,-1.72945 1.28125,-1.92187 0,-0.1924 0.51563,-2.6875 0.51563,-2.6875 0,0 0.58162,-2.94901 0.51562,-3.14063 -0.062,-0.1956 0.1304,-2.76372 0,-2.82812 -0.1288,-0.0628 0.0625,-0.76563 0.0625,-0.76563 l 2.4375,-3.46875 1.15625,-2.625 c 0,0 0.83277,-1.35333 0.70313,-1.60937 -0.1304,-0.25682 -0.82813,-2.4375 -0.82813,-2.4375 0,0 -1.54253,-0.32319 -1.60937,-0.51563 -0.0636,-0.1916 -2.68962,-2.50192 -2.75,-2.4375 -0.0684,0.0628 -1.08995,-1.02756 -1.21875,-0.70312 -0.1256,0.32044 -2.125,0.32812 -2.125,0.32812 l -2.10938,-0.51562 c 0,0 -0.89392,0.63506 -0.70312,0.375 0.1924,-0.25602 0.0636,-1.78969 0,-1.53125 -0.0636,0.25362 -3.21875,-1.34375 -3.21875,-1.34375 l -1.09375,0.95312 0,-1.21875 -1.65625,-1.01562 0.1875,-1.35938 -0.76563,-0.64062 c 0,0 -0.1231,0.1897 -0.1875,0.0625 -0.0636,-0.1272 -0.51562,-2.6875 -0.51562,-2.6875 l -2.4375,-1.98438 -2.95313,-0.14062 -2.70312,-1.46875 -0.57813,-1.34375 c 0,0 -1.53125,-0.71301 -1.53125,-0.90625 0,-0.1916 -0.44608,-0.0582 -0.57812,-0.125 -0.1248,-0.062 -0.0625,-0.70313 -0.0625,-0.70313 l -0.70313,-0.57812 -0.26562,-0.17188 -0.625,-0.1875 -0.375,-0.54687 c 0,0 1.39412,-0.61243 1.25,-0.5625 -0.141,0.0452 -3.125,0.46875 -3.125,0.46875 l -0.29688,0.57812 -1.39062,-0.71875 -2.35938,-0.14062 c 0,0 -1.68892,-0.66776 -1.64062,-0.85938 0.0508,-0.1932 -0.53125,-0.92187 -0.53125,-0.92187 0,0 -0.37215,0.9198 -0.46875,1.01562 -0.095,0.0958 -1.29688,1.09375 -1.29688,1.09375 l 0.0937,1.54688 -0.82812,-0.85938 0.57812,-0.82812 0,-1.15625 c 0,-0.1474 0.73438,-0.46875 0.73438,-0.46875 l -0.29688,-0.625 c 0,0 -0.85937,0.23008 -0.85937,0.375 0,0.1432 -1.15625,0.82812 -1.15625,0.82812 l -1.40625,0.51563 -0.60938,0 c 0,0 -0.63229,1.01178 -0.78125,1.0625 -0.1424,0.049 -0.0937,0.96875 -0.0937,0.96875 0,0 -1.544,1.72287 -1.64062,1.53125 -0.0958,-0.1916 -1.71875,-1.53125 -1.71875,-1.53125 l -1.9375,0.23437 -1.09375,0.57813 -1.35938,-0.90625 -1.04687,-1.64063 0.0937,-1.92187 0.57812,-2.125 0.23438,-1.39063 -1.4375,-1.0625 c 0,0 -2.9375,0.23789 -2.9375,0.0937 0,-0.1418 -1.5968,0.0536 -1.54688,-0.0937 0.046,-0.1424 0.57813,-1.05658 0.57813,-1.20312 0,-0.145 0.39062,-1.25 0.39062,-1.25 l 0.625,-1.25 0.8125,-2.39063 0.48438,-0.82812 -2.40625,-0.14063 -1.4375,0.57813 -0.8125,2.40625 -4.09375,1.09375 -1.01563,-0.76563 c 0,0 -0.0985,0.4439 -0.0469,0.20313 0.045,-0.23994 -1.25,-1.9375 -1.25,-1.9375 l -0.625,-2.34375 c 0,0 1.64529,-4.86465 1.59375,-4.76563 -0.0476,0.0942 0.0469,-1.78125 0.0469,-1.78125 l 5.14063,-3.375 1.96875,0.29688 0.48437,0.46875 1.20313,-0.1875 1.20312,-1.20313 1.54688,0.1875 1.48437,-0.28125 0.92188,1.01563 1.34375,-0.53125 0.71875,0.76562 0.4375,0.48438 0,0.8125 -0.34375,0.78125 0.34375,1.71875 0.95312,1.35937 0.625,0.23438 0.76563,-2.10938 -0.14063,-1.98437 -0.32812,-1.57813 0,-1.15625 1.96875,-2.40625 2.54687,-1.82812 2.01563,-1.15625 1.78125,-1.92188 -0.0937,-1.82812 0.78125,-0.14063 0.75,-1.64062 0.78125,0.0937 1.48437,-1.875 2.5,-0.85938 1.54688,-0.29687 0.48437,-0.51563 -0.57812,-0.48437 1.20312,-1.78125 3.79688,-1.5 2.3125,-0.67188 -1.875,1.20313 0.375,0.92187 1.40625,-0.39062 1,-0.625 2.65625,-0.71875 c 0,0 0.41802,-0.70419 0.51562,-0.82813 -0.0926,0.23992 1.35938,-0.23437 1.35938,-0.23437 l -0.29688,-0.57813 0.10938,-0.76562 -0.78125,0.28125 -1.15625,1.25 -1.875,-0.0937 -0.85938,-1.29688 0.8125,-1.10937 c 0,0 0.81315,-1.63027 0.76563,-1.53125 -0.0492,0.0934 -1.29688,-0.39063 -1.29688,-0.39063 l -1.875,0.67188 c -0.1916,0 -1.96857,1.06516 -1.92187,0.92187 0.0492,-0.1442 -0.90625,0.53125 -0.90625,0.53125 l 2.4375,-1.96875 1.01562,-0.15625 1.15625,-1.0625 5.53125,0 1.875,-0.375 2.5,-1.34375 0.20313,0.23438 -1.0625,1.01562 -1.29688,1.34375 -1.25,1.34375 -0.625,0.8125 1.96875,0.0937 c 0,0 1.54098,0.0388 1.6875,0 0.1924,-0.0482 0.23438,0.67188 0.23438,0.67188 l 0.8125,-0.5625 0.4375,1.09375 1.45312,-1.09375 -0.4375,-1.25 0.39063,-1.17188 -1.6875,0.0625 0,-0.625 c 0,0 -0.62276,-0.72 -0.67188,-0.625 -0.0498,0.0974 0.95537,-0.81457 0.90625,-0.71875 -0.0474,0.0966 -0.4375,-0.48437 -0.4375,-0.48437 l 1.15625,-1.45313 -0.5625,-1.625 -0.20312,-0.82812 -1.48438,-0.71875 -0.53125,-0.71875 -0.6875,-0.53125 0.53125,-1.25 -0.23437,-0.90625 c 0,0 -0.43608,-2.98563 -0.48438,-2.89063 -0.0506,0.0974 -2.01562,1.64063 -2.01562,1.64063 l -2.01563,1 -1.0625,-0.90625 0.0937,-1.20313 0.92188,-0.875 -1.5,-0.46875 -0.0937,-0.39062 c 0,0 -1.3425,-1.345 -1.4375,-1.25 z m 62.375,3.90625 -0.45313,0.1875 -0.42187,0.625 c 0,0 -0.38986,0.0958 -0.54688,0 -0.1586,-0.0966 -0.48137,9.5e-4 -0.60937,-0.0312 -0.128,-0.0362 -0.42188,0.375 -0.42188,0.375 0,0 -0.4329,0.48422 -0.5625,0.51562 -0.128,0.0322 -0.57907,0.54673 -0.54687,0.57813 0.0346,0.0322 0.0625,0.45312 0.0625,0.45312 0,0 -0.0898,0.15529 -0.25,0.1875 -0.1594,0.0314 0.125,0.57813 0.125,0.57813 l 0.39062,0.1875 c 0,0 -0.23215,0.23292 -0.35937,0.20312 -0.1304,-0.0354 -0.42701,0.31205 -0.20313,0.40625 0.22536,0.0934 0.32832,0.23393 0.29688,0.32813 -0.028,0.0998 0.48437,0.15625 0.48437,0.15625 l 0.40625,-0.0937 -0.28125,0.45312 c 0,0 0.0613,0.27743 0.15625,0.40625 0.099,0.128 0.42188,0 0.42188,0 0,0 0.76275,-0.12595 0.85937,-0.0937 0.0934,0.0306 -0.0312,0.32813 -0.0312,0.32813 l 0.29688,0.4375 c 0,0 0.1553,0.65293 0.1875,0.84375 0.0346,0.1956 -0.25,0.125 -0.25,0.125 0,0 -0.61556,0.0907 -0.75,0.0625 -0.128,-0.0322 -0.36991,0.22915 -0.59375,0.48437 -0.22622,0.26166 0.0312,0.15625 0.0312,0.15625 l 0.46875,0 c 0,0 0.0329,0.32029 0.0625,0.45313 0.0292,0.128 -0.37442,0.25095 -0.5,0.21875 -0.128,-0.0306 -0.71875,0.26562 -0.71875,0.26562 l 0.0312,0.46875 0.71875,0.0781 0.70312,0.0937 0.125,0.21875 c 0,0 -0.4525,0.0966 -0.57812,0 -0.128,-0.0958 -0.51563,0.51562 -0.51563,0.51562 l -0.34375,0.375 -0.75,0.57813 0.42188,0.20312 0.25,-0.32812 0.65625,0.0312 0.6875,-0.0937 c 0,0 0.43463,-0.51563 0.53125,-0.51563 0.0934,0 1.07812,-0.0312 1.07812,-0.0312 0,0 0.81041,-0.15815 0.90625,-0.0937 0.0958,0.0644 0.72827,0.18813 0.82813,0.21875 0.0942,0.0314 1.34375,-0.34375 1.34375,-0.34375 0,0 0.26452,-0.41887 0.32812,-0.54687 0.0668,-0.128 -0.35726,-0.24713 -0.45312,-0.34375 -0.0958,-0.0966 0.3216,-0.23231 0.51562,-0.32813 0.1908,-0.0958 0.26194,-0.45077 0.35938,-0.60937 0.0926,-0.1586 -0.13968,-0.48473 -0.17188,-0.57813 -0.0308,-0.099 -0.48221,-0.0639 -0.60937,-0.0937 -0.128,-0.033 -0.67188,0.0312 -0.67188,0.0312 l 0.0312,-0.64062 c 0,0 -1.50097,-2.06043 -1.46875,-2.15625 0.032,-0.0934 -0.35538,-0.7046 -0.51562,-0.73438 -0.1602,-0.0322 -0.35448,-0.16579 -0.54688,-0.42187 -0.1908,-0.25442 0.26563,-0.57813 0.26563,-0.57813 0,0 0.52857,-0.57592 0.59375,-0.70312 0.0644,-0.1288 -0.062,-0.51468 -0.15625,-0.54688 -0.0974,-0.0314 -1.21875,0.0312 -1.21875,0.0312 0,0 -0.31105,-0.24795 -0.28125,-0.34375 0.033,-0.1006 0.35572,-0.125 0.45312,-0.125 0.091,0 0.66888,-1.12403 0.79688,-1.15625 0.1272,-0.0346 -0.0937,-0.32812 -0.0937,-0.32812 z m -5.20313,4.6875 -0.51562,0.15625 -0.28125,0.42187 c 0,0 -0.48483,0.50527 -0.39063,0.40625 0.099,-0.0926 0.35728,-0.0813 0.29688,0.0781 -0.0668,0.1594 -0.32813,0.3125 -0.32813,0.3125 l -0.375,0 -0.32812,-0.1875 -0.48438,0.0625 -0.15625,0.28125 0.1875,0.45312 -0.3125,0.32813 0.375,0.3125 0.39063,0.0937 -0.0625,0.45312 -0.42188,0.1875 -0.54687,0.35938 -0.15625,0.60937 0.48437,0.28125 0.76563,0.17188 0.79687,-0.20313 0.6875,-0.375 0.1875,-0.1875 1.125,-0.0781 0.125,-0.46875 0.25,-0.48438 0,-1.39062 0.60938,-0.34375 -0.1875,-0.89063 -0.96875,-0.23437 -0.76563,-0.125 z m -86.09375,40.71875 c 0,-0.1006 -1.64062,1.29687 -1.64062,1.29687 l 0,0.14063 c 0,0 0.14832,0.66758 0.20312,0.8125 0.045,0.1432 1.10733,-0.77301 1.20313,-1.15625 0.0958,-0.38324 0.85525,-0.48153 1.04687,-0.57813 0.1956,-0.0934 0.29114,0.39063 0.48438,0.39063 0.1948,0 1.0625,0.29687 1.0625,0.29687 l 1.73437,0.5625 0.67188,0.625 c 0,0 0.28125,1.53874 0.28125,1.73438 0,0.194 1.3125,0.0937 1.3125,0.0937 l 2.54687,-0.23438 c -4.6e-4,-4.4e-4 0.81715,-0.48008 0.76563,-0.625 -0.0442,-0.1426 -0.77221,-0.375 -1.15625,-0.375 -0.38484,0 -1.78162,-1.35158 -1.875,-1.64062 -0.0998,-0.28904 -3.21875,-1.0625 -3.21875,-1.0625 0,0 -3.42188,-0.18703 -3.42188,-0.28125 z m 10.96875,3.89062 c -0.38164,0 0,0.4375 0,0.4375 l -0.14062,1.39063 -1.59375,0 -0.0469,0.14062 c 0,0 -0.4375,0.14854 -0.4375,0.4375 0.001,0.28822 0.58499,0.18543 0.82813,0.28125 0.23752,0.0958 0.61766,-0.0469 0.8125,-0.0469 0.1948,0 0.82812,-0.14063 0.82812,-0.14063 0,0 0.1875,0.43321 0.1875,0.57813 0,0.1416 1,-0.0427 1,-0.1875 0,-0.145 0.25,-0.53125 0.25,-0.53125 l 1.20313,-0.25 c 0,0 1.63793,0.0469 1.78125,0.0469 0.145,0 0.24444,-0.28354 -0.0469,-0.8125 -0.28582,-0.53058 -1.12008,-0.62996 -1.3125,-1.01562 -0.1924,-0.38162 -1.10221,-0.1376 -1.34375,0 -0.23992,0.1458 -1.58149,-0.32813 -1.96875,-0.32813 z"
       id="path3089"
       inkscape:connector-curvature="0" />
  </g>
  <metadata
     id="metadata43">
    <rdf:RDF>
      <cc:Work>
        <dc:format>image/svg+xml</dc:format>
        <dc:type
           rdf:resource="http://purl.org/dc/dcmitype/StillImage" />
        <cc:license
           rdf:resource="http://creativecommons.org/licenses/publicdomain/" />
        <dc:publisher>
          <cc:Agent
             rdf:about="http://openclipart.org/">
            <dc:title>Open Clip Art Library</dc:title>
          </cc:Agent>
        </dc:publisher>
        <dc:title>A simple globe</dc:title>
        <dc:date>2011-02-21T17:56:46</dc:date>
        <dc:description>A simple globe made in Inkscape.</dc:description>
        <dc:source>http://openclipart.org/detail/121483/a-simple-globe-by-jhnri4</dc:source>
        <dc:creator>
          <cc:Agent>
            <dc:title>jhnri4</dc:title>
          </cc:Agent>
        </dc:creator>
        <dc:subject>
          <rdf:Bag>
            <rdf:li>clip art</rdf:li>
            <rdf:li>clipart</rdf:li>
            <rdf:li>earth</rdf:li>
            <rdf:li>globe</rdf:li>
            <rdf:li>how i did it</rdf:li>
            <rdf:li>internet</rdf:li>
            <rdf:li>media</rdf:li>
            <rdf:li>png</rdf:li>
            <rdf:li>svg</rdf:li>
          </rdf:Bag>
        </dc:subject>
      </cc:Work>
      <cc:License
         rdf:about="http://creativecommons.org/licenses/publicdomain/">
        <cc:permits
           rdf:resource="http://creativecommons.org/ns#Reproduction" />
        <cc:permits
           rdf:resource="http://creativecommons.org/ns#Distribution" />
        <cc:permits
           rdf:resource="http://creativecommons.org/ns#DerivativeWorks" />
      </cc:License>
    </rdf:RDF>
  </metadata>
</svg>
