<?xml version="1.0" encoding="UTF-8" standalone="no"?>
<!-- Created with Inkscape (http://www.inkscape.org/) -->
<svg
   xmlns:dc="http://purl.org/dc/elements/1.1/"
   xmlns:cc="http://creativecommons.org/ns#"
   xmlns:rdf="http://www.w3.org/1999/02/22-rdf-syntax-ns#"
   xmlns:svg="http://www.w3.org/2000/svg"
   xmlns="http://www.w3.org/2000/svg"
   xmlns:xlink="http://www.w3.org/1999/xlink"
   xmlns:sodipodi="http://sodipodi.sourceforge.net/DTD/sodipodi-0.dtd"
   xmlns:inkscape="http://www.inkscape.org/namespaces/inkscape"
   width="305.89615"
   height="255.48058"
   id="svg2"
   sodipodi:version="0.32"
   inkscape:version="0.46"
   sodipodi:docname="tree.svg"
   inkscape:output_extension="org.inkscape.output.svg.inkscape"
   version="1.0">
  <defs
     id="defs4">
    <linearGradient
       inkscape:collect="always"
       id="linearGradient3549">
      <stop
         style="stop-color:#55d400;stop-opacity:1;"
         offset="0"
         id="stop3551" />
      <stop
         style="stop-color:#00aa00;stop-opacity:1"
         offset="1"
         id="stop3553" />
    </linearGradient>
    <linearGradient
       inkscape:collect="always"
       id="linearGradient3541">
      <stop
         style="stop-color:#338000;stop-opacity:1;"
         offset="0"
         id="stop3543" />
      <stop
         style="stop-color:#55d400;stop-opacity:1"
         offset="1"
         id="stop3545" />
    </linearGradient>
    <linearGradient
       inkscape:collect="always"
       id="linearGradient3525">
      <stop
         style="stop-color:#207b04;stop-opacity:1;"
         offset="0"
         id="stop3527" />
      <stop
         style="stop-color:#55d400;stop-opacity:1"
         offset="1"
         id="stop3529" />
    </linearGradient>
    <linearGradient
       inkscape:collect="always"
       id="linearGradient3427">
      <stop
         style="stop-color:#207b04;stop-opacity:1;"
         offset="0"
         id="stop3429" />
      <stop
         style="stop-color:#00d400;stop-opacity:1"
         offset="1"
         id="stop3431" />
    </linearGradient>
    <linearGradient
       inkscape:collect="always"
       id="linearGradient3403">
      <stop
         style="stop-color:#44b600;stop-opacity:1;"
         offset="0"
         id="stop3405" />
      <stop
         style="stop-color:#99ff55;stop-opacity:1"
         offset="1"
         id="stop3407" />
    </linearGradient>
    <linearGradient
       inkscape:collect="always"
       id="linearGradient3395">
      <stop
         style="stop-color:#44b600;stop-opacity:1;"
         offset="0"
         id="stop3397" />
      <stop
         style="stop-color:#225500;stop-opacity:1"
         offset="1"
         id="stop3399" />
    </linearGradient>
    <inkscape:perspective
       sodipodi:type="inkscape:persp3d"
       inkscape:vp_x="0 : 526.18109 : 1"
       inkscape:vp_y="0 : 1000 : 0"
       inkscape:vp_z="744.09448 : 526.18109 : 1"
       inkscape:persp3d-origin="372.04724 : 350.78739 : 1"
       id="perspective10" />
    <inkscape:perspective
       id="perspective2552"
       inkscape:persp3d-origin="372.04724 : 350.78739 : 1"
       inkscape:vp_z="744.09448 : 526.18109 : 1"
       inkscape:vp_y="0 : 1000 : 0"
       inkscape:vp_x="0 : 526.18109 : 1"
       sodipodi:type="inkscape:persp3d" />
    <linearGradient
       inkscape:collect="always"
       xlink:href="#linearGradient3549"
       id="linearGradient3777"
       gradientUnits="userSpaceOnUse"
       gradientTransform="translate(-128.73326,-171.81949)"
       x1="590.07123"
       y1="1193.7061"
       x2="545.93408"
       y2="1236.2668" />
    <linearGradient
       inkscape:collect="always"
       xlink:href="#linearGradient3395"
       id="linearGradient3779"
       gradientUnits="userSpaceOnUse"
       gradientTransform="matrix(0.3837315,-0.9234447,0.9234447,0.3837315,-884.7589,1072.0744)"
       x1="440.84573"
       y1="1060.2438"
       x2="417.44836"
       y2="1156.666" />
    <linearGradient
       inkscape:collect="always"
       xlink:href="#linearGradient3427"
       id="linearGradient3781"
       gradientUnits="userSpaceOnUse"
       x1="482.35562"
       y1="1237.3177"
       x2="427.18423"
       y2="1203.1639" />
    <linearGradient
       inkscape:collect="always"
       xlink:href="#linearGradient3541"
       id="linearGradient3783"
       gradientUnits="userSpaceOnUse"
       gradientTransform="translate(78.290838,24.170326)"
       x1="209.12587"
       y1="1131.7039"
       x2="183.37921"
       y2="1089.6686" />
    <linearGradient
       inkscape:collect="always"
       xlink:href="#linearGradient3395"
       id="linearGradient3785"
       gradientUnits="userSpaceOnUse"
       gradientTransform="matrix(0.9945447,0.1043105,-0.1043105,0.9945447,115.26302,-44.721494)"
       x1="440.84573"
       y1="1060.2438"
       x2="417.44836"
       y2="1156.666" />
    <linearGradient
       inkscape:collect="always"
       xlink:href="#linearGradient3403"
       id="linearGradient3787"
       gradientUnits="userSpaceOnUse"
       gradientTransform="matrix(0.7107842,0.7034101,-0.7034101,0.7107842,882.84108,50.248129)"
       x1="385.1489"
       y1="1035.0226"
       x2="316.21552"
       y2="1238.3687" />
    <linearGradient
       inkscape:collect="always"
       xlink:href="#linearGradient3525"
       id="linearGradient3789"
       gradientUnits="userSpaceOnUse"
       gradientTransform="translate(-11.559721,-7.881628)"
       x1="362.5549"
       y1="1162.705"
       x2="343.63898"
       y2="1124.3478" />
    <linearGradient
       inkscape:collect="always"
       xlink:href="#linearGradient3541"
       id="linearGradient3791"
       gradientUnits="userSpaceOnUse"
       gradientTransform="matrix(0.5286379,0.3375509,-0.2780809,0.6416917,672.01884,369.94541)"
       x1="209.12587"
       y1="1131.7039"
       x2="183.37921"
       y2="1089.6686" />
  </defs>
  <sodipodi:namedview
     id="base"
     pagecolor="#ffffff"
     bordercolor="#666666"
     borderopacity="1.0"
     inkscape:pageopacity="0.0"
     inkscape:pageshadow="2"
     inkscape:zoom="0.79185054"
     inkscape:cx="568.80833"
     inkscape:cy="230.00286"
     inkscape:document-units="px"
     inkscape:current-layer="layer1"
     showgrid="false"
     inkscape:window-width="1017"
     inkscape:window-height="698"
     inkscape:window-x="0"
     inkscape:window-y="23"
     showguides="true"
     inkscape:guide-bbox="true" />
  <metadata
     id="metadata7">
    <rdf:RDF>
      <cc:Work
         rdf:about="">
        <dc:format>image/svg+xml</dc:format>
        <dc:type
           rdf:resource="http://purl.org/dc/dcmitype/StillImage" />
      </cc:Work>
    </rdf:RDF>
  </metadata>
  <g
     inkscape:label="Capa 1"
     inkscape:groupmode="layer"
     id="layer1"
     transform="translate(-82.552214,-186.64178)">
    <g
       transform="matrix(-0.9498831,0,0,0.9697748,591.47605,-812.80004)"
       id="g3870"
       inkscape:export-filename="/home/multimedia14/Desktop/tree.png"
       inkscape:export-xdpi="90"
       inkscape:export-ydpi="90">
      <path
         style="fill:url(#linearGradient3777);fill-opacity:1;fill-rule:evenodd;stroke:#000000;stroke-width:0.7868737px;stroke-linecap:butt;stroke-linejoin:miter;stroke-opacity:0"
         d="M 429.38597,1072.4698 C 430.96827,1075.649 431.74772,1080.6707 435.68911,1078.4364 L 435.05879,1069.2153 L 441.36194,1071.385 L 441.67709,1061.079 C 449.11683,1054.0988 442.46359,1053.5764 440.73162,1051.858 L 438.21037,1048.6035 L 435.05879,1050.7731 C 435.95097,1045.1806 436.9377,1039.4458 431.27691,1043.7217 C 434.1516,1033.0117 430.22123,1039.0336 427.49503,1042.0945 C 429.62666,1035.4401 431.10376,1031.2016 424.97376,1034.5006 C 423.13951,1027.3258 422.2171,1032.7058 421.19188,1036.6704 C 413.84396,1025.8168 416.48443,1037.3115 417.09483,1044.2642 C 412.55909,1040.613 409.23034,1039.2469 412.99779,1051.3156 C 402.64828,1045.3112 408.46458,1054.1456 409.84623,1058.9093 C 408.77031,1064.2057 393.04331,1065.2994 409.84623,1075.7243 C 408.83943,1091.2661 412.87856,1085.0967 416.77968,1079.5212 C 414.34163,1092.8357 417.28216,1088.7933 421.50704,1080.6061 C 424.61528,1084.5623 426.85682,1086.2811 424.97376,1077.3515 C 429.47408,1084.4146 429.87889,1079.7298 429.38597,1072.4698 z"
         id="path3872"
         sodipodi:nodetypes="cccccccccccccccccccc" />
      <path
         style="fill:url(#linearGradient3779);fill-opacity:1;fill-rule:evenodd;stroke:#000000;stroke-width:1px;stroke-linecap:butt;stroke-linejoin:miter;stroke-opacity:0"
         d="M 333.9664,1116.6584 C 345.76244,1097.5735 328.90609,1108.6508 328.90609,1108.6508 C 333.6909,1105.7808 337.8381,1102.8803 330.8128,1099.4468 C 343.37769,1096.4727 338.27164,1088.3044 334.64929,1084.4033 L 327.53088,1087.4881 C 334.85565,1070.9672 326.87465,1073.8841 318.36808,1079.5905 C 325.42197,1073.6607 325.75453,1070.6005 316.67212,1071.56 C 319.80486,1069.1794 326.20315,1067.0603 314.97624,1063.5295 C 322.57382,1057.4387 320.63927,1054.2147 311.86837,1053.0468 C 316.63868,1047.2268 317.90674,1043.1516 308.78359,1045.9283 L 302.05485,1045.9742 C 299.6855,1040.5667 297.29517,1035.2832 292.04864,1046.781 C 290.11978,1036.552 289.54491,1039.8547 285.55836,1045.6764 C 274.29493,1034.3139 275.43973,1043.8548 273.51246,1048.2204 C 269.61334,1049.255 277.24901,1060.3052 275.64398,1059.9407 C 264.24105,1057.3519 264.54436,1070.2633 269.1581,1071.5558 C 267.64234,1070.9564 256.08956,1076.1584 264.1483,1082.9965 C 275.76154,1092.8508 262.63651,1096.0737 263.74035,1095.3906 L 257.62122,1100.6023 L 257.01624,1108.1562 L 267.19653,1108.8253 C 257.56715,1112.1401 260.89257,1119.1121 270.28135,1115.9437 C 275.61673,1114.1431 260.31758,1116.4033 268.26462,1121.0452 C 281.14635,1128.5696 269.62742,1132.0431 273.8016,1126.7519 C 276.39519,1131.797 279.702,1131.2777 283.33106,1128.2461 C 282.72212,1136.131 283.15152,1141.3344 289.3448,1131.6517 C 290.26782,1136.4286 289.91173,1143.7205 297.00865,1136.359 C 298.94529,1146.5289 302.96969,1140.4116 306.92765,1134.8143 C 303.25984,1146.9528 307.41454,1145.6179 313.61515,1140.7593 C 318.16236,1146.7984 321.54654,1148.7018 320.97198,1136.524 L 328.52582,1137.1289 C 332.19496,1138.8417 337.13153,1143.8964 335.29575,1131.0923 C 346.47284,1130.1996 346.08685,1125.486 341.7815,1119.4773 C 344.08874,1107.6242 338.4791,1113.36 333.9664,1116.6584 z"
         id="path3874"
         sodipodi:nodetypes="ccccccccccccccscsccccssccccccccccc" />
      <path
         style="fill:#4bbe01;fill-opacity:1;fill-rule:evenodd;stroke:#000000;stroke-width:1px;stroke-linecap:butt;stroke-linejoin:miter;stroke-opacity:0"
         d="M 303.70541,1194.2315 C 306.34349,1197.3113 307.64302,1202.1758 314.21424,1200.0113 L 313.16336,1191.0788 L 323.6722,1193.1806 L 324.19764,1183.1972 C 336.60144,1176.4354 325.50892,1175.9294 322.62131,1174.2647 L 318.41778,1171.112 L 313.16336,1173.2138 C 314.65083,1167.7963 316.29595,1162.2409 306.85806,1166.3831 C 311.65085,1156.0083 305.098,1161.8415 300.55276,1164.8067 C 304.1067,1158.3607 306.56938,1154.2548 296.34922,1157.4506 C 293.29109,1150.5003 291.7532,1155.7118 290.04392,1159.5523 C 277.79318,1149.0384 282.19548,1160.1735 283.21317,1166.9085 C 275.651,1163.3716 270.10118,1162.0484 276.38243,1173.7393 C 259.12734,1167.9227 268.82448,1176.4807 271.12801,1181.0954 C 269.33422,1186.226 243.11356,1187.2855 271.12801,1197.3841 C 269.44945,1212.4397 276.18364,1206.4633 282.68773,1201.0622 C 278.62292,1213.9601 283.52548,1210.0441 290.56936,1202.1131 C 295.75154,1205.9456 299.48873,1207.6105 296.34922,1198.9605 C 303.85232,1205.8025 304.52723,1201.2643 303.70541,1194.2315 z"
         id="path3876"
         sodipodi:nodetypes="cccccccccccccccccccc" />
      <path
         style="fill:#44b600;fill-opacity:1;fill-rule:evenodd;stroke:#000000;stroke-width:1px;stroke-linecap:butt;stroke-linejoin:miter;stroke-opacity:0"
         d="M 229.09266,1148.518 C 231.65184,1170.8077 238.02518,1151.6707 238.02518,1151.6707 C 236.04617,1156.8874 234.58649,1161.7333 242.22871,1160.0777 C 234.20598,1170.1949 243.27391,1173.4455 248.53401,1174.2647 L 252.2121,1167.4339 C 256.69374,1184.9413 261.15308,1177.7081 264.29727,1167.9594 C 262.43197,1176.9838 264.06621,1179.5924 270.60257,1173.2138 C 269.61752,1177.0231 265.90664,1182.6497 276.90787,1178.4682 C 274.71528,1187.9558 278.23087,1189.2889 285.84039,1184.7735 C 285.69984,1192.2973 287.22829,1196.2822 292.67113,1188.4516 L 297.92555,1184.2481 C 303.13487,1187.0261 308.28397,1189.6938 305.28174,1177.4173 C 313.13162,1184.2535 311.53737,1181.3045 311.0616,1174.2647 C 326.94202,1176.2094 320.13399,1169.4278 318.94322,1164.8067 C 321.3637,1161.5794 308.52485,1157.6331 310.01071,1156.9251 C 320.56664,1151.8952 312.33174,1141.9462 307.90894,1143.789 C 309.47017,1143.3207 315.31846,1132.0813 304.75629,1131.7039 C 289.53526,1131.1599 297.84372,1120.5006 297.40011,1121.7205 L 298.97644,1113.8389 L 294.7729,1107.5336 L 286.36583,1113.3134 C 291.87289,1104.7469 284.94388,1101.3328 279.53508,1109.6353 C 276.46143,1114.3534 287.07299,1103.1033 277.95876,1104.3809 C 263.18488,1106.4519 270.07713,1096.5906 270.07713,1103.33 C 264.9162,1100.9754 262.64155,1103.4312 261.67006,1108.059 C 257.26454,1101.4913 253.7047,1097.6721 254.83932,1109.1099 C 251.15601,1105.9312 246.91936,1099.9858 245.9068,1110.1608 C 238.08759,1103.3757 238.71672,1110.6711 239.07606,1117.517 C 234.43762,1105.7153 232.00246,1109.3365 230.14355,1116.9915 C 222.83319,1115.0664 218.99729,1115.6681 226.9909,1124.8731 L 220.68559,1129.0767 C 216.74409,1130.0045 209.73767,1129.0935 219.10927,1138.0092 C 210.88686,1145.6326 214.10936,1149.0942 221.21104,1151.1452 C 226.74093,1161.8802 227.59267,1153.9026 229.09266,1148.518 z"
         id="path3878"
         sodipodi:nodetypes="ccccccccccccccscsccccssccccccccccc" />
      <path
         style="fill:#207b04;fill-opacity:1;fill-rule:evenodd;stroke:#000000;stroke-width:1px;stroke-linecap:butt;stroke-linejoin:miter;stroke-opacity:0"
         d="M 420.87895,1107.5336 C 423.51703,1110.6133 424.81656,1115.4778 431.38778,1113.3134 L 430.3369,1104.3809 L 440.84574,1106.4827 L 441.37118,1096.4993 C 453.77498,1089.7375 442.68246,1089.2315 439.79485,1087.5668 L 435.59132,1084.4141 L 430.3369,1086.5159 C 431.82437,1081.0984 433.46949,1075.543 424.0316,1079.6852 C 428.82439,1069.3103 422.27154,1075.1436 417.7263,1078.1088 C 421.28024,1071.6627 423.74292,1067.5569 413.52276,1070.7526 C 410.46463,1063.8024 408.92674,1069.0139 407.21746,1072.8544 C 394.96672,1062.3405 399.36902,1073.4755 400.38671,1080.2106 C 392.82454,1076.6737 387.27472,1075.3504 393.55597,1087.0413 C 376.30088,1081.2248 385.99802,1089.7828 388.30155,1094.3975 C 386.50776,1099.5281 360.2871,1100.5876 388.30155,1110.6862 C 386.62299,1125.7418 393.35718,1119.7654 399.86127,1114.3643 C 395.79646,1127.2622 400.69902,1123.3462 407.7429,1115.4152 C 412.92508,1119.2477 416.66227,1120.9126 413.52276,1112.2626 C 421.02586,1119.1046 421.70077,1114.5664 420.87895,1107.5336 z"
         id="path3880"
         sodipodi:nodetypes="cccccccccccccccccccc" />
      <path
         sodipodi:nodetypes="cccccccccccccccccccc"
         id="path3882"
         d="M 449.77825,1209.4693 C 452.41633,1212.549 453.71586,1217.4135 460.28708,1215.2491 L 459.2362,1206.3166 L 469.74504,1208.4184 L 470.27048,1198.435 C 482.67428,1191.6732 471.58176,1191.1672 468.69415,1189.5025 L 464.49062,1186.3498 L 459.2362,1188.4516 C 460.72367,1183.0341 462.36879,1177.4787 452.9309,1181.6209 C 457.72369,1171.246 451.17084,1177.0793 446.6256,1180.0445 C 450.17954,1173.5984 452.64222,1169.4926 442.42206,1172.6883 C 439.36393,1165.7381 437.82604,1170.9496 436.11676,1174.7901 C 423.86602,1164.2762 428.26832,1175.4112 429.28601,1182.1463 C 421.72384,1178.6094 416.17402,1177.2861 422.45527,1188.977 C 405.20018,1183.1605 414.89732,1191.7185 417.20085,1196.3332 C 415.40706,1201.4638 389.1864,1202.5233 417.20085,1212.6219 C 415.52229,1227.6775 422.25648,1221.7011 428.76057,1216.3 C 424.69576,1229.1979 429.59832,1225.2819 436.6422,1217.3509 C 441.82438,1221.1834 445.56157,1222.8483 442.42206,1214.1983 C 449.92516,1221.0403 450.60007,1216.5021 449.77825,1209.4693 z"
         style="fill:url(#linearGradient3781);fill-opacity:1;fill-rule:evenodd;stroke:#000000;stroke-width:1px;stroke-linecap:butt;stroke-linejoin:miter;stroke-opacity:0" />
      <path
         style="fill:#207b04;fill-opacity:1;fill-rule:evenodd;stroke:#000000;stroke-width:1px;stroke-linecap:butt;stroke-linejoin:miter;stroke-opacity:0"
         d="M 349.41886,1167.9594 C 352.05694,1171.0391 353.35647,1175.9036 359.92769,1173.7392 L 358.87681,1164.8067 L 369.38565,1166.9085 L 369.91109,1156.9251 C 382.31489,1150.1633 371.22237,1149.6573 368.33476,1147.9926 L 364.13123,1144.8399 L 358.87681,1146.9417 C 360.36428,1141.5242 362.0094,1135.9688 352.57151,1140.111 C 357.3643,1129.7361 350.81145,1135.5694 346.26621,1138.5346 C 349.82015,1132.0885 352.28283,1127.9827 342.06267,1131.1784 C 339.00454,1124.2282 337.46665,1129.4397 335.75737,1133.2802 C 323.50663,1122.7663 327.90893,1133.9013 328.92662,1140.6364 C 321.36445,1137.0995 315.81463,1135.7762 322.09588,1147.4671 C 304.84079,1141.6506 314.53793,1150.2086 316.84146,1154.8233 C 315.04767,1159.9539 288.82701,1161.0134 316.84146,1171.112 C 315.1629,1186.1676 321.89709,1180.1912 328.40118,1174.7901 C 324.33637,1187.688 329.23893,1183.772 336.28281,1175.841 C 341.46499,1179.6735 345.20218,1181.3384 342.06267,1172.6884 C 349.56577,1179.5304 350.24068,1174.9922 349.41886,1167.9594 z"
         id="path3884"
         sodipodi:nodetypes="cccccccccccccccccccc" />
      <path
         sodipodi:nodetypes="cccccccccccccccccccc"
         id="path3886"
         d="M 281.11141,1190.028 C 283.74949,1193.1077 285.04902,1197.9722 291.62024,1195.8078 L 290.56936,1186.8753 L 301.0782,1188.9771 L 301.60364,1178.9937 C 314.00744,1172.2319 302.91492,1171.7259 300.02731,1170.0612 L 295.82378,1166.9085 L 290.56936,1169.0103 C 292.05683,1163.5928 293.70195,1158.0374 284.26406,1162.1796 C 289.05685,1151.8047 282.504,1157.638 277.95876,1160.6032 C 281.5127,1154.1571 283.97538,1150.0513 273.75522,1153.247 C 270.69709,1146.2968 269.1592,1151.5083 267.44992,1155.3488 C 255.19918,1144.8349 259.60148,1155.9699 260.61917,1162.705 C 253.057,1159.1681 247.50718,1157.8448 253.78843,1169.5357 C 236.53334,1163.7192 246.23048,1172.2772 248.53401,1176.8919 C 246.74022,1182.0225 220.51956,1183.082 248.53401,1193.1806 C 246.85545,1208.2362 253.58964,1202.2598 260.09373,1196.8587 C 256.02892,1209.7566 260.93148,1205.8406 267.97536,1197.9096 C 273.15754,1201.7421 276.89473,1203.407 273.75522,1194.757 C 281.25832,1201.599 281.93323,1197.0608 281.11141,1190.028 z"
         style="fill:#71c837;fill-opacity:1;fill-rule:evenodd;stroke:#000000;stroke-width:1px;stroke-linecap:butt;stroke-linejoin:miter;stroke-opacity:0" />
      <path
         sodipodi:nodetypes="ccccccccccccccscsccccssccccccccccc"
         id="path3888"
         d="M 425.08247,1166.3831 C 427.64165,1188.6728 434.01499,1169.5358 434.01499,1169.5358 C 432.03598,1174.7525 430.5763,1179.5984 438.21852,1177.9428 C 430.19579,1188.06 439.26372,1191.3106 444.52382,1192.1298 L 448.20191,1185.299 C 452.68355,1202.8064 457.14289,1195.5732 460.28708,1185.8245 C 458.42178,1194.8489 460.05602,1197.4575 466.59238,1191.0789 C 465.60733,1194.8882 461.89645,1200.5148 472.89768,1196.3333 C 470.70509,1205.8209 474.22068,1207.154 481.8302,1202.6386 C 481.68965,1210.1624 483.2181,1214.1473 488.66094,1206.3167 L 493.91536,1202.1132 C 499.12468,1204.8912 504.27378,1207.5589 501.27155,1195.2824 C 509.12143,1202.1186 507.52718,1199.1696 507.05141,1192.1298 C 522.93183,1194.0745 516.1238,1187.2929 514.93303,1182.6718 C 517.35351,1179.4445 504.51466,1175.4982 506.00052,1174.7902 C 516.55645,1169.7603 508.32155,1159.8113 503.89875,1161.6541 C 505.45998,1161.1858 511.30827,1149.9464 500.7461,1149.569 C 485.52507,1149.025 493.83353,1138.3656 493.38992,1139.5856 L 494.96625,1131.7039 L 490.76271,1125.3986 L 482.35564,1131.1785 C 487.8627,1122.6119 480.93369,1119.1978 475.52489,1127.5004 C 472.45124,1132.2184 483.0628,1120.9683 473.94857,1122.246 C 459.17469,1124.317 466.06694,1114.4556 466.06694,1121.1951 C 460.90601,1118.8404 458.63136,1121.2963 457.65987,1125.924 C 453.25435,1119.3564 449.69451,1115.5372 450.82913,1126.9749 C 447.14582,1123.7962 442.90917,1117.8508 441.89661,1128.0258 C 434.0774,1121.2407 434.70653,1128.5362 435.06587,1135.382 C 430.42743,1123.5803 427.99227,1127.2015 426.13336,1134.8566 C 418.823,1132.9314 414.9871,1133.5332 422.98071,1142.7382 L 416.6754,1146.9418 C 412.7339,1147.8696 405.72748,1146.9586 415.09908,1155.8743 C 406.87667,1163.4977 410.09917,1166.9593 417.20085,1169.0103 C 422.73074,1179.7453 423.58248,1171.7677 425.08247,1166.3831 z"
         style="fill:#44b600;fill-opacity:1;fill-rule:evenodd;stroke:#000000;stroke-width:1px;stroke-linecap:butt;stroke-linejoin:miter;stroke-opacity:0" />
      <path
         sodipodi:nodetypes="ccccccccccccccscsccccssccccccccccc"
         id="path3890"
         d="M 301.07819,1101.2282 C 303.63737,1123.5179 310.01071,1104.3809 310.01071,1104.3809 C 308.0317,1109.5976 306.57202,1114.4435 314.21424,1112.7879 C 306.19151,1122.9051 315.25944,1126.1557 320.51954,1126.9749 L 324.19763,1120.1441 C 328.67927,1137.6515 333.13861,1130.4183 336.2828,1120.6696 C 334.4175,1129.694 336.05174,1132.3026 342.5881,1125.924 C 341.60305,1129.7333 337.89217,1135.3599 348.8934,1131.1784 C 346.70081,1140.666 350.2164,1141.9991 357.82592,1137.4837 C 357.68537,1145.0075 359.21382,1148.9924 364.65666,1141.1618 L 369.91108,1136.9583 C 375.1204,1139.7363 380.2695,1142.404 377.26727,1130.1275 C 385.11715,1136.9637 383.5229,1134.0147 383.04713,1126.9749 C 398.92755,1128.9196 392.11952,1122.138 390.92875,1117.5169 C 393.34923,1114.2896 380.51038,1110.3433 381.99624,1109.6353 C 392.55217,1104.6054 384.31727,1094.6564 379.89447,1096.4992 C 381.4557,1096.0309 387.30399,1084.7915 376.74182,1084.4141 C 361.52079,1083.8701 369.82925,1073.2108 369.38564,1074.4307 L 370.96197,1066.5491 L 366.75843,1060.2438 L 358.35136,1066.0236 C 363.85842,1057.4571 356.92941,1054.043 351.52061,1062.3455 C 348.44696,1067.0636 359.05852,1055.8135 349.94429,1057.0911 C 335.17041,1059.1621 342.06266,1049.3008 342.06266,1056.0402 C 336.90173,1053.6856 334.62708,1056.1414 333.65559,1060.7692 C 329.25007,1054.2015 325.69023,1050.3823 326.82485,1061.8201 C 323.14154,1058.6414 318.90489,1052.696 317.89233,1062.871 C 310.07312,1056.0859 310.70225,1063.3813 311.06159,1070.2272 C 306.42315,1058.4255 303.98799,1062.0467 302.12908,1069.7017 C 294.81872,1067.7766 290.98282,1068.3783 298.97643,1077.5833 L 292.67112,1081.7869 C 288.72962,1082.7147 281.7232,1081.8037 291.0948,1090.7194 C 282.87239,1098.3428 286.09489,1101.8044 293.19657,1103.8554 C 298.72646,1114.5904 299.5782,1106.6128 301.07819,1101.2282 z"
         style="fill:#207b04;fill-opacity:1;fill-rule:evenodd;stroke:#000000;stroke-width:1px;stroke-linecap:butt;stroke-linejoin:miter;stroke-opacity:0" />
      <path
         style="fill:#207b04;fill-opacity:1;fill-rule:evenodd;stroke:#000000;stroke-width:1px;stroke-linecap:butt;stroke-linejoin:miter;stroke-opacity:0"
         d="M 362.90641,1187.7232 C 374.86784,1206.7049 372.32308,1186.6957 372.32308,1186.6957 C 372.79897,1192.2549 373.58233,1197.2548 379.75331,1192.4524 C 376.90451,1205.0463 386.48563,1204.0483 391.58151,1202.5083 L 391.93789,1194.7584 C 403.56062,1208.597 404.44686,1200.146 403.05814,1189.9973 C 405.28582,1198.9392 407.88871,1200.5825 411.01719,1192.0021 C 411.77934,1195.8622 410.8718,1202.5409 418.97623,1194.0069 C 421.10956,1203.508 424.85567,1203.1867 429.75845,1195.8208 C 432.8907,1202.6631 435.99439,1205.5927 437.50832,1196.1773 L 440.42349,1190.1126 C 446.32206,1190.3601 452.11857,1190.5342 444.09503,1180.7695 C 454.1314,1183.531 451.4171,1181.5635 447.93899,1175.4245 C 463.09471,1170.2987 454.02103,1167.1352 450.94614,1163.4858 C 451.72986,1159.5286 438.44859,1161.5328 439.48116,1160.2511 C 446.81675,1151.1452 435.08504,1145.7449 431.89688,1149.3216 C 433.10121,1148.2233 433.50406,1135.5598 423.82067,1139.7946 C 409.86599,1145.8973 412.73747,1132.6909 412.86608,1133.9827 L 410.8729,1126.196 L 404.35302,1122.3336 L 399.2791,1131.1847 C 400.53216,1121.0781 392.80807,1121.0022 391.52923,1130.8283 C 390.80253,1136.4122 395.49398,1121.6758 387.83252,1126.7752 C 375.41355,1135.0411 377.35422,1123.1674 380.27343,1129.2419 C 374.60188,1129.3551 373.61542,1132.5538 374.74432,1137.1458 C 367.92873,1133.1344 363.06589,1131.234 369.04283,1141.0517 C 364.34612,1139.7821 357.95225,1136.2584 361.44695,1145.868 C 351.46036,1143.1394 355.18741,1149.4423 358.47655,1155.457 C 349.18391,1146.829 348.55762,1151.1477 350.1979,1158.8525 C 342.77506,1160.2839 339.5783,1162.4877 350.77026,1167.322 L 346.90794,1173.8419 C 343.75726,1176.3854 337.04762,1178.5991 349.35628,1182.5757 C 345.24732,1193.0084 349.65122,1194.7326 356.94051,1193.5051 C 366.57458,1200.7855 363.88678,1193.2262 362.90641,1187.7232 z"
         id="path3892"
         sodipodi:nodetypes="ccccccccccccccscsccccssccccccccccc" />
      <path
         sodipodi:nodetypes="cccccccccccccccccccc"
         id="path3894"
         d="M 288.4676,1141.1618 C 291.10568,1144.2416 292.40521,1149.1061 298.97643,1146.9417 L 297.92555,1138.0092 L 308.43439,1140.1109 L 308.95983,1130.1276 C 321.36363,1123.3657 310.27111,1122.8597 307.3835,1121.195 L 303.17997,1118.0424 L 297.92555,1120.1442 C 299.41302,1114.7267 301.05814,1109.1712 291.62025,1113.3134 C 296.41304,1102.9386 289.86019,1108.7718 285.31495,1111.7371 C 288.86889,1105.291 291.33157,1101.1851 281.11141,1104.3809 C 278.05328,1097.4306 276.51539,1102.6422 274.80611,1106.4827 C 262.55537,1095.9688 266.95767,1107.1038 267.97536,1113.8388 C 260.41319,1110.302 254.86337,1108.9787 261.14462,1120.6696 C 243.88953,1114.8531 253.58667,1123.411 255.8902,1128.0258 C 254.09641,1133.1564 227.87575,1134.2158 255.8902,1144.3145 C 254.21164,1159.37 260.94583,1153.3937 267.44992,1147.9926 C 263.38511,1160.8904 268.28767,1156.9744 275.33155,1149.0435 C 280.51373,1152.8759 284.25092,1154.5409 281.11141,1145.8908 C 288.61451,1152.7329 289.28942,1148.1946 288.4676,1141.1618 z"
         style="fill:#4bbe01;fill-opacity:1;fill-rule:evenodd;stroke:#000000;stroke-width:1px;stroke-linecap:butt;stroke-linejoin:miter;stroke-opacity:0" />
      <path
         sodipodi:nodetypes="cccccccccccccccccccc"
         id="path3896"
         d="M 362.5549,1114.3643 C 365.19298,1117.4441 366.49251,1122.3086 373.06373,1120.1442 L 372.01285,1111.2117 L 382.52169,1113.3134 L 383.04713,1103.3301 C 395.45093,1096.5682 384.35841,1096.0622 381.4708,1094.3975 L 377.26727,1091.2449 L 372.01285,1093.3467 C 373.50032,1087.9292 375.14544,1082.3737 365.70755,1086.5159 C 370.50034,1076.1411 363.94749,1081.9743 359.40225,1084.9396 C 362.95619,1078.4935 365.41887,1074.3876 355.19871,1077.5834 C 352.14058,1070.6331 350.60269,1075.8447 348.89341,1079.6852 C 336.64267,1069.1713 341.04497,1080.3063 342.06266,1087.0413 C 334.50049,1083.5045 328.95067,1082.1812 335.23192,1093.8721 C 317.97683,1088.0556 327.67397,1096.6135 329.9775,1101.2283 C 328.18371,1106.3589 301.96305,1107.4183 329.9775,1117.517 C 328.29894,1132.5725 335.03313,1126.5962 341.53722,1121.1951 C 337.47241,1134.0929 342.37497,1130.1769 349.41885,1122.246 C 354.60103,1126.0784 358.33822,1127.7434 355.19871,1119.0933 C 362.70181,1125.9354 363.37672,1121.3971 362.5549,1114.3643 z"
         style="fill:#4bbe01;fill-opacity:1;fill-rule:evenodd;stroke:#000000;stroke-width:1px;stroke-linecap:butt;stroke-linejoin:miter;stroke-opacity:0" />
      <path
         style="fill:#4bbe01;fill-opacity:1;fill-rule:evenodd;stroke:#000000;stroke-width:1px;stroke-linecap:butt;stroke-linejoin:miter;stroke-opacity:0"
         d="M 419.30263,1190.5534 C 421.94071,1193.6331 423.24024,1198.4976 429.81146,1196.3332 L 428.76058,1187.4007 L 439.26942,1189.5025 L 439.79486,1179.5191 C 452.19866,1172.7573 441.10614,1172.2512 438.21853,1170.5866 L 434.015,1167.4339 L 428.76058,1169.5357 C 430.24805,1164.1182 431.89317,1158.5628 422.45528,1162.7049 C 427.24807,1152.3301 420.69522,1158.1634 416.14998,1161.1286 C 419.70392,1154.6825 422.1666,1150.5766 411.94644,1153.7724 C 408.88831,1146.8221 407.35042,1152.0337 405.64114,1155.8742 C 393.3904,1145.3603 397.7927,1156.4953 398.81039,1163.2304 C 391.24822,1159.6935 385.6984,1158.3702 391.97965,1170.0611 C 374.72456,1164.2446 384.4217,1172.8026 386.72523,1177.4173 C 384.93144,1182.5479 358.71078,1183.6074 386.72523,1193.706 C 385.04667,1208.7615 391.78086,1202.7852 398.28495,1197.3841 C 394.22014,1210.2819 399.1227,1206.366 406.16658,1198.435 C 411.34876,1202.2675 415.08595,1203.9324 411.94644,1195.2823 C 419.44954,1202.1244 420.12445,1197.5862 419.30263,1190.5534 z"
         id="path3898"
         sodipodi:nodetypes="cccccccccccccccccccc" />
      <path
         sodipodi:nodetypes="ccccccccccccccscsccccssccccccccccc"
         id="path3900"
         d="M 258.34348,1146.7387 C 270.30491,1165.7204 267.76015,1145.7112 267.76015,1145.7112 C 268.23604,1151.2704 269.0194,1156.2703 275.19038,1151.4679 C 272.34158,1164.0618 281.9227,1163.0638 287.01858,1161.5238 L 287.37496,1153.7739 C 298.99769,1167.6125 299.88393,1159.1615 298.49521,1149.0128 C 300.72289,1157.9547 303.32578,1159.598 306.45426,1151.0176 C 307.21641,1154.8777 306.30887,1161.5564 314.4133,1153.0224 C 316.54663,1162.5235 320.29274,1162.2022 325.19552,1154.8363 C 328.32777,1161.6786 331.43146,1164.6082 332.94539,1155.1928 L 335.86056,1149.1281 C 341.75913,1149.3756 347.55564,1149.5497 339.5321,1139.785 C 349.56847,1142.5465 346.85417,1140.579 343.37606,1134.44 C 358.53178,1129.3142 349.4581,1126.1507 346.38321,1122.5013 C 347.16693,1118.5441 333.88566,1120.5483 334.91823,1119.2666 C 342.25382,1110.1607 330.52211,1104.7604 327.33395,1108.3371 C 328.53828,1107.2388 328.94113,1094.5753 319.25774,1098.8101 C 305.30306,1104.9128 308.17454,1091.7064 308.30315,1092.9982 L 306.30997,1085.2115 L 299.79009,1081.3491 L 294.71617,1090.2002 C 295.96923,1080.0936 288.24514,1080.0177 286.9663,1089.8438 C 286.2396,1095.4277 290.93105,1080.6913 283.26959,1085.7907 C 270.85062,1094.0566 272.79129,1082.1829 275.7105,1088.2574 C 270.03895,1088.3706 269.05249,1091.5693 270.18139,1096.1613 C 263.3658,1092.1499 258.50296,1090.2495 264.4799,1100.0672 C 259.78319,1098.7976 253.38932,1095.2739 256.88402,1104.8835 C 246.89743,1102.1549 250.62448,1108.4578 253.91362,1114.4725 C 244.62098,1105.8445 243.99469,1110.1632 245.63497,1117.868 C 238.21213,1119.2994 235.01537,1121.5032 246.20733,1126.3375 L 242.34501,1132.8574 C 239.19433,1135.4009 232.48469,1137.6146 244.79335,1141.5912 C 240.68439,1152.0239 245.08829,1153.7481 252.37758,1152.5206 C 262.01165,1159.801 259.32385,1152.2417 258.34348,1146.7387 z"
         style="fill:#44b600;fill-opacity:1;fill-rule:evenodd;stroke:#000000;stroke-width:1px;stroke-linecap:butt;stroke-linejoin:miter;stroke-opacity:0" />
      <path
         style="fill:#a05a2c;fill-rule:evenodd;stroke:#000000;stroke-width:1px;stroke-linecap:butt;stroke-linejoin:miter;stroke-opacity:0"
         d="M 342.05909,1284.5716 L 350.46971,1245.7248 L 347.8425,1205.7912 C 339.086,1193.7932 326.53039,1183.6947 301.07818,1180.0445 C 293.01586,1178.6267 286.83444,1182.8516 280.0605,1185.2989 L 288.46757,1176.8919 L 270.60255,1165.3322 L 269.02622,1153.7724 C 279.13946,1173.3172 296.21838,1170.2236 311.58701,1172.6883 L 289.51846,1141.1618 L 294.24743,1136.4329 C 297.62218,1149.364 303.92312,1154.9796 310.01069,1161.1286 C 319.26795,1155.4984 328.01898,1149.3619 333.13013,1139.5855 L 336.28278,1147.4671 L 315.79055,1165.8576 C 323.90563,1177.2247 333.09041,1164.4805 339.96088,1174.2647 C 347.98037,1163.7372 349.95191,1150.1857 352.57148,1136.9583 L 360.45311,1142.2127 L 346.26618,1176.8919 L 356.77502,1191.0788 C 373.75255,1169.0373 387.55996,1138.5421 408.26832,1126.4495 L 416.14995,1135.382 C 393.45534,1148.973 395.23086,1160.3395 386.19976,1172.6883 L 398.81037,1199.4859 C 413.74385,1190.4358 434.97181,1183.5216 443.47292,1170.0611 L 446.62558,1150.0943 L 451.87999,1141.6873 L 449.77823,1166.383 C 460.81251,1172.0655 471.84678,1163.8635 482.88106,1159.0269 L 484.45739,1164.2813 C 462.6677,1164.5365 392.62356,1222.8463 397.23404,1215.2491 C 402.53024,1206.522 409.41029,1290.9488 411.94641,1289.8619 C 369.84714,1286.3419 362.82906,1298.4848 342.05909,1284.5716 z"
         id="path3902"
         sodipodi:nodetypes="ccccccccccccccccccccccccccccccscc" />
      <path
         sodipodi:nodetypes="ccccccccccccccscsccccssccccccccccc"
         id="path3904"
         d="M 441.72269,1151.9931 C 453.68412,1170.9748 451.13936,1150.9656 451.13936,1150.9656 C 451.61525,1156.5248 452.39861,1161.5247 458.56959,1156.7223 C 455.72079,1169.3162 465.30191,1168.3182 470.39779,1166.7782 L 470.75417,1159.0283 C 482.3769,1172.8669 483.26314,1164.4159 481.87442,1154.2672 C 484.1021,1163.2091 486.70499,1164.8524 489.83347,1156.272 C 490.59562,1160.1321 489.68808,1166.8108 497.79251,1158.2768 C 499.92584,1167.7779 503.67195,1167.4566 508.57473,1160.0907 C 511.70698,1166.933 514.81067,1169.8626 516.3246,1160.4472 L 519.23977,1154.3825 C 525.13834,1154.63 530.93485,1154.8041 522.91131,1145.0394 C 532.94768,1147.8009 530.23338,1145.8334 526.75527,1139.6944 C 541.91099,1134.5686 532.83731,1131.4051 529.76242,1127.7557 C 530.54614,1123.7985 517.26487,1125.8027 518.29744,1124.521 C 525.63303,1115.4151 513.90132,1110.0148 510.71316,1113.5915 C 511.91749,1112.4932 512.32034,1099.8297 502.63695,1104.0645 C 488.68227,1110.1672 491.55375,1096.9608 491.68236,1098.2526 L 489.68918,1090.4659 L 483.1693,1086.6035 L 478.09538,1095.4546 C 479.34844,1085.348 471.62435,1085.2721 470.34551,1095.0982 C 469.61881,1100.6821 474.31026,1085.9457 466.6488,1091.0451 C 454.22983,1099.311 456.1705,1087.4373 459.08971,1093.5118 C 453.41816,1093.625 452.4317,1096.8237 453.5606,1101.4157 C 446.74501,1097.4043 441.88217,1095.5039 447.85911,1105.3216 C 443.1624,1104.052 436.76853,1100.5283 440.26323,1110.1379 C 430.27664,1107.4093 434.00369,1113.7122 437.29283,1119.7269 C 428.00019,1111.0989 427.3739,1115.4176 429.01418,1123.1224 C 421.59134,1124.5538 418.39458,1126.7576 429.58654,1131.5919 L 425.72422,1138.1118 C 422.57354,1140.6553 415.8639,1142.869 428.17256,1146.8456 C 424.0636,1157.2783 428.4675,1159.0025 435.75679,1157.775 C 445.39086,1165.0554 442.70306,1157.4961 441.72269,1151.9931 z"
         style="fill:#44b600;fill-opacity:1;fill-rule:evenodd;stroke:#000000;stroke-width:1px;stroke-linecap:butt;stroke-linejoin:miter;stroke-opacity:0" />
      <path
         style="fill:url(#linearGradient3783);fill-opacity:1;fill-rule:evenodd;stroke:#000000;stroke-width:1px;stroke-linecap:butt;stroke-linejoin:miter;stroke-opacity:0"
         d="M 248.88553,1132.5517 C 260.84696,1151.5334 258.3022,1131.5242 258.3022,1131.5242 C 258.77809,1137.0834 259.56145,1142.0833 265.73243,1137.2809 C 262.88363,1149.8748 272.46475,1148.8768 277.56063,1147.3368 L 277.91701,1139.5869 C 289.53974,1153.4255 290.42598,1144.9745 289.03726,1134.8258 C 291.26494,1143.7677 293.86783,1145.411 296.99631,1136.8306 C 297.75846,1140.6907 296.85092,1147.3694 304.95535,1138.8354 C 307.08868,1148.3365 310.83479,1148.0152 315.73757,1140.6493 C 318.86982,1147.4916 321.97351,1150.4212 323.48744,1141.0058 L 326.40261,1134.9411 C 332.30118,1135.1886 338.09769,1135.3627 330.07415,1125.598 C 340.11052,1128.3595 337.39622,1126.392 333.91811,1120.253 C 349.07383,1115.1272 340.00015,1111.9637 336.92526,1108.3143 C 337.70898,1104.3571 324.42771,1106.3613 325.46028,1105.0796 C 332.79587,1095.9737 321.06416,1090.5734 317.876,1094.1501 C 319.08033,1093.0518 319.48318,1080.3883 309.79979,1084.6231 C 295.84511,1090.7258 298.71659,1077.5194 298.8452,1078.8112 L 296.85202,1071.0245 L 290.33214,1067.1621 L 285.25822,1076.0132 C 286.51128,1065.9066 278.78719,1065.8307 277.50835,1075.6568 C 276.78165,1081.2407 281.4731,1066.5043 273.81164,1071.6037 C 261.39267,1079.8696 263.33334,1067.9959 266.25255,1074.0704 C 260.581,1074.1836 259.59454,1077.3823 260.72344,1081.9743 C 253.90785,1077.9629 249.04501,1076.0625 255.02195,1085.8802 C 250.32524,1084.6106 243.93137,1081.0869 247.42607,1090.6965 C 237.43948,1087.9679 241.16653,1094.2708 244.45567,1100.2855 C 235.16303,1091.6575 234.53674,1095.9762 236.17702,1103.681 C 228.75418,1105.1124 225.55742,1107.3162 236.74938,1112.1505 L 232.88706,1118.6704 C 229.73638,1121.2139 223.02674,1123.4276 235.3354,1127.4042 C 231.22644,1137.8369 235.63034,1139.5611 242.91963,1138.3336 C 252.5537,1145.614 249.8659,1138.0547 248.88553,1132.5517 z"
         id="path3906"
         sodipodi:nodetypes="ccccccccccccccscsccccssccccccccccc" />
      <path
         sodipodi:nodetypes="ccccccccccccccscsccccssccccccccccc"
         id="path3908"
         d="M 420.25056,1136.067 C 441.90775,1141.9276 426.48155,1128.9324 426.48155,1128.9324 C 430.59742,1132.6995 434.56061,1135.8467 435.84699,1128.1338 C 442.28239,1139.3279 448.65435,1132.1036 451.35979,1127.5187 L 446.37224,1121.5763 C 464.29629,1123.883 459.22355,1117.066 451.3273,1110.5411 C 459.0232,1115.61 462.05108,1115.0556 458.54013,1106.6244 C 461.71559,1108.9477 465.57213,1114.4755 465.75298,1102.7078 C 473.7583,1108.2518 476.29634,1105.4778 474.91324,1096.7383 C 481.85236,1099.6498 486.11997,1099.7024 480.85573,1091.7507 L 478.89194,1085.3148 C 483.39867,1081.5011 487.78056,1077.7027 475.26377,1075.9547 C 484.51727,1071.1875 481.18783,1071.5788 474.4707,1069.419 C 482.1473,1055.3819 473.3296,1059.2012 468.59559,1058.5996 C 466.49152,1055.1578 458.07919,1065.6288 457.9706,1063.9865 C 457.19839,1052.3189 444.9102,1056.2934 444.98778,1061.0842 C 445.1298,1059.4604 436.84786,1049.872 432.59326,1059.5468 C 426.46197,1073.4889 419.62829,1061.8289 420.59793,1062.692 L 413.85699,1058.3142 L 406.44447,1059.8896 L 408.70775,1069.8376 C 402.78334,1061.5542 397.04992,1066.7306 402.76537,1074.8252 C 406.01338,1079.4251 399.48208,1065.4067 397.30052,1074.3478 C 393.7642,1088.8409 387.14858,1078.7918 393.41079,1081.2828 C 389.31538,1085.2081 390.75657,1088.2292 394.69758,1090.8425 C 386.96668,1092.5085 382.10208,1094.4047 393.14934,1097.5779 C 388.83434,1099.8255 381.74394,1101.5647 390.8243,1106.2663 C 381.62966,1111.024 388.64091,1113.1358 395.13481,1115.3323 C 382.45438,1115.2802 384.91919,1118.8813 391.34495,1123.438 C 386.85425,1129.5192 385.99552,1133.3058 397.50321,1129.2807 L 399.07866,1136.6931 C 398.48391,1140.6984 395.04778,1146.872 406.7959,1141.4593 C 410.84046,1151.9171 415.24801,1150.2023 419.77858,1144.3616 C 431.79729,1143.1911 424.69939,1139.4511 420.25056,1136.067 z"
         style="fill:url(#linearGradient3785);fill-opacity:1;fill-rule:evenodd;stroke:#000000;stroke-width:1px;stroke-linecap:butt;stroke-linejoin:miter;stroke-opacity:0" />
      <path
         sodipodi:nodetypes="ccccccccccccccscsccccssccccccccccc"
         id="path3910"
         d="M 342.38099,1083.7495 C 344.12015,1106.1181 351.19175,1087.2281 351.19175,1087.2281 C 349.02253,1092.3686 347.38596,1097.1576 355.08375,1095.7838 C 346.69505,1105.5996 355.63753,1109.1809 360.86401,1110.1926 L 364.79038,1103.5015 C 368.62621,1121.1617 373.34808,1114.0971 376.8481,1104.4703 C 374.65271,1113.4202 376.1901,1116.087 382.95628,1109.9527 C 381.83201,1113.7233 377.91704,1119.2098 389.06437,1115.435 C 386.5249,1124.8358 389.98926,1126.297 397.75939,1122.064 C 397.34273,1129.5776 398.72385,1133.6159 404.45047,1125.9905 L 409.85571,1121.9826 C 414.95946,1124.9501 420.00718,1127.805 417.45771,1115.4265 C 425.05134,1122.5463 423.56642,1119.5408 423.34937,1112.4883 C 439.14773,1115.0147 432.59327,1107.9877 431.57297,1103.326 C 434.11025,1100.1898 421.42497,1095.7747 422.93586,1095.1218 C 433.66937,1090.4828 425.80525,1080.2382 421.31775,1081.9174 C 422.89511,1081.5067 429.15209,1070.4896 418.61095,1069.7246 C 403.42013,1068.6222 412.11432,1058.275 411.62625,1059.4779 L 413.49083,1051.6595 L 409.52168,1045.204 L 400.90801,1050.6714 C 406.72589,1042.3128 399.92691,1038.6466 394.21696,1046.745 C 390.9721,1051.3471 401.98955,1040.4942 392.83455,1041.4363 C 377.99464,1042.9635 385.24426,1033.3617 384.99687,1040.0967 C 379.92583,1037.5542 377.56259,1039.9248 376.42179,1044.5139 C 372.26039,1037.7889 368.84319,1033.8415 369.55709,1045.3133 C 365.99301,1042.0015 361.97748,1035.9044 360.59206,1046.0355 C 353.0272,1038.9679 353.38808,1046.2815 353.49585,1053.1359 C 349.29381,1041.1718 346.72738,1044.7012 344.58864,1052.2829 C 337.35385,1050.0907 333.49845,1050.5512 341.14871,1060.0435 L 334.69338,1064.0127 C 330.72044,1064.7952 323.75219,1063.6275 332.79017,1072.8813 C 324.2934,1080.1977 327.38662,1083.7753 334.40827,1086.0856 C 339.54031,1097.0163 340.68434,1089.0754 342.38099,1083.7495 z"
         style="fill:url(#linearGradient3787);fill-opacity:1;fill-rule:evenodd;stroke:#000000;stroke-width:1px;stroke-linecap:butt;stroke-linejoin:miter;stroke-opacity:0" />
      <g
         id="g3912"
         transform="translate(16.81414,297.92554)">
        <path
           sodipodi:nodetypes="ccccccccscccccc"
           id="path3914"
           d="M 328.91596,991.3671 C 332.72441,987.689 338.27951,933.08688 336.28279,933.08688 C 333.29343,919.42539 332.21366,905.7639 322.62131,892.10241 C 310.97685,888.67285 299.83771,882.71671 286.89126,885.79711 L 266.92447,875.81372 L 282.16228,877.91548 L 265.87358,846.38897 L 286.89126,877.91548 C 286.89126,877.91548 289.51847,859.52502 288.99303,861.62678 C 288.46758,863.72855 290.56935,877.39004 290.56935,877.39004 C 313.75191,881.24328 320.54619,885.09652 333.65559,888.94976 L 342.06265,932.036 L 336.28279,971.96958 C 343.56367,980.15169 342.86269,987.19401 340.46681,993.9943 L 328.91596,991.3671 z"
           style="fill:#c87137;fill-opacity:1;fill-rule:evenodd;stroke:#000000;stroke-width:1px;stroke-linecap:butt;stroke-linejoin:miter;stroke-opacity:0" />
        <path
           sodipodi:nodetypes="cscccccccccc"
           id="path3916"
           d="M 347.31708,991.93636 C 347.31708,991.93636 340.57588,911.78315 343.11355,908.3911 C 347.10268,903.05892 319.94453,863.60958 319.46866,863.72854 C 313.47093,860.31105 311.13801,851.66569 302.65452,853.2197 L 275.85699,856.37235 L 291.62024,850.06705 C 290.69465,842.0352 280.22111,838.77733 274.28066,833.25291 L 292.67113,841.13454 C 298.12654,834.25745 291.74455,825.68929 287.94215,817.48965 C 299.6944,826.42217 301.49756,835.35468 305.28173,844.28719 C 327.45223,854.69409 339.87792,874.8458 350.99518,896.30594 C 343.37449,933.29847 348.46811,960.11955 347.31708,991.93636 z"
           style="fill:#d38d5f;fill-opacity:1;fill-rule:evenodd;stroke:#000000;stroke-width:1px;stroke-linecap:butt;stroke-linejoin:miter;stroke-opacity:0" />
        <path
           sodipodi:nodetypes="cccscccscccccccccccccscscccccscccccccc"
           id="path3918"
           d="M 347.84784,991.89055 C 348.37328,989.26334 348.36795,959.88441 348.36795,959.88441 L 350.99516,947.27381 C 350.99516,947.27381 345.74074,943.07027 347.31707,940.96851 C 348.89339,938.86674 350.46972,921.52716 350.46972,921.52716 C 347.95829,912.98353 349.30436,905.72574 355.1987,899.98404 C 351.56666,896.46574 353.34663,891.14344 353.62237,886.32255 C 350.69522,890.22541 350.95608,863.60553 352.04605,860.05046 C 352.66214,858.04101 341.01177,826.42218 341.01177,826.42218 L 310.53614,790.69213 C 316.79111,794.62191 321.94953,804.03441 329.45205,801.72641 L 332.6047,771.77623 L 333.65558,802.7773 C 342.42992,799.68005 347.12046,791.68224 348.89339,780.18329 C 349.70751,790.44491 347.475,800.02949 335.75735,807.50627 C 339.81989,824.9883 355.54701,832.28286 358.35135,848.49074 C 360.00413,836.96733 371.78739,837.16118 373.58916,823.26953 L 370.43651,792.26846 L 365.18209,760.2165 L 373.58916,783.33594 C 382.51632,784.9029 386.46891,777.76437 389.87786,769.67446 C 392.24266,772.71491 384.73742,790.68854 376.74181,785.43771 C 373.54437,783.33791 377.7927,814.86246 377.7927,814.86246 C 377.7927,814.86246 390.92874,814.33702 393.03051,812.76069 C 395.13228,811.18437 407.74288,783.86139 407.74288,783.86139 L 402.48846,803.82818 C 418.74319,806.87716 422.68456,793.50832 431.38777,786.4886 C 422.96935,815.48953 394.77189,818.11842 375.16549,832.20204 L 369.91107,845.86353 C 369.91107,845.86353 362.02944,848.49074 362.02944,851.11795 C 362.02944,853.74516 364.65665,867.40665 364.65665,867.40665 L 366.75842,885.27167 L 363.60577,898.93316 L 366.75842,920.47627 L 361.504,946.22293 C 360.53054,955.89474 359.15124,965.36363 363.60577,977.74944 L 362.55844,995.07108 L 347.84784,991.89055 z"
           style="fill:#c87137;fill-opacity:1;fill-rule:evenodd;stroke:#000000;stroke-width:1px;stroke-linecap:butt;stroke-linejoin:miter;stroke-opacity:0" />
        <path
           sodipodi:nodetypes="cccccscccccccscccccsccccc"
           id="path3920"
           d="M 401.43759,995.61447 C 397.94449,994.31687 381.38024,954.05017 384.098,950.42647 L 386.19978,923.10347 L 382.52168,906.28937 L 390.92875,893.67877 C 390.92875,893.67877 405.11568,877.39007 407.21745,876.86457 C 409.31921,876.33917 420.87894,872.66107 420.87894,872.66107 C 445.38355,886.21207 459.07246,901.67167 459.76163,919.42537 L 455.03266,892.62787 C 445.765,888.37887 437.15263,882.16407 429.28601,873.71197 L 431.38777,869.50837 C 442.71998,882.15337 458.64549,876.42507 475.52489,866.88117 C 457.74153,871.89067 439.72893,877.58777 428.76056,862.15227 C 430.6861,858.94297 409.39575,866.91917 404.59024,868.98297 C 402.68636,869.80057 383.50014,878.65817 383.04712,880.01727 L 372.53828,884.74627 C 379.79437,876.51427 381.13655,868.28237 381.4708,860.05047 L 395.65773,843.23637 C 400.05552,837.33727 413.98677,833.02807 427.70968,832.72747 C 427.70968,832.72747 409.6827,834.63367 410.89554,831.67657 C 414.04819,823.98997 438.74396,827.15557 438.74396,827.47307 C 430.50964,820.30637 420.42367,824.24967 410.89554,824.84587 C 389.24358,835.97597 384.73883,847.67317 373.06373,860.05047 L 364.65665,991.93637 L 401.43759,995.61447 z"
           style="fill:#d38d5f;fill-opacity:1;fill-rule:evenodd;stroke:#000000;stroke-width:1px;stroke-linecap:butt;stroke-linejoin:miter;stroke-opacity:0" />
        <path
           sodipodi:nodetypes="csscccccsccccccc"
           id="path3922"
           d="M 344.16443,980.90209 C 347.31708,979.32576 349.41884,974.07134 348.8934,971.44413 C 348.36796,968.81692 345.21531,968.29148 346.26619,966.18971 C 347.31708,964.08795 348.8934,949.90102 348.8934,949.90102 L 348.36796,937.81585 C 346.45208,929.7126 344.78978,921.54596 348.36796,912.0692 L 349.41884,898.93316 L 352.5715,883.1699 C 352.5715,883.1699 354.67326,898.40771 354.67326,900.50948 C 354.67326,902.61125 350.99517,914.17097 350.99517,914.17097 L 352.04605,930.45967 L 350.46973,943.59571 L 352.04605,954.10455 L 348.8934,964.61339 L 351.52771,993.97836 L 344.16443,980.90209 z"
           style="fill:#502d16;fill-rule:evenodd;stroke:#000000;stroke-width:1px;stroke-linecap:butt;stroke-linejoin:miter;stroke-opacity:0" />
        <path
           id="path3924"
           d="M 360.97856,979.85121 L 360.97856,932.56144 L 365.1821,909.96744 C 365.1821,909.96744 360.45312,898.40772 360.97856,895.78051 C 361.504,893.1533 365.70754,870.5593 365.70754,870.5593 L 360.97856,863.72856 L 362.02945,844.28721 L 369.91107,838.50735 L 376.21638,827.47307 L 390.40331,816.43879 C 390.40331,816.43879 368.33475,843.76176 366.75842,852.16883 C 365.1821,860.5759 370.96196,867.40665 370.96196,867.40665 L 367.80931,883.1699 L 369.91107,899.4586 L 366.23298,922.0526 L 369.38563,928.35791 L 364.13121,942.01939 L 370.43652,965.66428 L 361.504,989.8346 L 360.97856,979.85121 z"
           style="fill:#784421;fill-rule:evenodd;stroke:#000000;stroke-width:1px;stroke-linecap:butt;stroke-linejoin:miter;stroke-opacity:0" />
        <path
           sodipodi:nodetypes="cccccccccc"
           id="path3926"
           d="M 380.41991,885.27166 C 385.58198,888.33833 386.1273,892.94392 387.25065,897.35682 L 394.0814,887.89887 L 399.86126,886.32255 L 397.23405,875.28827 L 394.0814,876.33915 C 396.08947,880.97443 397.48221,884.99439 396.70861,886.84799 L 388.30154,883.1699 L 390.92875,888.42432 C 390.92876,890.1758 387.42579,889.12489 380.41991,885.27166 z"
           style="fill:#502d16;fill-rule:evenodd;stroke:#000000;stroke-width:1px;stroke-linecap:butt;stroke-linejoin:miter;stroke-opacity:0" />
        <path
           id="path3928"
           d="M 374.64005,785.96315 L 372.01284,798.04832 L 377.26726,817.48967 L 386.19977,818.01511 C 386.19977,818.01511 388.82698,816.96422 391.97963,813.81157 C 395.13228,810.65892 397.23405,805.92994 397.23405,805.92994 L 384.098,813.28613 C 384.098,813.28613 380.41991,816.43878 379.36903,813.81157 C 378.31814,811.18436 374.64005,794.37022 374.64005,794.37022 L 376.21638,782.8105 L 374.64005,785.96315 z"
           style="fill:#502d16;fill-rule:evenodd;stroke:#000000;stroke-width:1px;stroke-linecap:butt;stroke-linejoin:miter;stroke-opacity:0" />
        <path
           id="path3930"
           d="M 340.48101,994.51776 C 341.53189,991.89055 341.53722,966.71516 341.53722,966.71516 L 337.33368,964.08795 L 341.01177,955.68088 L 342.06266,945.69749 L 345.74075,934.13777 L 342.5881,913.64553 L 342.06266,901.03493 C 342.06266,901.03493 336.80824,885.79712 332.60471,885.79712 C 328.40117,885.79712 315.79057,877.39005 315.79057,877.39005 L 301.07819,879.49181 L 288.99303,880.01725 L 304.75629,882.64446 L 313.6888,881.59358 L 327.87573,889.47521 L 337.85912,902.08581 L 339.96089,930.45967 L 337.33368,954.63 L 339.43545,985.63107 L 340.48101,994.51776 z"
           style="fill:#784421;fill-opacity:1;fill-rule:evenodd;stroke:#000000;stroke-width:1px;stroke-linecap:butt;stroke-linejoin:miter;stroke-opacity:0"
           sodipodi:nodetypes="ccccccccsccccccccccc" />
        <path
           sodipodi:nodetypes="ccccccccc"
           id="path3932"
           d="M 295.82378,845.86352 C 300.55275,845.86352 323.14675,863.72855 323.14675,863.72855 C 327.96567,867.57706 327.92803,881.13868 337.85912,874.76283 L 343.63898,892.62785 L 351.52061,904.18757 L 344.68986,876.33915 C 337.70123,870.89232 330.56767,865.59044 326.2994,857.42325 L 307.38349,847.96529 L 295.82378,845.86352 z"
           style="fill:#784421;fill-opacity:1;fill-rule:evenodd;stroke:#000000;stroke-width:1px;stroke-linecap:butt;stroke-linejoin:miter;stroke-opacity:0" />
        <path
           sodipodi:nodetypes="ccsscccsccc"
           id="path3934"
           d="M 369.38564,990.36004 L 372.53829,969.86781 C 372.53829,969.86781 366.75843,954.62999 367.28387,952.52823 C 367.80931,950.42646 370.96196,930.45967 370.43652,928.3579 C 369.91108,926.25613 370.96196,906.81478 370.96196,906.81478 L 373.06373,886.32255 C 380.19076,877.94324 386.24397,877.08073 391.97964,878.44092 C 384.94673,876.49424 374.69601,889.70242 376.74183,893.67874 C 378.27831,896.6651 375.42024,936.18663 378.84359,937.29041 C 366.54004,941.79707 380.94619,975.44158 382.52168,995.08902 L 369.38564,990.36004 z"
           style="fill:#784421;fill-opacity:1;fill-rule:evenodd;stroke:#000000;stroke-width:1px;stroke-linecap:butt;stroke-linejoin:miter;stroke-opacity:0" />
        <path
           id="path3936"
           d="M 380.94535,991.41092 C 380.94535,991.41092 375.69093,977.22399 375.69093,973.02046 C 375.69093,968.81692 378.84359,968.29148 375.16549,963.5625 C 371.4874,958.83353 371.4874,943.07027 371.4874,943.07027 C 371.4874,943.07027 378.31814,958.83353 378.31814,960.93529 C 378.31814,963.03706 381.47079,976.17311 381.47079,976.17311 L 386.72521,983.52929 L 387.7761,994.03813 L 380.94535,991.41092 z"
           style="fill:#502d16;fill-rule:evenodd;stroke:#000000;stroke-width:1px;stroke-linecap:butt;stroke-linejoin:miter;stroke-opacity:0" />
        <path
           id="path3938"
           d="M 383.57256,904.71302 L 407.74289,895.78051 L 422.45526,881.06813 L 383.57256,904.71302 z"
           style="fill:#784421;fill-opacity:1;fill-rule:evenodd;stroke:#000000;stroke-width:1px;stroke-linecap:butt;stroke-linejoin:miter;stroke-opacity:0" />
        <path
           id="path3940"
           d="M 329.97749,864.25399 L 331.02837,874.23739 L 338.38456,872.13562 L 334.18103,867.93209 L 329.97749,864.25399 z"
           style="fill:#502d16;fill-rule:evenodd;stroke:#000000;stroke-width:1px;stroke-linecap:butt;stroke-linejoin:miter;stroke-opacity:0" />
      </g>
      <path
         sodipodi:nodetypes="cccccccccccccccccccc"
         id="path3942"
         d="M 347.92075,1142.5394 C 349.93038,1144.7282 350.92033,1148.1855 355.92615,1146.6472 L 355.12561,1140.2987 L 363.13102,1141.7925 L 363.53129,1134.6971 C 372.98024,1129.8914 364.53019,1129.5317 362.33047,1128.3486 L 359.12832,1126.108 L 355.12561,1127.6017 C 356.25873,1123.7514 357.51195,1119.8031 350.32237,1122.747 C 353.97341,1115.3734 348.98159,1119.5193 345.51913,1121.6267 C 348.22644,1117.0453 350.10246,1114.1272 342.31696,1116.3985 C 339.98734,1111.4588 338.81581,1115.1628 337.51372,1117.8923 C 328.18137,1110.4199 331.53495,1118.3337 332.3102,1123.1205 C 326.5495,1120.6067 322.32177,1119.6662 327.10669,1127.9752 C 313.96213,1123.8413 321.34921,1129.9236 323.10399,1133.2033 C 321.73751,1136.8497 301.76318,1137.6027 323.10399,1144.78 C 321.82529,1155.4802 326.95526,1151.2327 331.90993,1147.3941 C 328.81345,1156.5608 332.54811,1153.7777 337.91399,1148.141 C 341.86166,1150.8648 344.70857,1152.0481 342.31696,1145.9003 C 348.03266,1150.7631 348.54679,1147.5377 347.92075,1142.5394 z"
         style="fill:url(#linearGradient3789);fill-opacity:1;fill-rule:evenodd;stroke:#000000;stroke-width:0.73580492px;stroke-linecap:butt;stroke-linejoin:miter;stroke-opacity:0" />
      <path
         sodipodi:nodetypes="ccccccccccccccscsccccssccccccccccc"
         id="path3944"
         d="M 453.98191,1138.7689 C 455.02673,1154.9868 459.24565,1141.2882 459.24565,1141.2882 C 457.95132,1145.0161 456.97505,1148.4889 461.57272,1147.4903 C 456.56461,1154.61 461.90708,1157.2038 465.0292,1157.9357 L 467.3727,1153.0829 C 469.66866,1165.8863 472.48722,1160.7625 474.57525,1153.7814 C 473.26632,1160.2713 474.18534,1162.2044 478.22521,1157.7545 C 477.5547,1160.4887 475.21771,1164.4681 481.87516,1161.7275 C 480.36085,1168.5444 482.43053,1169.6027 487.07065,1166.531 C 486.82376,1171.9789 487.64982,1174.9065 491.06838,1169.3758 L 494.29593,1166.4681 C 497.34531,1168.618 500.36115,1170.6863 498.83498,1161.712 C 503.37267,1166.8718 502.48491,1164.6931 502.35339,1159.5797 C 511.79066,1161.4064 507.87368,1156.3136 507.26301,1152.9338 C 508.77773,1150.6591 501.19942,1147.462 502.10169,1146.9882 C 508.51174,1143.6211 503.81163,1136.1957 501.13164,1137.4147 C 502.07371,1137.1164 505.80815,1129.1264 499.51152,1128.5752 C 490.43751,1127.7808 495.62793,1120.2756 495.33669,1121.148 L 496.44835,1115.4785 L 494.07576,1110.7993 L 488.93217,1114.7662 C 492.40504,1108.7039 488.3429,1106.0479 484.9344,1111.9216 C 482.99747,1115.2594 489.57546,1107.3868 484.10728,1108.0729 C 475.24355,1109.185 479.57131,1102.2208 479.42531,1107.1042 C 476.39564,1105.2624 474.98466,1106.982 474.30449,1110.3097 C 471.81701,1105.435 469.77479,1102.5741 470.20431,1110.8915 C 468.07451,1108.4914 465.67433,1104.0721 464.84952,1111.4181 C 460.329,1106.2962 460.54655,1111.5988 460.61274,1116.5686 C 458.09958,1107.8954 456.56755,1110.4552 455.29211,1115.953 C 450.97007,1114.366 448.6673,1114.701 453.23947,1121.581 L 449.38464,1124.461 C 447.01177,1125.0297 442.84922,1124.1854 448.25023,1130.8919 C 443.17694,1136.1995 445.02554,1138.7925 449.22028,1140.4653 C 452.28867,1148.389 452.9699,1142.6311 453.98191,1138.7689 z"
         style="fill:url(#linearGradient3791);fill-opacity:1;fill-rule:evenodd;stroke:#000000;stroke-width:0.65809494px;stroke-linecap:butt;stroke-linejoin:miter;stroke-opacity:0" />
    </g>
    <rect
       style="opacity:1;fill:#afc6e9;fill-opacity:0;fill-rule:nonzero;stroke:#000000;stroke-width:8.30000019;stroke-linecap:round;stroke-linejoin:round;stroke-miterlimit:4;stroke-dasharray:none;stroke-dashoffset:0;stroke-opacity:0"
       id="rect2982"
       width="233.62994"
       height="303.08749"
       x="-1.2628646"
       y="6.71031"
       rx="1.5968965"
       ry="0.041173849" />
    <rect
       style="opacity:1;fill:#afc6e9;fill-opacity:0;fill-rule:nonzero;stroke:#000000;stroke-width:8.30000019;stroke-linecap:round;stroke-linejoin:round;stroke-miterlimit:4;stroke-dasharray:none;stroke-dashoffset:0;stroke-opacity:0"
       id="rect2984"
       width="637.74664"
       height="252.57292"
       x="16.41724"
       y="192.35141"
       rx="1.5968965"
       ry="0.041173849" />
    <rect
       style="opacity:1;fill:#afc6e9;fill-opacity:0;fill-rule:nonzero;stroke:#000000;stroke-width:8.30000019;stroke-linecap:round;stroke-linejoin:round;stroke-miterlimit:4;stroke-dasharray:none;stroke-dashoffset:0;stroke-opacity:0"
       id="rect2986"
       width="530.40314"
       height="292.98459"
       x="46.72599"
       y="92.585098"
       rx="1.5968965"
       ry="0.041173849" />
  </g>
</svg>
