<?xml version="1.0" encoding="UTF-8" standalone="no"?>
<!-- Created with Inkscape (http://www.inkscape.org/) -->

<svg
   xmlns:dc="http://purl.org/dc/elements/1.1/"
   xmlns:cc="http://creativecommons.org/ns#"
   xmlns:rdf="http://www.w3.org/1999/02/22-rdf-syntax-ns#"
   xmlns:svg="http://www.w3.org/2000/svg"
   xmlns="http://www.w3.org/2000/svg"
   xmlns:sodipodi="http://sodipodi.sourceforge.net/DTD/sodipodi-0.dtd"
   xmlns:inkscape="http://www.inkscape.org/namespaces/inkscape"
   width="206.138"
   height="165.40189"
   id="svg8332"
   version="1.1"
   inkscape:version="0.48.2 r9819"
   sodipodi:docname="icon-exit.svg">
  <defs
     id="defs3">
    <inkscape:perspective
       sodipodi:type="inkscape:persp3d"
       inkscape:vp_x="0 : 526.18109 : 1"
       inkscape:vp_y="0 : 1000 : 0"
       inkscape:vp_z="744.09448 : 526.18109 : 1"
       inkscape:persp3d-origin="372.04724 : 350.78739 : 1"
       id="perspective8338" />
    <inkscape:perspective
       id="perspective8348"
       inkscape:persp3d-origin="0.5 : 0.33333333 : 1"
       inkscape:vp_z="1 : 0.5 : 1"
       inkscape:vp_y="0 : 1000 : 0"
       inkscape:vp_x="0 : 0.5 : 1"
       sodipodi:type="inkscape:persp3d" />
  </defs>
  <sodipodi:namedview
     inkscape:document-units="mm"
     id="base"
     pagecolor="#ffffff"
     bordercolor="#666666"
     borderopacity="1.0"
     inkscape:pageopacity="0.0"
     inkscape:pageshadow="2"
     inkscape:zoom="1.882384"
     inkscape:cx="9.4925558"
     inkscape:cy="39.255838"
     inkscape:current-layer="layer1"
     showgrid="false"
     inkscape:window-width="2560"
     inkscape:window-height="1510"
     inkscape:window-x="-8"
     inkscape:window-y="31"
     inkscape:window-maximized="1" />
  <metadata
     id="metadata4">
    <rdf:RDF>
      <cc:Work
         rdf:about="">
        <dc:format>image/svg+xml</dc:format>
        <dc:type
           rdf:resource="http://purl.org/dc/dcmitype/StillImage" />
        <dc:title />
      </cc:Work>
    </rdf:RDF>
  </metadata>
  <g
     inkscape:label="Layer 1"
     inkscape:groupmode="layer"
     id="layer1"
     transform="translate(-9.9838755,-8.6450015)">
    <path
       sodipodi:nodetypes="cccccccccccccccccccccccccccccssccccccccc"
       d="M 73.624399,61.330885 20.563964,89.937922 c -1.32486,0.592307 -1.501504,1.817033 0,2.59002 l 53.079243,28.713828 c 1.928915,0.87939 3.466644,0.33906 3.401965,-1.93076 l 0,-11.2933 c 0.01364,-2.17931 0.50647,-2.66787 2.652344,-2.70472 l 48.906284,0 c 2.27328,0.0712 3.3479,-0.92875 3.29953,-3.30977 l 0,-21.311522 c 0.061,-2.293064 -1.02625,-3.501945 -3.26171,-3.433095 l -48.944104,0 c -2.158506,-0.03874 -2.62623,-0.503401 -2.652344,-2.67174 l 0,-11.344934 c 0.07353,-2.415526 -1.384651,-2.797019 -3.420773,-1.911044 z m 20.863465,-40.05351 0,33.095631 c -0.09334,2.132492 1.08773,3.361507 3.240346,3.299868 l 19.89626,0 c 2.17613,0.06596 3.23178,-0.877421 3.17456,-3.248231 l 0,-7.982871 c 0.027,-2.036691 0.72261,-2.705297 2.69269,-2.702718 l 51.96092,0 c 2.03725,0.03185 2.61085,0.592887 2.66712,2.689796 l 0,89.6178 c -0.0142,1.66661 -0.88641,2.59755 -2.61665,2.67661 l -52.09063,0 c -1.84539,-0.0129 -2.61379,-0.71985 -2.61345,-2.68693 l 0,-7.72526 c 0.0732,-2.42193 -0.93723,-3.35512 -3.22501,-3.35512 l -19.795333,0 c -2.232556,0 -3.367336,0.92027 -3.290823,3.39386 l 0,33.04194 c -0.06391,2.19066 1.133988,3.36169 3.252978,3.31954 l 104.512548,0 c 2.01373,0.0293 3.27039,-1.09017 3.24006,-3.28083 l 0,-140.1918 c 0.0219,-2.069774 -1.14222,-3.300632 -3.22745,-3.305342 l -104.550397,0 c -1.959169,-0.0081 -3.262188,1.20975 -3.227739,3.344057 z"
       style="fill:#ee7700;fill-rule:evenodd;stroke:#000000;stroke-width:6.37795258;stroke-linecap:butt;stroke-linejoin:miter;stroke-miterlimit:4;stroke-opacity:1;stroke-dasharray:none"
       id="path8242"
       inkscape:connector-curvature="0" />
  </g>
</svg>
