<?xml version="1.0" encoding="UTF-8" standalone="no"?>
<!-- Created with Inkscape (http://www.inkscape.org/) -->

<svg
   xmlns:dc="http://purl.org/dc/elements/1.1/"
   xmlns:cc="http://creativecommons.org/ns#"
   xmlns:rdf="http://www.w3.org/1999/02/22-rdf-syntax-ns#"
   xmlns:svg="http://www.w3.org/2000/svg"
   xmlns="http://www.w3.org/2000/svg"
   xmlns:xlink="http://www.w3.org/1999/xlink"
   xmlns:sodipodi="http://sodipodi.sourceforge.net/DTD/sodipodi-0.dtd"
   xmlns:inkscape="http://www.inkscape.org/namespaces/inkscape"
   width="32px"
   height="32px"
   id="svg2994"
   version="1.1"
   inkscape:version="0.48.4 r9939"
   sodipodi:docname="instantiation.svg">
  <defs
     id="defs2996">
    <radialGradient
       inkscape:collect="always"
       xlink:href="#linearGradient8053"
       id="radialGradient8059"
       cx="25.333332"
       cy="23.173332"
       fx="25.333332"
       fy="23.173332"
       r="22.83"
       gradientTransform="matrix(1.0416667,0,0,1.0412987,-2.3888887,-0.13036172)"
       gradientUnits="userSpaceOnUse" />
    <linearGradient
       id="linearGradient8053">
      <stop
         style="stop-color:#ffffff;stop-opacity:1;"
         offset="0"
         id="stop8055" />
      <stop
         id="stop3863"
         offset="0.5"
         style="stop-color:#ffffff;stop-opacity:1;" />
      <stop
         style="stop-color:#ffffff;stop-opacity:0;"
         offset="1"
         id="stop8057" />
    </linearGradient>
    <linearGradient
       id="linearGradient3718">
      <stop
         style="stop-color:#ddb090;stop-opacity:1;"
         offset="0"
         id="stop3720" />
      <stop
         id="stop3726"
         offset="0.5"
         style="stop-color:#ebd1bf;stop-opacity:1;" />
      <stop
         style="stop-color:#ce8d60;stop-opacity:1;"
         offset="1"
         id="stop3722" />
    </linearGradient>
    <linearGradient
       inkscape:collect="always"
       xlink:href="#linearGradient3690"
       id="linearGradient3696"
       x1="279.91721"
       y1="487.9859"
       x2="298.99103"
       y2="508.32077"
       gradientUnits="userSpaceOnUse" />
    <linearGradient
       id="linearGradient3690">
      <stop
         style="stop-color:#f09092;stop-opacity:1;"
         offset="0"
         id="stop3692" />
      <stop
         id="stop3714"
         offset="0.25"
         style="stop-color:#f2acac;stop-opacity:1;" />
      <stop
         id="stop3712"
         offset="0.5"
         style="stop-color:#f5c8c7;stop-opacity:1;" />
      <stop
         style="stop-color:#cf8885;stop-opacity:1;"
         offset="0.75"
         id="stop3716" />
      <stop
         style="stop-color:#aa4944;stop-opacity:1;"
         offset="1"
         id="stop3694" />
    </linearGradient>
    <linearGradient
       inkscape:collect="always"
       xlink:href="#linearGradient3690"
       id="linearGradient3152"
       gradientUnits="userSpaceOnUse"
       gradientTransform="translate(-262.67709,-485.80126)"
       x1="279.91721"
       y1="487.9859"
       x2="298.99103"
       y2="508.32077" />
    <linearGradient
       inkscape:collect="always"
       xlink:href="#linearGradient3718"
       id="linearGradient3154"
       gradientUnits="userSpaceOnUse"
       gradientTransform="translate(-262.67709,-485.80126)"
       x1="235.88579"
       y1="538.61761"
       x2="247.01926"
       y2="549.68903" />
  </defs>
  <sodipodi:namedview
     id="base"
     pagecolor="#ffffff"
     bordercolor="#666666"
     borderopacity="1.0"
     inkscape:pageopacity="0.0"
     inkscape:pageshadow="2"
     inkscape:zoom="28.125"
     inkscape:cx="10.062222"
     inkscape:cy="11.583878"
     inkscape:current-layer="layer1"
     showgrid="true"
     inkscape:grid-bbox="true"
     inkscape:document-units="px"
     inkscape:window-width="2560"
     inkscape:window-height="1511"
     inkscape:window-x="-8"
     inkscape:window-y="31"
     inkscape:window-maximized="1" />
  <metadata
     id="metadata2999">
    <rdf:RDF>
      <cc:Work
         rdf:about="">
        <dc:format>image/svg+xml</dc:format>
        <dc:type
           rdf:resource="http://purl.org/dc/dcmitype/StillImage" />
        <dc:title />
      </cc:Work>
    </rdf:RDF>
  </metadata>
  <g
     id="layer1"
     inkscape:label="Layer 1"
     inkscape:groupmode="layer">
    <rect
       style="fill:#ffffff;fill-opacity:1;stroke:#000000;stroke-width:1;stroke-miterlimit:2;stroke-opacity:1;stroke-dasharray:none"
       id="rect7281-1-3-3"
       width="29"
       height="29"
       x="1.5"
       y="1.5" />
    <rect
       style="fill:#000000;fill-opacity:1;stroke:none"
       id="rect3192-3-3-0"
       width="15"
       height="1"
       x="4"
       y="14" />
    <rect
       style="fill:#000000;fill-opacity:1;stroke:none"
       id="rect3192-3-3-4"
       width="5"
       height="1"
       x="4"
       y="19" />
    <g
       id="g3139"
       transform="matrix(0.31003888,0,0,0.31003888,16.34182,5.4132463)">
      <path
         sodipodi:nodetypes="cccscssccc"
         id="path2830"
         d="m -32.913336,69.597461 3.25608,-9.27034 6.92298,-19.71037 c 0,0 42.26073,-41.6772094 44.49003,-42.7801394 2.2293,-1.10292 4.57304,0.56973 4.57304,0.56973 0,0 4.63544,2.08365999 8.88068,6.96369 4.24523,4.8800394 6.37825,7.5723794 6.22996,10.1060194 -0.1483,2.53364 -44.4796299,43.03246 -44.4796299,43.03246 l -19.7353401,7.32579 -10.1378,3.76316 z"
         style="fill:url(#linearGradient3152);fill-opacity:1;stroke:#000000;stroke-width:3.22540188px;stroke-linecap:butt;stroke-linejoin:miter;stroke-opacity:1"
         inkscape:connector-curvature="0" />
      <path
         sodipodi:nodetypes="ccccccccsccc"
         id="path2834"
         d="m -23.739696,43.817621 0.38756,3.2698 7.11321,-2.1889 1.38379,9.04204 7.9794101,0.42929 0.7179,5.15184 3.11763,-1.01318 18.5004399,-17.19164 c 0,0 -3.91876,-6.15726 -9.3202599,-11.49513 -5.35876003,-5.29564 -9.80542,-7.93659 -9.80542,-7.93659 l -19.0688401,18.7316 -1.00542,3.20087 z"
         style="fill:#fba635;fill-opacity:1;stroke:#000000;stroke-width:3.22540188px;stroke-linecap:butt;stroke-linejoin:miter;stroke-opacity:1"
         inkscape:connector-curvature="0" />
      <path
         sodipodi:nodetypes="ccscccc"
         id="path2836"
         d="M -16.238926,44.898521 2.8507041,26.671571 c 0,0 1.16146,0.58399 4.73428,4.48074 3.5728099,3.89674 4.7758899,5.49004 4.7758899,5.49004 l -19.2365999,17.7275 -7.9794101,-0.42929 -1.38379,-9.04204 z"
         style="fill:#f5b25f;fill-opacity:1;stroke:none"
         inkscape:connector-curvature="0" />
      <path
         id="path2838"
         d="m -6.1578259,59.521691 3.11763,-1.01318 18.5004399,-17.19164 -3.09937,-4.67452 -19.2365999,17.7275 0.7179,5.15184 z"
         style="fill:#b54d0e;fill-opacity:1;stroke:none"
         inkscape:connector-curvature="0" />
      <path
         sodipodi:nodetypes="cccc"
         id="path2832"
         d="m -29.327006,59.919041 6.22953,5.82457 -9.81586,3.85385 3.58633,-9.67842 z"
         style="fill:#000000;stroke:none"
         inkscape:connector-curvature="0" />
      <path
         style="fill:none;stroke:#000000;stroke-width:3.22540188px;stroke-linecap:butt;stroke-linejoin:miter;stroke-opacity:1"
         d="m -23.739696,43.817621 0.38756,3.2698 7.11321,-2.1889 1.38379,9.04204 7.9794101,0.42929 0.7179,5.15184 3.11763,-1.01318 18.5004399,-17.19164 c 0,0 -3.91876,-6.15726 -9.3202599,-11.49513 -5.35876003,-5.29564 -9.80542,-7.93659 -9.80542,-7.93659 l -19.0688401,18.7316 -1.00542,3.20087 z"
         id="path2840"
         sodipodi:nodetypes="ccccccccsccc"
         inkscape:connector-curvature="0" />
      <path
         id="path2842"
         d="m -29.327006,59.919041 6.22953,5.82457 16.9396501,-6.22192 -0.7179,-5.15184 -7.9794101,-0.42929 -1.38379,-9.04204 -7.11321,2.1889 -0.38756,-3.2698 -5.58731,16.10142 z"
         style="fill:url(#linearGradient3154);fill-opacity:1;stroke:#000000;stroke-width:3.22540188px;stroke-linecap:butt;stroke-linejoin:miter;stroke-opacity:1"
         inkscape:connector-curvature="0" />
      <path
         id="path2844"
         d="m 10.454404,8.7917814 c 0,0 6.41732,2.3893296 10.65215,7.0170396 4.23484,4.62771 8.95738,11.88921 8.95738,11.88921 l -14.60369,13.61884 c 0,0 -6.3353199,-9.59618 -9.4724199,-12.12073 -3.13712,-2.52457 -9.65326,-7.31099 -9.65326,-7.31099 L 10.454404,8.7917814 z"
         style="fill:#7e5f56;fill-opacity:1;stroke:none"
         inkscape:connector-curvature="0" />
      <path
         id="path2846"
         d="m -3.6654359,21.885151 6.51614,4.78642 L 17.438794,12.674251 10.454404,8.7917814 -3.6654359,21.885151"
         style="fill:#d6c8c6;fill-opacity:1;stroke:none"
         inkscape:connector-curvature="0" />
      <path
         sodipodi:nodetypes="ccccsc"
         id="path2848"
         d="m 2.8507041,26.671571 3.87365,3.27648 5.6365199,6.6943 14.37217,-13.10379 c 0,0 -1.68559,-4.10093 -3.66644,-6.16766 -1.98085,-2.06674 -5.62781,-4.69665 -5.62781,-4.69665"
         style="fill:#ece4e2;fill-opacity:1;stroke:none"
         inkscape:connector-curvature="0" />
      <path
         sodipodi:nodetypes="csccscc"
         style="fill:none;stroke:#000000;stroke-width:3.22540188px;stroke-linecap:butt;stroke-linejoin:miter;stroke-opacity:1"
         d="m 10.454404,8.7917814 c 0,0 6.41732,2.3893296 10.65215,7.0170396 4.23484,4.62771 8.95738,11.88921 8.95738,11.88921 l -14.60369,13.61884 c 0,0 -5.7015399,-8.27134 -8.7358899,-11.36882 -2.8179,-2.87653 -10.38979,-8.0629 -10.38979,-8.0629 L 10.454404,8.7917814 z"
         id="path2850"
         inkscape:connector-curvature="0" />
    </g>
    <rect
       style="fill:#000000;fill-opacity:1;stroke:none"
       id="rect3192"
       width="1.6044445"
       height="1"
       x="4"
       y="27" />
    <rect
       style="fill:#000000;fill-opacity:1;stroke:none"
       id="rect3192-3"
       width="9"
       height="1"
       x="4"
       y="4" />
    <rect
       style="fill:#000000;fill-opacity:1;stroke:none"
       id="rect3192-3-3"
       width="5"
       height="1"
       x="4"
       y="9" />
  </g>
</svg>
