<?xml version="1.0" encoding="UTF-8" standalone="no"?>
<!-- Created with Inkscape (http://www.inkscape.org/) -->

<svg
   xmlns:dc="http://purl.org/dc/elements/1.1/"
   xmlns:cc="http://creativecommons.org/ns#"
   xmlns:rdf="http://www.w3.org/1999/02/22-rdf-syntax-ns#"
   xmlns:svg="http://www.w3.org/2000/svg"
   xmlns="http://www.w3.org/2000/svg"
   xmlns:xlink="http://www.w3.org/1999/xlink"
   xmlns:sodipodi="http://sodipodi.sourceforge.net/DTD/sodipodi-0.dtd"
   xmlns:inkscape="http://www.inkscape.org/namespaces/inkscape"
   width="48"
   height="48"
   viewBox="0 0 48 48.000001"
   id="svg4157"
   version="1.1"
   inkscape:version="0.91 r13725"
   sodipodi:docname="loop.svg">
  <defs
     id="defs4159">
    <linearGradient
       inkscape:collect="always"
       id="linearGradient4895">
      <stop
         style="stop-color:#ffffff;stop-opacity:1"
         offset="0"
         id="stop4897" />
      <stop
         id="stop4903"
         offset="0.59675968"
         style="stop-color:#ffffff;stop-opacity:1" />
      <stop
         style="stop-color:#ffffff;stop-opacity:0"
         offset="1"
         id="stop4899" />
    </linearGradient>
    <radialGradient
       inkscape:collect="always"
       xlink:href="#linearGradient4895"
       id="radialGradient4901"
       cx="24"
       cy="1028.3622"
       fx="24"
       fy="1028.3622"
       r="24"
       gradientUnits="userSpaceOnUse" />
  </defs>
  <sodipodi:namedview
     id="base"
     pagecolor="#ffffff"
     bordercolor="#666666"
     borderopacity="1.0"
     inkscape:pageopacity="0.0"
     inkscape:pageshadow="2"
     inkscape:zoom="19.857915"
     inkscape:cx="13.63257"
     inkscape:cy="25.927138"
     inkscape:document-units="px"
     inkscape:current-layer="layer1"
     showgrid="false"
     units="px"
     inkscape:window-width="2560"
     inkscape:window-height="1541"
     inkscape:window-x="0"
     inkscape:window-y="0"
     inkscape:window-maximized="1" />
  <metadata
     id="metadata4162">
    <rdf:RDF>
      <cc:Work
         rdf:about="">
        <dc:format>image/svg+xml</dc:format>
        <dc:type
           rdf:resource="http://purl.org/dc/dcmitype/StillImage" />
        <dc:title></dc:title>
      </cc:Work>
    </rdf:RDF>
  </metadata>
  <g
     inkscape:label="Layer 1"
     inkscape:groupmode="layer"
     id="layer1"
     transform="translate(0,-1004.3622)">
    <circle
       style="fill:url(#radialGradient4901);fill-opacity:1;stroke:none;stroke-width:2.68499994;stroke-miterlimit:4;stroke-dasharray:none;stroke-opacity:1"
       id="path4859"
       cx="24"
       cy="1028.3622"
       r="24" />
    <g
       id="g4853"
       transform="matrix(0.8900811,0,0,0.8900811,2.6482517,115.5465)">
      <path
         sodipodi:nodetypes="cccccccccccc"
         inkscape:connector-curvature="0"
         id="path4707"
         d="m 18,1004.2184 c -5.504254,1.5561 -10.1860504,5.1948 -13.0527344,10.1446 -3.9299219,6.8068 -3.9299219,15.1931 0,22 2.867067,4.949 7.5488114,8.5869 13.0527344,10.1425 l 0,6.0005 12,-11.381 -12,-11.381 0,6 c -1.822876,-1.0501 -3.337691,-2.561 -4.392578,-4.381 -2.143594,-3.7128 -2.143594,-8.2872 0,-12 1.054887,-1.8201 2.569702,-3.3309 4.392578,-4.3809 z"
         style="fill:#3d78d6;fill-opacity:1;stroke:none;stroke-width:2.68499994;stroke-miterlimit:4;stroke-dasharray:none;stroke-opacity:1" />
      <path
         sodipodi:nodetypes="cccccccccccc"
         inkscape:connector-curvature="0"
         id="path4707-7"
         d="m 29.977085,1046.8659 c 5.504254,-1.5561 10.186051,-5.1948 13.052735,-10.1445 3.929921,-6.807 3.929921,-15.1933 0,-22.0001 -2.867067,-4.9491 -7.548812,-8.587 -13.052735,-10.1426 l 0,-6.00037 -12,11.38097 12,11.381 0,-6 c 1.822876,1.05 3.337691,2.5609 4.392578,4.381 2.143594,3.7128 2.143594,8.2872 0,12 -1.054887,1.82 -2.569702,3.3308 -4.392578,4.3808 z"
         style="fill:#3d78d6;fill-opacity:1;stroke:none;stroke-width:2.68499994;stroke-miterlimit:4;stroke-dasharray:none;stroke-opacity:1" />
    </g>
  </g>
</svg>
