<?xml version="1.0" encoding="UTF-8" standalone="no"?>
<!-- Created with Inkscape (http://www.inkscape.org/) -->
<svg
   xmlns:dc="http://purl.org/dc/elements/1.1/"
   xmlns:cc="http://web.resource.org/cc/"
   xmlns:rdf="http://www.w3.org/1999/02/22-rdf-syntax-ns#"
   xmlns:svg="http://www.w3.org/2000/svg"
   xmlns="http://www.w3.org/2000/svg"
   xmlns:xlink="http://www.w3.org/1999/xlink"
   xmlns:sodipodi="http://sodipodi.sourceforge.net/DTD/sodipodi-0.dtd"
   xmlns:inkscape="http://www.inkscape.org/namespaces/inkscape"
   width="128"
   height="128"
   id="svg1"
   sodipodi:version="0.32"
   inkscape:version="0.45.1"
   sodipodi:docbase="/home/nicu/Desktop/svg"
   sodipodi:docname="macara.svg"
   inkscape:output_extension="org.inkscape.output.svg.inkscape"
   version="1.0">
  <defs
     id="defs3">
    <linearGradient
       id="linearGradient2969">
      <stop
         style="stop-color:#ffffff;stop-opacity:1.0000000;"
         offset="0.0000000"
         id="stop2970" />
      <stop
         style="stop-color:#ffffff;stop-opacity:0.0000000;"
         offset="1.0000000"
         id="stop2971" />
    </linearGradient>
    <linearGradient
       id="linearGradient4399">
      <stop
         style="stop-color:#c59e48;stop-opacity:1.0000000;"
         offset="0.0000000"
         id="stop4400" />
      <stop
         style="stop-color:#000000;stop-opacity:1.0000000;"
         offset="1.0000000"
         id="stop4401" />
    </linearGradient>
    <linearGradient
       id="linearGradient4395">
      <stop
         style="stop-color:#c5ad48;stop-opacity:1.0000000;"
         offset="0.0000000"
         id="stop4396" />
      <stop
         style="stop-color:#000000;stop-opacity:1.0000000;"
         offset="1.0000000"
         id="stop4397" />
    </linearGradient>
    <linearGradient
       id="linearGradient4391">
      <stop
         style="stop-color:#ffe348;stop-opacity:1.0000000;"
         offset="0.0000000"
         id="stop4392" />
      <stop
         style="stop-color:#ffffff;stop-opacity:1.0000000;"
         offset="1.0000000"
         id="stop4393" />
    </linearGradient>
    <linearGradient
       id="linearGradient4387">
      <stop
         style="stop-color:#ffc348;stop-opacity:1.0000000;"
         offset="0.0000000"
         id="stop4388" />
      <stop
         style="stop-color:#ffffff;stop-opacity:1.0000000;"
         offset="1.0000000"
         id="stop4389" />
    </linearGradient>
    <linearGradient
       inkscape:collect="always"
       xlink:href="#linearGradient4399"
       id="linearGradient4402"
       gradientTransform="matrix(0.527627,0,0,0.72139,97.48255,-91.88411)"
       x1="624.47388"
       y1="377.98511"
       x2="226.33344"
       y2="565.07312"
       gradientUnits="userSpaceOnUse" />
    <linearGradient
       inkscape:collect="always"
       xlink:href="#linearGradient4387"
       id="linearGradient4260"
       gradientTransform="matrix(0.643383,0,0,0.591598,97.48255,-91.88411)"
       x1="109.66988"
       y1="291.04828"
       x2="6.3415484"
       y2="342.66461"
       gradientUnits="userSpaceOnUse" />
    <linearGradient
       inkscape:collect="always"
       xlink:href="#linearGradient4387"
       id="linearGradient4264"
       gradientTransform="matrix(0.5658,0,0,0.672719,97.48255,-91.88411)"
       x1="35.749737"
       y1="282.36963"
       x2="-45.702202"
       y2="346.07858"
       gradientUnits="userSpaceOnUse" />
    <linearGradient
       inkscape:collect="always"
       xlink:href="#linearGradient4387"
       id="linearGradient4268"
       gradientTransform="matrix(0.469326,0,0,0.702464,113.5843,-80.6824)"
       x1="-121.14384"
       y1="371.36536"
       x2="-288.69186"
       y2="411.25775"
       gradientUnits="userSpaceOnUse" />
    <linearGradient
       inkscape:collect="always"
       xlink:href="#linearGradient4387"
       id="linearGradient4272"
       gradientTransform="matrix(0.430775,0,0,0.613013,104.0139,-41.58715)"
       x1="-6.7857828"
       y1="601.74048"
       x2="-304.27356"
       y2="763.88531"
       gradientUnits="userSpaceOnUse" />
    <linearGradient
       inkscape:collect="always"
       xlink:href="#linearGradient4391"
       id="linearGradient4276"
       gradientTransform="matrix(0.637194,0,0,0.414429,104.0139,-41.58715)"
       x1="-37.403957"
       y1="818.89709"
       x2="-109.48395"
       y2="881.57538"
       gradientUnits="userSpaceOnUse" />
    <linearGradient
       inkscape:collect="always"
       xlink:href="#linearGradient4391"
       id="linearGradient4284"
       gradientTransform="matrix(0.361841,0,0,0.911132,113.5843,-80.6824)"
       x1="-106.96078"
       y1="272.07007"
       x2="-271.8132"
       y2="314.96039"
       gradientUnits="userSpaceOnUse" />
    <linearGradient
       inkscape:collect="always"
       xlink:href="#linearGradient4387"
       id="linearGradient4298"
       gradientUnits="userSpaceOnUse"
       gradientTransform="matrix(0.459044,0,0,0.829168,97.48255,-91.88411)"
       x1="404.46994"
       y1="446.08817"
       x2="-423.53656"
       y2="442.87885" />
    <linearGradient
       inkscape:collect="always"
       xlink:href="#linearGradient4391"
       id="linearGradient4299"
       gradientUnits="userSpaceOnUse"
       gradientTransform="matrix(0.473608,0,0,0.803672,97.48255,-91.88411)"
       x1="533.63843"
       y1="371.00009"
       x2="243.17017"
       y2="525.70605" />
    <linearGradient
       inkscape:collect="always"
       xlink:href="#linearGradient4395"
       id="linearGradient4300"
       gradientUnits="userSpaceOnUse"
       gradientTransform="matrix(0.413142,0,0,0.921293,97.48255,-91.88411)"
       x1="202.2998"
       y1="534.52051"
       x2="992.4787"
       y2="138.23674" />
    <linearGradient
       inkscape:collect="always"
       xlink:href="#linearGradient2969"
       id="linearGradient2972"
       gradientTransform="matrix(0.311825,0,0,1.750289,-3.907498,-15.38776)"
       x1="141.62056"
       y1="164.66304"
       x2="181.70122"
       y2="147.61255"
       gradientUnits="userSpaceOnUse" />
    <linearGradient
       inkscape:collect="always"
       xlink:href="#linearGradient2969"
       id="linearGradient2978"
       gradientTransform="matrix(0.756224,0,0,0.721723,-3.907498,-15.38776)"
       x1="84.155968"
       y1="203.34505"
       x2="121.99856"
       y2="225.51271"
       gradientUnits="userSpaceOnUse" />
    <filter
       inkscape:collect="always"
       id="filter6230">
      <feGaussianBlur
         inkscape:collect="always"
         stdDeviation="0.94195312"
         id="feGaussianBlur6232" />
    </filter>
  </defs>
  <sodipodi:namedview
     id="base"
     pagecolor="#ffffff"
     bordercolor="#666666"
     borderopacity="1.0"
     inkscape:pageopacity="0.0"
     inkscape:pageshadow="2"
     inkscape:zoom="1"
     inkscape:cx="64"
     inkscape:cy="64"
     inkscape:current-layer="layer1"
     showguides="true"
     inkscape:guide-bbox="true"
     inkscape:window-width="1152"
     inkscape:window-height="791"
     inkscape:window-x="0"
     inkscape:window-y="24"
     width="128px"
     height="128px" />
  <metadata
     id="metadata4">
    <rdf:RDF>
      <cc:Work
         rdf:about="">
        <dc:format>image/svg+xml</dc:format>
        <dc:type
           rdf:resource="http://purl.org/dc/dcmitype/StillImage" />
      </cc:Work>
    </rdf:RDF>
  </metadata>
  <g
     inkscape:label="Layer 1"
     inkscape:groupmode="layer"
     id="layer1">
    <path
       style="fill:#000000;fill-opacity:0.78534031;fill-rule:evenodd;stroke:none;stroke-width:1.25000107;stroke-linecap:butt;stroke-linejoin:miter;stroke-miterlimit:4;stroke-opacity:1;filter:url(#filter6230)"
       d="M 65.21875,1.3125 L 64.65625,1.5 L 64.625,1.5 L 64.5625,1.5625 L 58.90625,3.625 L 58.96875,3.65625 L 37.34375,24.28125 L 37.65625,25.15625 L 28.25,34.0625 L 28.28125,35.03125 L 17.09375,44.34375 L 16.9375,43.5625 L 13.8125,42.6875 L 11.53125,44.03125 L 11.40625,44 L 4.03125,49.96875 L 2.5,53.875 L 9.125,67.3125 L 12.71875,66.21875 L 14.28125,83.90625 L 11.3125,84.4375 L 9.15625,86.96875 L 7.46875,89.6875 L 12.28125,113.4375 L 13.78125,115 L 25.0625,114.21875 L 25.1875,114.0625 L 29.03125,111.78125 L 30.71875,108.4375 L 30.75,101.5625 L 29.09375,100.125 L 27.03125,100.1875 L 25,102.34375 L 24.90625,102.34375 L 23.75,103.90625 L 23.5,105.1875 L 19.1875,105.5 L 16.875,103.5 L 15.8125,96.8125 L 24.09375,95.125 L 25.0625,93.75 L 25.0625,93.6875 L 27.34375,90.4375 L 25.9375,83 L 23.875,82.15625 L 19.75,82.90625 L 16.5,65.09375 L 17.875,64.6875 L 17.875,64.65625 L 18.03125,64.625 L 18,64.46875 L 20.09375,61.1875 L 17.71875,47.875 L 28.46875,39.59375 L 28.46875,39.96875 L 28.4375,40.0625 L 28.46875,40.0625 L 28.5,40.84375 L 41,35.09375 L 41.21875,35.71875 L 41.03125,36.03125 L 41.28125,35.9375 L 41.375,36.21875 L 53.1875,31.34375 L 59.625,55.75 L 78.4375,127.40625 L 78.59375,127.375 L 78.625,127.5 L 83.125,126.84375 L 83.15625,126.65625 L 75.03125,103.25 L 74.46875,101.34375 L 85.78125,108.09375 L 83.15625,126.65625 L 83.1875,126.8125 L 84.4375,126.21875 L 84.5,125.96875 L 83.9375,125.78125 L 84.625,125.4375 L 85.875,119.9375 L 85.0625,125.21875 L 84.625,125.4375 L 84.5,125.96875 L 84.90625,126.09375 L 84.75,127.15625 L 87,126.6875 L 87.125,126.15625 L 101.8125,119.5625 L 103.53125,121.15625 L 101.46875,126.40625 L 104.96875,126.40625 L 105.90625,123.34375 L 110.125,127.28125 L 111.46875,126.9375 L 111.5,127 L 112.6875,126.875 L 112.84375,127.1875 L 116.375,127.375 L 116.28125,127.15625 L 117.4375,127.21875 L 116.875,125.96875 L 115.71875,124.53125 L 115.5625,123.09375 L 114.6875,121.1875 L 115.40625,121.625 L 115.5625,123.09375 L 116.875,125.96875 L 117.5625,126.84375 L 117.15625,122.6875 L 123.53125,126.53125 L 127.5,126.71875 L 127.1875,120.15625 L 125.6875,125.1875 L 116.8125,118.90625 L 116.1875,112.4375 L 127.1875,106 L 127.03125,103.71875 L 115.90625,109.1875 L 114.5625,95.09375 L 126.96875,100.96875 L 127.375,99.84375 L 127.15625,99.71875 L 114.34375,92.59375 L 114.21875,91.375 L 126.71875,99.03125 L 127.15625,99.71875 L 127.375,97.4375 L 127.40625,97.46875 L 127.40625,97.09375 L 127.5,96.09375 L 127.40625,95.9375 L 127.40625,95.59375 L 76.96875,16.0625 L 77.15625,15.875 L 78.09375,5.1875 L 65.21875,1.3125 z M 62.96875,2.875 L 62.40625,3.3125 L 61.90625,3.28125 L 62.96875,2.875 z M 64.90625,3.21875 L 65.09375,3.53125 L 64.78125,3.5 L 64.90625,3.21875 z M 64.5,4.21875 L 65.65625,4.34375 L 66.4375,5.53125 L 64.34375,4.65625 L 64.5,4.21875 z M 67.0625,4.53125 L 68.46875,4.6875 L 72.21875,7.9375 L 68.53125,6.40625 L 67.0625,4.53125 z M 70.4375,5.09375 L 75.28125,6.15625 L 73.40625,7.53125 L 70.4375,5.09375 z M 61.5,6.8125 L 61.8125,6.9375 L 61.71875,7.21875 L 61.5,6.8125 z M 63.21875,7.46875 L 69.28125,9.8125 L 69.8125,10.59375 L 68.65625,15.09375 L 65.40625,14.6875 L 62.59375,9 L 63.21875,7.46875 z M 59.625,7.625 L 60.6875,9.71875 L 59.46875,12.75 L 57.21875,13.34375 L 59.625,7.625 z M 75.1875,8.5 L 74.625,10.28125 L 74.46875,9.25 L 75.1875,8.5 z M 57.03125,9.3125 L 55.15625,13.875 L 50.125,15.1875 L 57.03125,9.3125 z M 72.75,9.375 L 72.8125,9.40625 L 72.28125,11.21875 L 72.75,9.375 z M 73.59375,10.1875 L 74.0625,12.0625 L 73.71875,13.09375 L 73.03125,12.1875 L 73.59375,10.1875 z M 61.59375,11.5 L 63.0625,14.375 L 60.5625,14.0625 L 61.59375,11.5 z M 72.40625,14.5 L 72.84375,15.1875 L 72.59375,15.625 L 72.09375,15.5625 L 72.40625,14.5 z M 59.21875,14.875 L 55.5,17.46875 L 56.34375,15.4375 L 59.21875,14.875 z M 54.375,15.8125 L 52.96875,19.21875 L 50.125,21.1875 L 47.65625,17.125 L 54.375,15.8125 z M 60.03125,16 L 63.875,16 L 64.5625,17.34375 L 54.4375,19.9375 L 54.6875,19.40625 L 60.03125,16 z M 66.0625,16 L 68.4375,16 L 68.3125,16.375 L 66.5,16.84375 L 66.0625,16 z M 72.875,18.78125 L 70.375,21.5625 L 71.6875,19.15625 L 72.875,18.78125 z M 75.53125,19.65625 L 75.71875,27.3125 L 71.1875,24.84375 L 75.53125,19.65625 z M 77.9375,20.6875 L 86.34375,33.84375 L 79,27.25 L 77.9375,20.6875 z M 66.34375,20.875 L 67.09375,22.34375 L 66.59375,22.3125 L 65.1875,21.25 L 66.34375,20.875 z M 57.71875,21.4375 L 57.1875,21.75 L 56.53125,21.6875 L 57.71875,21.4375 z M 59.46875,21.4375 L 59.15625,21.84375 L 58.78125,21.84375 L 59.46875,21.4375 z M 41.96875,21.59375 L 40.71875,22.8125 L 40.59375,22.84375 L 41.96875,21.59375 z M 52.625,22.5625 L 51.625,23.5 L 51.03125,22.90625 L 52.625,22.5625 z M 53.90625,23.3125 L 54.375,23.3125 L 53.34375,23.875 L 53.90625,23.3125 z M 56.1875,23.3125 L 58,23.3125 L 53.4375,29.1875 L 53.09375,29.375 L 52.875,25.21875 L 56.1875,23.3125 z M 62.40625,23.3125 L 63.0625,23.3125 L 63.15625,24.75 L 60.28125,26.0625 L 62.40625,23.3125 z M 49.90625,23.375 L 50.6875,24.40625 L 47,27.9375 L 49.90625,23.375 z M 51.625,25.65625 L 51.65625,25.71875 L 50.65625,26.65625 L 51.625,25.65625 z M 77.59375,25.78125 L 78.0625,28.5625 L 77.6875,28.34375 L 77.59375,25.78125 z M 51.53125,27.0625 L 51.53125,30.0625 L 45.34375,32.90625 L 51.53125,27.0625 z M 71.53125,28 L 75.5,30.9375 L 75.15625,35.65625 L 71.53125,28 z M 65.9375,28.46875 L 66.1875,29.0625 L 65.3125,33.375 L 64.96875,28.9375 L 65.9375,28.46875 z M 68.6875,28.46875 L 70,31.5 L 68.65625,28.59375 L 68.6875,28.46875 z M 79.625,29.46875 L 87.5,35.90625 L 79.65625,30 L 79.625,29.46875 z M 63.53125,29.625 L 64.1875,38.84375 L 64.15625,39.0625 L 56.21875,33.125 L 63.53125,29.625 z M 77.5,31.46875 L 78.0625,31.8125 L 79.0625,43.25 L 78.78125,43.375 L 77.03125,39.625 L 77.5,31.46875 z M 67.90625,33 L 72.625,43.78125 L 69.15625,41.0625 L 66.875,38.9375 L 67.90625,33 z M 79.9375,33 L 88.5,38.46875 L 87.71875,39.28125 L 80.71875,42.5 L 79.9375,33 z M 56.375,36.65625 C 56.998768,37.399793 63.0625,41.3125 63.0625,41.3125 L 61.8125,54.6875 L 56.375,36.65625 z M 89.90625,41.1875 L 90.34375,43.21875 L 89.84375,53.1875 L 82.5625,49 L 89.90625,41.1875 z M 65.1875,41.71875 L 71.375,45.96875 L 74.21875,48.1875 L 64.375,57.1875 L 63.65625,57.59375 L 65.1875,41.71875 z M 92.03125,43 L 102.71875,61.15625 L 94.4375,54.75 L 92,44.21875 L 92.03125,43 z M 81.9375,45.28125 L 81.03125,46.21875 L 81,45.78125 L 81.9375,45.28125 z M 91.84375,50.125 L 92.875,54.9375 L 91.71875,54.28125 L 91.84375,50.125 z M 87,54.125 L 89.71875,55.625 L 89.6875,56.21875 L 87,54.125 z M 75.9375,54.1875 L 75.21875,68.375 L 65,60.65625 L 67.03125,58.90625 L 75.9375,54.1875 z M 77.8125,54.71875 L 77.90625,54.96875 L 77.53125,57.8125 L 77.8125,54.71875 z M 84.3125,55.125 L 88.90625,59 L 89.625,66.34375 L 84.3125,55.125 z M 94.28125,56.8125 L 96.90625,58.84375 L 94.3125,57.25 L 94.28125,56.8125 z M 90.75,57.875 L 92.96875,59.15625 L 93.8125,75.1875 L 92.03125,71.4375 L 90.75,57.875 z M 79.34375,58.28125 L 86.875,75.71875 L 86.5625,75.5 L 78.1875,68.4375 L 79.34375,58.28125 z M 94.53125,60.0625 L 105.8125,66.65625 L 103.9375,68.84375 L 95.625,75.28125 L 94.53125,60.0625 z M 64.25,63.59375 L 73.5,71.4375 L 71.03125,88.6875 L 64.25,63.59375 z M 106.8125,70.34375 L 107.1875,71.53125 L 106.15625,86.25 L 97.40625,81.90625 L 105,71.78125 L 106.8125,70.34375 z M 109.59375,72.28125 L 124.75,95.9375 L 114.21875,88.03125 L 109.59375,72.28125 z M 76.84375,72.4375 L 84.21875,76.875 L 88.46875,79.875 L 74.15625,92.40625 L 72.9375,93.09375 L 74.5625,83.15625 L 76.84375,72.4375 z M 108.8125,76.90625 L 112.6875,89.5 L 108.1875,87.25 L 108.8125,76.90625 z M 91.09375,82.96875 L 91.0625,83.21875 L 90.375,83.59375 L 91.09375,82.96875 z M 99.9375,85.28125 L 106,88.46875 L 105.875,90.21875 L 99.9375,85.28125 z M 92.875,86.875 L 93.59375,88.4375 L 91.1875,103.34375 L 90,102.5 L 91.9375,87.40625 L 92.875,86.875 z M 90.40625,88.25 L 88.4375,103.25 L 73.78125,97.65625 L 74.0625,97.40625 L 90.40625,88.25 z M 99.8125,88.71875 L 104.03125,92.46875 L 105.625,101.40625 L 99.8125,88.71875 z M 106.6875,91.34375 L 112.1875,93.9375 L 114.0625,110.09375 L 110.4375,111.875 L 108.15625,106.9375 L 106.6875,91.34375 z M 95,91.5 L 105,113.15625 L 93.125,104.71875 L 95,91.5 z M 85.9375,104.78125 L 86.25,104.90625 L 86.25,104.96875 L 85.9375,104.78125 z M 89.21875,105.28125 L 90.71875,106.28125 L 90.53125,107.46875 L 88.9375,106.53125 L 89.21875,105.28125 z M 90.84375,109.34375 L 99.8125,117.6875 L 87.625,123.90625 L 90.84375,109.34375 z M 98.375,111.3125 L 104.4375,115.3125 L 102.875,116.09375 L 98.375,111.3125 z M 114.4375,113.4375 L 114.90625,117.5625 L 112.125,115.5625 L 111.84375,114.96875 L 114.4375,113.4375 z M 107.40625,118.40625 L 109.78125,123.4375 L 106.84375,120.28125 L 107.40625,118.40625 z "
       id="path2208" />
    <g
       id="g4852"
       transform="matrix(0.2798819,0,0,0.2798821,1.6070761,0.9510192)">
      <path
         style="fill:url(#linearGradient4402);fill-opacity:1;fill-rule:evenodd;stroke:none;stroke-width:1.25000107;stroke-linecap:butt;stroke-linejoin:miter;stroke-miterlimit:4;stroke-opacity:1"
         d="M 268.91921,54.144058 L 220.6875,66.53125 L 358.4375,370.65625 L 362.28125,369.46875 L 330.375,295.5 L 367.71875,328.71875 L 381.5,405.3125 L 390.125,412.4375 L 390.53125,412.1875 L 393.375,423.875 L 437.4375,450.53125 L 451.59375,451.09375 L 450.5,427.6875 L 445.0625,445.65625 L 394.5625,409.84375 L 450.5,377.09375 L 449.96875,368.9375 L 384.5,401.125 L 377.1875,324.75 L 449.65625,359.1875 L 451.09375,355.09375 L 382.1875,316.75 L 386.09375,254.34375 L 450.34375,354.625 L 451.5625,341.75 L 268.91921,54.144058 z M 265.75,62.40625 L 266.84375,102.90625 L 228.96875,74.34375 L 265.75,62.40625 z M 272.4375,69.03125 L 309.75,127.5 L 273.5625,100.25 L 272.4375,69.03125 z M 234.5625,85.65625 L 265.75,108.875 L 262.96875,147.40625 L 234.5625,85.65625 z M 273,110.875 L 313.65625,136.78125 L 270.21875,156.71875 L 273,110.875 z M 319.25,144.09375 L 316.4375,199.21875 L 275.21875,167.34375 L 319.25,144.09375 z M 324.8125,152.0625 L 367.15625,223.78125 L 323.6875,197.21875 L 324.8125,152.0625 z M 277.4375,178.625 L 313.65625,209.15625 L 319.78125,271.59375 L 277.4375,178.625 z M 320.34375,205.1875 L 376.0625,237.71875 L 327.03125,275.59375 L 320.34375,205.1875 z M 379.40625,248.34375 L 374.375,320.75 L 332.0625,285.5625 L 379.40625,248.34375 z "
         id="path2426"
         sodipodi:nodetypes="cccccccccccccccccccccccccccccccccccccccccccccccccccccccccccccc" />
      <path
         style="fill:#857530;fill-opacity:1;fill-rule:evenodd;stroke:none;stroke-width:1.25000107;stroke-linecap:butt;stroke-linejoin:miter;stroke-miterlimit:4;stroke-opacity:1"
         d="M 222.69608,65.822456 L 171.73739,78.889221 L 142.68882,127.07117 L 185.3346,110.42113 L 222.69608,65.822456 z M 202.25163,74.93195 L 183.49809,85.456624 L 178.3594,80.194287 L 202.25163,74.93195 z M 208.50282,74.93195 L 185.70542,104.29578 L 184.96376,88.529821 L 208.50282,74.93195 z M 174.31556,81.941369 L 180.56675,90.276929 L 151.51521,117.88979 L 174.31556,81.941369 z M 180.19591,95.097215 L 180.19591,107.36899 L 157.0312,117.00187 L 180.19591,95.097215 z "
         id="path2374"
         sodipodi:nodetypes="ccccccccccccccccccccc" />
      <path
         style="fill:url(#linearGradient4300);fill-opacity:1;fill-rule:evenodd;stroke:none;stroke-width:1.25000107;stroke-linecap:butt;stroke-linejoin:miter;stroke-miterlimit:4;stroke-opacity:1"
         d="M 221.125,65.962654 L 185.75,109.3125 L 276.9375,453.9375 L 293.03125,451.5625 L 293.125,450.96875 L 260.1875,355.96875 L 304.1875,373.21875 L 293.125,450.96875 L 293.3125,451.5 L 297.78125,449.375 L 298,448.46875 L 296,447.8125 L 298.40625,446.5625 L 314.78125,374.5625 L 369.21875,410.40625 L 298.40625,446.5625 L 298,448.46875 L 304.15625,450.53125 L 369.9375,421.03125 L 358.54754,450 L 371.08607,450.01284 L 379.84375,421.40625 L 394.46875,452.1875 L 403.1875,451.09375 L 384.65625,412.0625 L 385.125,411.59375 L 221.125,65.962654 z M 293.3125,451.5 L 293.1875,451.5625 L 293.3125,451.53125 L 293.3125,451.5 z M 221.1875,79 L 225.625,139.4375 L 193.3125,114.875 L 221.1875,79 z M 227.3125,90.28125 L 256.84375,158.03125 L 230.65625,133.46875 L 227.3125,90.28125 z M 193.875,123.5 L 221.71875,146.09375 L 218.40625,201.21875 L 193.875,123.5 z M 228.96875,147.40625 L 261.84375,170 L 223.40625,205.1875 L 228.96875,147.40625 z M 267.96875,180.625 L 264.625,247.71875 L 224.53125,218.46875 L 267.96875,180.625 z M 274.09375,193.90625 L 306.40625,268.9375 L 269.65625,243.0625 L 274.09375,193.90625 z M 225.0625,225.125 L 260.1875,255 L 250.15625,320.75 L 225.0625,225.125 z M 269.09375,256.34375 L 313.125,282.90625 L 256.28125,332.6875 L 269.09375,256.34375 z M 321.46875,294.84375 L 312,367.25 L 259.625,347.3125 L 321.46875,294.84375 z M 325.375,303.5 L 371.1875,402.6875 L 317.5625,364.59375 L 325.375,303.5 z "
         id="path2425"
         sodipodi:nodetypes="ccccccccccccccccccccccccccccccccccccccccccccccccccccccccccccccccccccccc" />
      <path
         style="fill:url(#linearGradient4299);fill-opacity:1;fill-rule:evenodd;stroke:none;stroke-width:1.25000107;stroke-linecap:butt;stroke-linejoin:miter;stroke-miterlimit:4;stroke-opacity:1"
         d="M 270.6606,55.187169 L 241.07815,85.752168 L 403.94439,452.16658 L 415.60853,452.90602 L 345.13264,298.97217 L 395.83078,325.53645 L 409.49862,443.28645 L 416.05,451.55887 L 404.18335,324.86287 L 449.16213,352.41199 L 450.98431,348.21169 L 404.18335,312.90684 L 386.91313,254.47386 L 451.24483,346.64766 L 451.2438,339.8921 L 270.6606,55.187169 z M 268.79036,65.190943 L 274.91978,100.38544 L 250.41319,87.101107 L 268.79036,65.190943 z M 273.80912,68.502905 L 309.46206,123.63113 L 278.26702,95.731337 L 273.80912,68.502905 z M 250.41134,95.740762 L 274.3742,106.37068 L 278.8242,156.17342 L 250.41134,95.740762 z M 280.50178,103.69741 L 315.58962,132.26136 L 285.51685,163.47754 L 280.50178,103.69741 z M 317.26351,145.54571 L 327.85874,194.68429 L 291.0854,173.45053 L 317.26351,145.54571 z M 322.84735,148.19571 L 369.63686,221.92875 L 333.42308,194.03838 L 322.84735,148.19571 z M 291.64442,183.41127 L 327.86428,203.33338 L 331.20176,267.08242 L 291.64442,183.41127 z M 332.8775,201.34532 L 375.77049,234.54012 L 338.44184,278.36926 L 332.8775,201.34532 z M 376.88536,247.16251 L 398.61716,318.22068 L 344.02014,290.99447 L 376.88536,247.16251 z "
         id="path2424"
         sodipodi:nodetypes="cccccccccccccccccccccccccccccccccccccccccccccccccccc" />
      <path
         style="fill:url(#linearGradient4298);fill-opacity:1;fill-rule:evenodd;stroke:none;stroke-width:1.25000107;stroke-linecap:butt;stroke-linejoin:miter;stroke-miterlimit:4;stroke-opacity:1"
         d="M 241.65959,86.401131 L 185.91933,109.36596 L 276.34243,453.62932 L 289.15555,451.78412 L 262.06735,360.47961 L 308.87689,388.37502 L 298.88207,452.7439 L 306.91678,450.99676 L 320.58461,389.0486 L 389.54185,453.1438 L 398.88331,450.61789 L 328.3721,375.7454 L 336.72467,316.63824 L 399.21883,452.786 L 411.82714,453.4385 L 241.65959,86.401131 z M 241.46201,100.12971 L 270.43389,166.53598 L 234.77728,138.63556 L 241.46201,100.12971 z M 233.10576,99.463357 L 225.31036,137.99747 L 196.88538,116.73323 L 233.10576,99.463357 z M 197.43834,129.34839 C 199.66702,132.00501 221.39566,145.94972 221.39566,145.94972 L 216.93961,193.77666 L 197.43834,129.34839 z M 229.20081,145.28998 L 270.43389,177.83948 L 221.96074,205.07733 L 229.20081,145.28998 z M 275.44896,187.79582 L 267.64381,244.92373 L 226.42839,213.70756 L 275.44896,187.79582 z M 281.02305,194.43076 L 319.45445,280.11824 L 275.44896,242.92405 L 281.02305,194.43076 z M 224.73316,222.33779 L 258.72617,252.8804 L 249.82012,315.31556 L 224.73316,222.33779 z M 270.99897,254.88009 L 325.59969,293.40038 L 254.84125,331.92067 L 270.99897,254.88009 z M 331.72725,306.68251 L 319.47211,382.39701 L 259.29125,347.2025 L 331.72725,306.68251 z "
         id="path2423"
         sodipodi:nodetypes="cccccccccccccccccccccccccccccccccccccccccccccccccccc" />
      <path
         style="fill:#483a1a;fill-opacity:1;fill-rule:evenodd;stroke:none;stroke-width:1.25000107;stroke-linecap:butt;stroke-linejoin:miter;stroke-miterlimit:4;stroke-opacity:1"
         d="M 226.99034,3.7963673 L 159.07496,59.89287 L 171.21475,78.973041 L 270.64266,54.693681 L 274.52758,17.099551 L 226.99034,3.7963673 z M 227.96157,9.8796321 L 257.5399,54.398987 L 212.43957,48.610424 L 227.96157,9.8796321 z M 220.68618,13.921106 L 208.55466,43.979561 L 175.09141,52.651893 L 220.68618,13.921106 z M 235.23696,13.921106 L 267.2522,20.867391 L 259.48236,45.137279 L 235.23696,13.921106 z M 207.58342,51.494184 L 175.09027,74.044805 L 166.35035,59.598183 L 207.58342,51.494184 z M 210.49711,55.556705 L 245.42716,55.55941 L 186.73448,70.585559 L 210.49711,55.556705 z "
         id="path1714"
         sodipodi:nodetypes="cccccccccccccccccccccccccc" />
      <path
         style="fill:url(#linearGradient4284);fill-opacity:1;fill-rule:evenodd;stroke:none;stroke-width:1.25000083;stroke-linecap:butt;stroke-linejoin:miter;stroke-miterlimit:4;stroke-opacity:1"
         d="M 37.036592,155.77691 L 45.343258,150.9321 L 56.606345,154.04217 L 67.869429,217.02112 L 59.919017,229.4614 L 48.146533,159.36562 L 37.036592,155.77691 z "
         id="path3632"
         sodipodi:nodetypes="ccccccc" />
      <path
         style="fill:#857530;fill-opacity:1;fill-rule:evenodd;stroke:none;stroke-width:1.25000107;stroke-linecap:butt;stroke-linejoin:miter;stroke-miterlimit:4;stroke-opacity:1"
         d="M 97.685445,141.50337 L 106.41628,116.06344 L 174.71132,75.841813 L 148.25185,119.53253 L 97.685445,141.50337 z "
         id="path5546"
         sodipodi:nodetypes="ccccc" />
      <path
         style="fill:#6b5627;fill-opacity:1;fill-rule:evenodd;stroke:none;stroke-width:1.25000107;stroke-linecap:butt;stroke-linejoin:miter;stroke-miterlimit:4;stroke-opacity:1"
         d="M 98.655529,121.84525 L 163.6518,58.245413 L 173.35273,75.590823 L 101.56581,139.19065 L 98.655529,121.84525 z "
         id="path4924"
         sodipodi:nodetypes="ccccc" />
      <path
         style="fill:#000000;fill-opacity:1;fill-rule:evenodd;stroke:none;stroke-width:1.16335249;stroke-linecap:butt;stroke-linejoin:miter;stroke-miterlimit:4;stroke-opacity:1"
         d="M 100.61561,120.53634 L 53.205861,160.0472 L 52.96906,165.56636 L 56.693356,171.43606 L 102.35936,136.4101 L 100.61561,120.53634 z "
         id="path3005"
         sodipodi:nodetypes="cccccc" />
      <path
         style="fill:url(#linearGradient4264);fill-opacity:1;fill-rule:evenodd;stroke:none;stroke-width:1.25000107;stroke-linecap:butt;stroke-linejoin:miter;stroke-miterlimit:4;stroke-opacity:1"
         d="M 132.32101,86.611015 L 96.955038,120.04428 L 97.925136,144.32786 L 145.50042,122.357 L 132.32101,86.611015 z "
         id="path3004"
         sodipodi:nodetypes="ccccc" />
      <path
         style="fill:url(#linearGradient4260);fill-opacity:1;fill-rule:evenodd;stroke:none;stroke-width:1.25000107;stroke-linecap:butt;stroke-linejoin:miter;stroke-miterlimit:4;stroke-opacity:1"
         d="M 207.10777,11.166144 L 129.49777,85.175637 L 143.83757,127.79192 L 241.46016,87.570391 L 256.09302,31.415613 L 207.10777,11.166144 z M 202.73441,24.469334 L 182.85297,73.038658 L 141.13113,79.969677 L 202.73441,24.469334 z M 209.05023,25.627043 L 235.71488,78.250405 L 188.18364,75.358143 L 209.05023,25.627043 z M 215.83345,22.738849 L 245.90395,34.299371 L 237.65734,66.673265 L 215.83345,22.738849 z M 184.31039,78.818732 L 145.49655,115.82348 L 136.77316,86.341849 L 184.31039,78.818732 z M 188.67209,81.70249 L 232.81885,81.70249 L 153.26638,118.13891 L 188.67209,81.70249 z "
         id="path1091"
         sodipodi:nodetypes="cccccccccccccccccccccccccc" />
      <path
         style="fill:#ffe452;fill-opacity:1;fill-rule:evenodd;stroke:none;stroke-width:1.25000107;stroke-linecap:butt;stroke-linejoin:miter;stroke-miterlimit:4;stroke-opacity:1"
         d="M 229.01553,3.026196 L 206.56497,11.396129 L 256.14738,31.980449 L 240.58049,87.185182 L 271.69662,55.081228 L 275.10475,16.918768 L 229.01553,3.026196 z M 229.80856,5.2191812 L 239.83236,11.788499 L 217.18593,10.115975 L 229.80856,5.2191812 z M 237.26214,7.0887236 L 255.20339,12.85624 L 242.41687,11.342611 L 237.26214,7.0887236 z M 220.2057,12.643819 L 240.65262,15.171671 L 254.09548,26.744811 L 220.2057,12.643819 z M 244.68515,14.157448 L 268.34768,17.843008 L 258.35448,25.321157 L 244.68515,14.157448 z M 271.02398,22.33037 L 263.94445,42.935751 L 262.12237,31.412123 L 271.02398,22.33037 z M 271.69662,27.906527 L 269.27738,47.54556 L 266.85814,40.620324 L 271.69662,27.906527 z M 259.01282,34.831759 L 261.37423,44.359404 L 252.1115,59.834525 L 259.01282,34.831759 z M 263.45001,46.441355 L 267.82936,52.7658 L 247.53006,75.481595 L 263.45001,46.441355 z "
         id="path1715"
         sodipodi:nodetypes="ccccccccccccccccccccccccccccccccccccccc" />
      <path
         style="fill:url(#linearGradient4276);fill-opacity:1;fill-rule:evenodd;stroke:none;stroke-width:1.16335166;stroke-linecap:butt;stroke-linejoin:miter;stroke-miterlimit:4;stroke-opacity:1"
         d="M 28.774062,309.08476 L 36.488054,300.08936 L 81.383665,291.95067 L 88.683768,294.94913 L 93.793842,321.50696 L 85.033724,333.92916 L 80.653657,307.37134 L 75.908594,304.80124 L 28.774062,309.08476 z "
         id="path3634"
         sodipodi:nodetypes="ccccccccc" />
      <path
         style="fill:#000000;fill-opacity:1;fill-rule:evenodd;stroke:none;stroke-width:1.16335201;stroke-linecap:butt;stroke-linejoin:miter;stroke-miterlimit:4;stroke-opacity:1"
         d="M 40.878845,229.17722 L 47.310874,301.3273 L 58.45747,303.82924 L 67.49077,299.27789 L 53.617723,223.83805 L 40.878845,229.17722 z "
         id="path3630"
         sodipodi:nodetypes="cccccc" />
      <path
         style="fill:url(#linearGradient4268);fill-opacity:1;fill-rule:evenodd;stroke:none;stroke-width:1.25000083;stroke-linecap:butt;stroke-linejoin:miter;stroke-miterlimit:4;stroke-opacity:1"
         d="M 60.481942,229.28066 L 48.652978,158.80339 L 36.824023,155.59987 L 10.436337,176.95662 L 4.9768275,190.83851 L 28.634737,238.89121 L 60.481942,229.28066 z "
         id="path3629"
         sodipodi:nodetypes="ccccccc" />
      <path
         style="fill:#ffe868;fill-opacity:1;fill-rule:evenodd;stroke:none;stroke-width:1.2500006;stroke-linecap:butt;stroke-linejoin:miter;stroke-miterlimit:4;stroke-opacity:1"
         d="M 84.588736,364.78573 L 92.639642,356.36286 L 100.01103,356.11056 L 105.89806,361.27447 L 105.8476,385.78197 L 99.743494,397.75817 L 85.294304,406.49222 L 84.588736,364.78573 z "
         id="path4301"
         sodipodi:nodetypes="cccccccc" />
      <path
         style="fill:#ffe868;fill-opacity:1;fill-rule:evenodd;stroke:none;stroke-width:1.2500006;stroke-linecap:butt;stroke-linejoin:miter;stroke-miterlimit:4;stroke-opacity:1"
         d="M 51.915127,339.96287 L 56.31778,368.17087 L 64.57275,375.38687 L 82.183353,374.07487 L 83.284014,400.97086 L 48.613138,402.28288 L 37.056181,336.68285 L 51.915127,339.96287 z "
         id="path4923" />
      <path
         style="fill:url(#linearGradient4272);fill-opacity:1;fill-rule:evenodd;stroke:none;stroke-width:1.25000083;stroke-linecap:butt;stroke-linejoin:miter;stroke-miterlimit:4;stroke-opacity:1"
         d="M 76.738175,302.78663 L 28.709027,309.04937 L 22.779502,318.7914 L 39.97512,403.68628 L 45.311694,409.25318 L 85.632455,406.46976 L 93.933792,398.11942 L 97.491506,370.28503 L 91.561981,364.0223 L 85.039504,364.0223 L 80.888832,369.58917 L 78.517028,382.11464 L 76.145216,385.59395 L 56.577787,387.68151 L 47.683498,382.11464 L 41.75398,352.19267 L 44.125784,345.92994 L 82.074742,338.27548 L 85.632455,333.40446 L 81.481791,306.05259 L 76.738175,302.78663 z "
         id="path3633"
         sodipodi:nodetypes="ccccccccccccccccccccc" />
      <path
         style="fill:url(#linearGradient2972);fill-opacity:1;fill-rule:evenodd;stroke:none;stroke-width:1pt;stroke-linecap:butt;stroke-linejoin:miter;stroke-opacity:1"
         d="M 42.176109,235.29907 L 47.606566,301.92326 L 59.00054,302.66337 L 46.996223,234.02384 L 42.176109,235.29907 z "
         id="path2347"
         sodipodi:nodetypes="ccccc" />
      <path
         style="fill:url(#linearGradient2978);fill-opacity:1;fill-rule:evenodd;stroke:none;stroke-width:1pt;stroke-linecap:butt;stroke-linejoin:miter;stroke-opacity:1"
         d="M 54.156002,159.61155 L 96.155508,124.72984 L 53.331309,165.97496 L 54.156002,159.61155 z "
         id="path2974"
         sodipodi:nodetypes="cccc" />
    </g>
  </g>
</svg>
