<?xml version="1.0" encoding="UTF-8" standalone="no"?>
<!-- Generator: Adobe Illustrator 12.0.0, SVG Export Plug-In . SVG Version: 6.00 Build 51448)  --><svg height="135.994" id="Layer_1" inkscape:version="0.42" sodipodi:docbase="F:\openclip\svg da inviare" sodipodi:docname="tasto02.svg" sodipodi:version="0.32" space="preserve" style="overflow:visible;enable-background:new 0 0 136.484 135.994;" version="1.1" viewBox="0 0 136.484 135.994" width="136.484" xmlns="http://www.w3.org/2000/svg" xmlns:cc="http://web.resource.org/cc/" xmlns:dc="http://purl.org/dc/elements/1.1/" xmlns:inkscape="http://www.inkscape.org/namespaces/inkscape" xmlns:rdf="http://www.w3.org/1999/02/22-rdf-syntax-ns#" xmlns:sodipodi="http://inkscape.sourceforge.net/DTD/sodipodi-0.dtd" xmlns:svg="http://www.w3.org/2000/svg">
  <metadata>
    <rdf:RDF xmlns:cc="http://web.resource.org/cc/" xmlns:dc="http://purl.org/dc/elements/1.1/" xmlns:rdf="http://www.w3.org/1999/02/22-rdf-syntax-ns#">
      <cc:Work rdf:about="">
        <dc:title>Tasto 2</dc:title>
        <dc:description></dc:description>
        <dc:subject>
          <rdf:Bag>
            <rdf:li>unsorted</rdf:li>
          </rdf:Bag>
        </dc:subject>
        <dc:publisher>
          <cc:Agent rdf:about="http://www.openclipart.org/">
            <dc:title>Open Clip Art Library</dc:title>
          </cc:Agent>
        </dc:publisher>
        <dc:creator>
          <cc:Agent>
            <dc:title>Architetto Francesco Rollandin</dc:title>
          </cc:Agent>
        </dc:creator>
        <dc:rights>
          <cc:Agent>
            <dc:title>Architetto Francesco Rollandin</dc:title>
          </cc:Agent>
        </dc:rights>
        <dc:date></dc:date>
        <dc:format>image/svg+xml</dc:format>
        <dc:type rdf:resource="http://purl.org/dc/dcmitype/StillImage"/>
        <cc:license rdf:resource="http://web.resource.org/cc/PublicDomain"/>
        <dc:language>en</dc:language>
      </cc:Work>
      <cc:License rdf:about="http://web.resource.org/cc/PublicDomain">
        <cc:permits rdf:resource="http://web.resource.org/cc/Reproduction"/>
        <cc:permits rdf:resource="http://web.resource.org/cc/Distribution"/>
        <cc:permits rdf:resource="http://web.resource.org/cc/DerivativeWorks"/>
      </cc:License>
    </rdf:RDF>
  </metadata>
  <defs id="defs39"/>
  <sodipodi:namedview bordercolor="#666666" borderopacity="1.0" id="base" inkscape:current-layer="Layer_1" inkscape:cx="68.241997" inkscape:cy="67.997002" inkscape:pageopacity="0.0" inkscape:pageshadow="2" inkscape:window-height="510" inkscape:window-width="787" inkscape:window-x="22" inkscape:window-y="29" inkscape:zoom="2.6471755" pagecolor="#ffffff"/>
  <g id="g3">
    <path d="M52.021,131.806c0,2.605,28.656,1.382,31.602,0.817c4.888-0.935-9.083-3.122-10.272-3.176   C71.442,129.362,52.018,128.543,52.021,131.806" id="path5" style="fill:#67BA06;"/>
    <radialGradient cx="52.4082" cy="36.1948" gradientUnits="userSpaceOnUse" id="XMLID_2_" r="105.1645">
      <stop id="stop8" offset="0" style="stop-color:#D1F593"/>
      <stop id="stop10" offset="1" style="stop-color:#81CE09"/>
    </radialGradient>
    <path d="M88.759,126.635c0-8.091,0-16.184,0-24.274c0-4.036,0-8.071,0-12.105   c0-2.35,1.353-1.482,3.599-1.482c9.931,0,19.864,0,29.797-0.002c3.059,0,6.41,0.399,9.089-1.409c4.131-2.791,3.64-7.45,3.64-11.765   c0-6.67,2.961-22.258-3.643-26.719c-5.771-3.898-18.467-1.411-24.9-1.411c-2.933,0-17.579,1.794-17.579-1.483   c0-9.625,0-19.249-0.002-28.873c0-7.948-0.023-15.768-10.349-15.768c-4.741,0-9.482,0-14.226,0c-3.513,0-8.332-0.769-11.684,0.65   c-7.721,3.266-5.047,17.326-5.047,23.847c0,1.712,0.272,21.627-0.249,21.627c-8.859,0-17.717,0-26.576,0   c-7.028,0-19.301-1.94-19.299,8.622c0,8.11,0.001,16.221,0.001,24.331c0,10.633,13.667,8.354,20.558,8.354   c2.072,0,25.565-0.267,25.565,0.25c0,10.036,0.001,20.071,0.001,30.106c0,3.248-0.659,7.626,0.648,10.721   c2.284,5.405,7.696,5.046,12.526,5.046C67.99,134.896,88.764,138.628,88.759,126.635" id="path12" style="fill:url(#XMLID_2_);"/>
    <path d="M7.252,52.4c2.606,0,1.384,28.656,0.819,31.603c-0.938,4.889-3.124-9.083-3.178-10.271   C4.808,71.825,3.991,52.397,7.252,52.4" id="path14" style="fill:#B2ED21;"/>
    <path d="M131.424,52.4c2.605,0,1.385,28.656,0.821,31.603c-0.938,4.889-3.126-9.083-3.18-10.271   C128.98,71.825,128.166,52.397,131.424,52.4" id="path16" style="fill:#B2ED21;"/>
    <path d="M52.523,84.487c2.662,0.003,1.336,41.25,0.805,45.053c-0.355,2.529-1.286,2.272-1.821-0.051   c-1.221-5.301-1.267-10.991-1.39-16.4C50.066,110.892,49.329,84.484,52.523,84.487" id="path18" style="fill:#67BA06;"/>
    <path d="M90.715,52.665c0,2.655,35.874,1.289,39.165,0.886c1.56-0.192,3.561-0.983,0.977-1.775   c-4.489-1.373-9.612-1.36-14.254-1.5C114.511,50.213,90.715,49.428,90.715,52.665" id="path20" style="fill:#B2ED21;"/>
    <path d="M7.252,52.4c0.003-2.251,42.618-1.799,42.62,0.001C49.872,54.326,7.258,57.98,7.252,52.4" id="path22" style="fill:#B2ED21;"/>
    <path d="M52.021,7.633c0,2.606,28.656,1.382,31.602,0.818C88.51,7.516,74.54,5.328,73.35,5.274   C71.442,5.189,52.018,4.371,52.021,7.633" id="path24" style="fill:#B2ED21;"/>
    <path d="M52.021,7.633c-2.248,0-1.804,42.302-0.001,42.302C53.98,49.936,57.579,7.633,52.021,7.633" id="path26" style="fill:#B2ED21;"/>
    <path d="M84.796,6.671c-2.252,0-1.262,24.248-1.252,26.235c0.018,3.709-0.439,8.161,0.687,11.765   c0.868,2.78,2.254-4.511,2.307-4.922C86.963,36.413,89.874,6.665,84.796,6.671" id="path28" style="fill:#B2ED21;"/>
    <path d="M84.795,85.796c-1.948-0.005-1.256,23.107-1.256,25.114c0,5.748-0.267,11.604,0.327,17.332   c0.328,3.175,1.466,3.464,2.171,0.211C86.739,125.225,89.609,85.785,84.795,85.796" id="path30" style="fill:#67BA06;"/>
    <path d="M7.702,83.765c-0.003-2.246,24.25-1.262,26.234-1.25c3.711,0.018,8.162-0.439,11.765,0.685   c2.782,0.868-4.512,2.256-4.92,2.308C37.447,85.932,7.691,88.837,7.702,83.765" id="path32" style="fill:#67BA06;"/>
    <path d="M87,83.769c-0.002-1.971,22.219-1.261,24.128-1.261c5.747,0,11.603-0.263,17.332,0.33   c3.173,0.328,3.465,1.465,0.212,2.172C125.435,85.713,87,88.664,87,83.769" id="path34" style="fill:#67BA06;"/>
    <path d="M87.034,3.068C82.509-1.456,72.53,0.36,66.782,0.36c-6.962,0-18.207-1.921-20.12,7.384   c-1.219,5.928-0.188,12.916-0.188,18.911c0,6.611,0,13.222,0,19.832c-8.833-0.008-17.665-0.001-26.499,0   c-7.965,0-19.625-1.492-19.625,10.034c0,7.876-0.785,16.157,0,23.991c0,11.92,15.899,9.243,23.558,9.243   c2.705,0,22.568-1.096,22.568,0.987c0,9.688,0,19.378,0,29.068c0,8.969,1.344,16.066,12.167,16.066c4.877,0,9.755,0,14.632,0   c3.909,0.002,8.925,0.745,12.349-1.544c6.667-4.459,4.118-18.015,4.118-24.75c0-5.028,0-10.056,0-15.086   c0-3.111-1.063-4.742,2.208-4.742c9.972,0,19.946,0,29.917,0c3.367,0,6.975,0.41,9.92-1.581c4.464-3.017,4.08-7.903,4.08-12.576   c0-7.165,2.961-22.769-4.08-27.53c-2.945-1.994-6.557-1.582-9.92-1.582c-5.479,0-10.956,0-16.436,0c-4.494,0-8.987,0-13.481,0   c-3.271,0-2.208-1.633-2.208-4.743c0-9.967,0-19.933,0-29.899C89.741,8.606,89.511,5.544,87.034,3.068 M2.313,80.511   c0-7.999-0.001-15.994-0.001-23.993c0-10.355,12.502-8.07,19.41-8.07c8.824,0,17.647,0,26.47,0c0.51,0,0.244-19.771,0.244-21.453   c0-5.939-2.714-20.589,4.082-23.931c2.918-1.435,7.306-0.742,10.422-0.742c5.158,0.002,10.314,0.003,15.471,0.003   c10.646,0,9.368,9.181,9.368,16.95c0,9.408,0,18.817,0,28.227c0,3.364,37.98-1.799,43.395,2.547   c5.7,4.578,2.729,20.288,2.729,26.59c0,4.008,0.2,8.305-4.083,10.41c-2.694,1.323-6.632,0.741-9.521,0.741   c-9.923,0-19.847,0-29.768,0c-2.088,0-2.753-0.648-2.753,1.454c0,4.422,0,8.845,0,13.268c0,7.827,0.983,16.351,0,24.124   c0,10.686-19.483,7.277-26.028,7.277c-4.356-0.002-9.753,0.843-12.347-3.645c-1.585-2.744-0.967-6.932-0.967-9.959   c0-10.356,0-20.712,0-31.065C48.437,82.271,2.3,96.488,2.313,80.511" id="path36" style="fill:#5A9908;"/>
  </g>
</svg>
