<?xml version="1.0" encoding="UTF-8" standalone="no"?>
<!-- Created with Inkscape (http://www.inkscape.org/) -->

<svg
   xmlns:dc="http://purl.org/dc/elements/1.1/"
   xmlns:cc="http://creativecommons.org/ns#"
   xmlns:rdf="http://www.w3.org/1999/02/22-rdf-syntax-ns#"
   xmlns:svg="http://www.w3.org/2000/svg"
   xmlns="http://www.w3.org/2000/svg"
   xmlns:xlink="http://www.w3.org/1999/xlink"
   xmlns:sodipodi="http://sodipodi.sourceforge.net/DTD/sodipodi-0.dtd"
   xmlns:inkscape="http://www.inkscape.org/namespaces/inkscape"
   width="48"
   height="48"
   id="svg2"
   version="1.1"
   inkscape:version="0.48.5 r10040"
   sodipodi:docname="breakpoint.svg">
  <defs
     id="defs4">
    <linearGradient
       id="linearGradient3769">
      <stop
         style="stop-color:#8dbdef;stop-opacity:1;"
         offset="0"
         id="stop3771" />
      <stop
         style="stop-color:#ffffff;stop-opacity:1;"
         offset="1"
         id="stop3773" />
    </linearGradient>
    <linearGradient
       id="linearGradient3803">
      <stop
         id="stop3805"
         offset="0"
         style="stop-color:#a0a0b0;stop-opacity:1;" />
      <stop
         id="stop3807"
         offset="1"
         style="stop-color:#ffffff;stop-opacity:1;" />
    </linearGradient>
    <linearGradient
       inkscape:collect="always"
       xlink:href="#linearGradient3803"
       id="linearGradient3801"
       x1="43.931164"
       y1="1048.6418"
       x2="16.712681"
       y2="1013.6854"
       gradientUnits="userSpaceOnUse"
       gradientTransform="translate(33.320252,6.8425516)" />
    <linearGradient
       inkscape:collect="always"
       xlink:href="#linearGradient3769"
       id="linearGradient3775"
       x1="9.9542644"
       y1="24.546906"
       x2="49.942853"
       y2="24.546906"
       gradientUnits="userSpaceOnUse" />
  </defs>
  <sodipodi:namedview
     id="base"
     pagecolor="#ffffff"
     bordercolor="#666666"
     borderopacity="1.0"
     inkscape:pageopacity="0.0"
     inkscape:pageshadow="2"
     inkscape:zoom="20.167915"
     inkscape:cx="17.508171"
     inkscape:cy="20.245653"
     inkscape:document-units="px"
     inkscape:current-layer="text3772"
     showgrid="false"
     inkscape:window-width="2560"
     inkscape:window-height="1510"
     inkscape:window-x="-8"
     inkscape:window-y="31"
     inkscape:window-maximized="1" />
  <metadata
     id="metadata7">
    <rdf:RDF>
      <cc:Work
         rdf:about="">
        <dc:format>image/svg+xml</dc:format>
        <dc:type
           rdf:resource="http://purl.org/dc/dcmitype/StillImage" />
        <dc:title />
      </cc:Work>
    </rdf:RDF>
  </metadata>
  <g
     inkscape:label="Layer 1"
     inkscape:groupmode="layer"
     id="layer1"
     transform="translate(0,-1004.3622)">
    <path
       style="fill:#ff0000;fill-opacity:1;stroke:#000000;stroke-width:3;stroke-linecap:round;stroke-linejoin:miter;stroke-miterlimit:4;stroke-opacity:1;stroke-dasharray:none"
       d="m 14.680195,1005.8622 18.639609,0 13.180195,13.1802 0,18.6396 -13.180195,13.1802 -18.63961,0 L 1.5,1037.682 l 2e-7,-18.6396 z"
       id="path3001"
       inkscape:connector-curvature="0" />
    <g
       transform="scale(0.80292845,1.245441)"
       style="font-size:16.2655983px;font-style:normal;font-weight:normal;line-height:125%;letter-spacing:0px;word-spacing:0px;fill:#ffffff;fill-opacity:1;stroke:none;font-family:Sans"
       id="text3772">
      <path
         d="m 9.8896964,830.16128 c 0.4294056,0 0.7807426,-0.0325 1.0540106,-0.0976 0.286268,-0.0781 0.513986,-0.17567 0.683155,-0.29278 0.169155,-0.13012 0.286267,-0.27977 0.351337,-0.44893 0.06505,-0.16916 0.09759,-0.35784 0.09759,-0.56605 -7e-6,-0.44242 -0.208206,-0.80676 -0.624598,-1.09304 -0.416406,-0.29929 -1.132092,-0.61809 -2.1470591,-0.95642 -0.4424284,-0.15614 -0.8848522,-0.33181 -1.3272726,-0.52701 -0.4424271,-0.20819 -0.8393072,-0.46193 -1.1906416,-0.76123 -0.3513387,-0.31229 -0.6376129,-0.68314 -0.8588235,-1.11256 -0.2212131,-0.44242 -0.3318191,-0.97593 -0.3318181,-1.60054 -1e-6,-0.62459 0.1171112,-1.18412 0.3513369,-1.67861 0.234223,-0.50747 0.5660408,-0.93688 0.9954544,-1.28823 0.429409,-0.35133 0.9499076,-0.61808 1.5614972,-0.80027 0.6115819,-0.19517 1.3012425,-0.29277 2.0689834,-0.29278 0.910867,1e-5 1.698121,0.0976 2.361765,0.29278 0.663627,0.1952 1.210151,0.40991 1.639572,0.64412 l -0.878342,2.4008 c -0.377371,-0.19518 -0.800276,-0.36434 -1.268717,-0.50749 -0.455444,-0.15613 -1.008473,-0.23421 -1.65909,-0.23422 -0.728705,10e-6 -1.2557093,0.10411 -1.5810164,0.3123 -0.3123036,0.1952 -0.4684532,0.50099 -0.4684491,0.91738 -4.1e-6,0.24724 0.058552,0.45544 0.1756684,0.6246 0.1171079,0.16917 0.2797637,0.32532 0.4879679,0.46845 0.2212071,0.13013 0.4684439,0.25375 0.7417112,0.37085 0.286269,0.10411 0.598568,0.21472 0.936898,0.33182 0.702667,0.26026 1.314253,0.52051 1.834759,0.78075 0.520491,0.24724 0.949902,0.54002 1.288236,0.87834 0.351327,0.33833 0.611576,0.73521 0.780748,1.19064 0.169152,0.45544 0.253733,1.00847 0.253744,1.65909 -1.1e-5,1.26222 -0.442435,2.24466 -1.327273,2.94733 -0.884857,0.68966 -2.218634,1.03449 -4.0013366,1.03449 -0.5985786,0 -1.1385958,-0.039 -1.6200534,-0.11711 -0.4814647,-0.0651 -0.910876,-0.14964 -1.2882351,-0.25374 -0.3643514,-0.1041 -0.6831567,-0.21471 -0.9564171,-0.33182 -0.2602506,-0.11711 -0.4814625,-0.22772 -0.6636363,-0.33182 l 0.8588235,-2.42032 c 0.4033848,0.22121 0.8978584,0.42291 1.4834223,0.60508 0.5985703,0.16916 1.3272682,0.25374 2.1860961,0.25374"
         style="font-size:19.5187149px;font-weight:bold;font-family:Ubuntu;-inkscape-font-specification:Ubuntu"
         id="path2994" />
      <path
         d="m 27.212555,818.95754 0,2.59599 -4.079411,0 0,10.93048 -3.04492,0 0,-10.93048 -4.079411,0 0,-2.59599 11.203742,0"
         style="font-size:19.5187149px;font-weight:bold;font-family:Ubuntu;-inkscape-font-specification:Ubuntu"
         id="path2996" />
      <path
         d="m 31.249879,825.71101 c -5e-6,0.66365 0.07807,1.26222 0.234224,1.79573 0.169158,0.53351 0.403382,0.99545 0.702674,1.38583 0.312294,0.37736 0.689655,0.67014 1.132085,0.87834 0.442418,0.2082 0.949904,0.3123 1.52246,0.3123 0.559528,0 1.060508,-0.1041 1.502941,-0.3123 0.455427,-0.2082 0.832789,-0.50098 1.132086,-0.87834 0.312288,-0.39038 0.546513,-0.85232 0.702673,-1.38583 0.169151,-0.53351 0.253732,-1.13208 0.253744,-1.79573 -1.2e-5,-0.66362 -0.08459,-1.2622 -0.253744,-1.79572 -0.15616,-0.54651 -0.390385,-1.00845 -0.702673,-1.38583 -0.299297,-0.39036 -0.676659,-0.68965 -1.132086,-0.89786 -0.442433,-0.20819 -0.943413,-0.31228 -1.502941,-0.3123 -0.572556,2e-5 -1.080042,0.11062 -1.52246,0.33182 -0.44243,0.20821 -0.819791,0.5075 -1.132085,0.89786 -0.299292,0.37737 -0.533516,0.83932 -0.702674,1.38583 -0.156154,0.53352 -0.234229,1.12559 -0.234224,1.7762 m 10.3254,0 c -1.5e-5,1.15812 -0.175683,2.1796 -0.527006,3.06444 -0.338338,0.87184 -0.806786,1.60705 -1.405347,2.20562 -0.598586,0.58556 -1.314271,1.02798 -2.147059,1.32727 -0.819795,0.29929 -1.704643,0.44893 -2.654545,0.44893 -0.923893,0 -1.795728,-0.14964 -2.615508,-0.44893 -0.81979,-0.29929 -1.535476,-0.74171 -2.147058,-1.32727 -0.611589,-0.59857 -1.09305,-1.33378 -1.444385,-2.20562 -0.351338,-0.88484 -0.527007,-1.90632 -0.527006,-3.06444 -1e-6,-1.1581 0.182174,-2.17307 0.546524,-3.04491 0.364348,-0.88484 0.852315,-1.62655 1.463904,-2.22514 0.624595,-0.59856 1.340281,-1.04749 2.147059,-1.34679 0.81978,-0.29927 1.678602,-0.44892 2.57647,-0.44893 0.923877,1e-5 1.795712,0.14966 2.615508,0.44893 0.819775,0.2993 1.53546,0.74823 2.147058,1.34679 0.611574,0.59859 1.093035,1.3403 1.444385,2.22514 0.351323,0.87184 0.526991,1.88681 0.527006,3.04491"
         style="font-size:19.5187149px;font-weight:bold;font-family:Ubuntu;-inkscape-font-specification:Ubuntu"
         id="path2998" />
      <path
         d="m 48.154305,818.80139 c 2.016926,10e-6 3.565409,0.35786 4.645454,1.07353 1.080024,0.70268 1.620042,1.86079 1.620053,3.47433 -1.1e-5,1.62657 -0.546535,2.8042 -1.639572,3.53289 -1.093057,0.71569 -2.654552,1.07353 -4.684491,1.07353 l -0.956417,0 0,4.52834 -3.04492,0 0,-13.33128 c 0.663634,-0.13011 1.366307,-0.2212 2.108022,-0.27327 0.741706,-0.052 1.392329,-0.0781 1.951871,-0.0781 m 0.195187,2.59599 c -0.221218,10e-6 -0.442429,0.007 -0.663636,0.0195 -0.208205,0.013 -0.390379,0.026 -0.546524,0.039 l 0,3.90375 0.956417,0 c 1.054004,0 1.847764,-0.14313 2.381283,-0.42941 0.533503,-0.28627 0.800259,-0.81978 0.800267,-1.60054 -8e-6,-0.37735 -0.07158,-0.68965 -0.214705,-0.9369 -0.130134,-0.24722 -0.325321,-0.44241 -0.585562,-0.58556 -0.247245,-0.15614 -0.553038,-0.26024 -0.91738,-0.3123 -0.364356,-0.065 -0.767742,-0.0976 -1.21016,-0.0976"
         style="font-size:19.5187149px;font-weight:bold;font-family:Ubuntu;-inkscape-font-specification:Ubuntu"
         id="path3000" />
    </g>
  </g>
</svg>
