<?xml version="1.0" encoding="UTF-8" standalone="no"?>
<!--part of the rodentia icon theme by sixsixfive released under CC0 (https://creativecommons.org/publicdomain/zero/1.0/) on openclipart-->
<svg xmlns="http://www.w3.org/2000/svg" xmlns:xlink="http://www.w3.org/1999/xlink" viewBox="0 0 48 48">
 <defs id="0">
  <linearGradient id="A">
   <stop id="S" stop-color="#edd400"/>
   <stop id="T" offset="1" stop-color="#9c8100"/>
  </linearGradient>
  <linearGradient id="B">
   <stop id="U" stop-color="#fce94f"/>
   <stop id="V" offset="1" stop-color="#c4a000"/>
  </linearGradient>
  <linearGradient id="C">
   <stop id="W" stop-color="#fff" stop-opacity="0.4"/>
   <stop id="X" offset="1" stop-color="#fff" stop-opacity="0"/>
  </linearGradient>
  <linearGradient id="D">
   <stop id="Y" stop-color="#2e3436"/>
   <stop id="Z" offset="1" stop-color="#2e3436" stop-opacity="0"/>
  </linearGradient>
  <linearGradient id="E">
   <stop id="a" stop-color="#fff"/>
   <stop id="b" offset="1" stop-color="#fff" stop-opacity="0"/>
  </linearGradient>
  <linearGradient id="F">
   <stop id="c" stop-color="#fff" stop-opacity="0.8"/>
   <stop id="d" offset="1" stop-color="#fff" stop-opacity="0"/>
  </linearGradient>
  <linearGradient id="G">
   <stop id="e" stop-color="#555753"/>
   <stop id="f" offset="1" stop-color="#2e3436"/>
  </linearGradient>
  <linearGradient id="H">
   <stop id="g" stop-color="#d3d7cf"/>
   <stop id="h" offset="1" stop-color="#babdb6"/>
  </linearGradient>
  <radialGradient cx="24.708" cy="42.11" r="22.16" id="I" xlink:href="#D" gradientUnits="userSpaceOnUse" gradientTransform="matrix(1,0,0,0.09589041,0,38.073311)"/>
  <linearGradient y1="9.03" x2="0" y2="38.969" id="J" xlink:href="#H" gradientUnits="userSpaceOnUse"/>
  <linearGradient y1="13.531" x2="0" y2="34.469" id="K" xlink:href="#G" gradientUnits="userSpaceOnUse"/>
  <linearGradient y1="8.979" x2="0" y2="39.02" id="L" xlink:href="#F" gradientUnits="userSpaceOnUse"/>
  <linearGradient y1="34.427" x2="0" y2="13.573" id="M" xlink:href="#C" gradientUnits="userSpaceOnUse"/>
  <linearGradient x1="-0.174" y1="-40.07" x2="24" y2="31.659" id="N" xlink:href="#E" gradientUnits="userSpaceOnUse"/>
  <linearGradient x1="33.421" x2="13.552" id="O" xlink:href="#B" gradientUnits="userSpaceOnUse"/>
  <linearGradient x1="34.35" x2="12.53" id="P" xlink:href="#A" gradientUnits="userSpaceOnUse"/>
 </defs>
 <path d="m 46.866049,42.111389 a 22.158171,2.1247561 0 1 1 -44.3163416,0 22.158171,2.1247561 0 1 1 44.3163416,0 z" transform="matrix(1.0493151,0,0,-1.4518947,-1.9263496,100.27038)" id="1" opacity="0.8" fill="url(#I)"/>
 <path d="m 5.21875,7.9375 c -1.108,0 -2,0.892 -2,2 l 0,28.125 c 0,1.108 0.892,2 2,2 l 37.5625,0 c 1.108,0 2,-0.892 2,-2 l 0,-28.125 c 0,-1.108 -0.892,-2 -2,-2 l -37.5625,0 z" id="2" fill="#2e3436"/>
 <path d="m 5.21875,9.03125 c -0.5241331,0 -0.90625,0.3821169 -0.90625,0.90625 l 0,28.125 c 0,0.524133 0.3821169,0.90625 0.90625,0.90625 l 37.5625,0 c 0.524133,0 0.90625,-0.382117 0.90625,-0.90625 l 0,-28.125 c 0,-0.5241331 -0.382117,-0.90625 -0.90625,-0.90625 l -37.5625,0 z" id="3" fill="url(#J)"/>
 <rect width="32.615" height="23.508" x="7.692" y="12.246" id="4" fill="#2e3436"/>
 <path d="m 8.96875,13.53125 0,20.9375 30.0625,0 0,-20.9375 -30.0625,0 z" id="5" fill="url(#K)"/>
 <g id="6">
  <path d="m 22.46875,15.25 c -0.431719,1.98e-4 -0.683189,0.22617 -0.84375,0.375 -0.160561,0.14883 -0.254075,0.263966 -0.34375,0.40625 -0.179349,0.284569 -0.300343,0.536127 -0.375,0.84375 L 19.375,23.15625 C 19.179703,23.08667 18.945357,23.028285 18.84375,22.96875 18.81091,22.832836 18.80939,22.696285 18.75,22.5625 c -0.255863,-0.57347 -0.848081,-0.922044 -1.4375,-0.90625 -0.592295,0.01584 -1.165514,0.340811 -1.40625,0.96875 -0.108731,0.284962 -0.04401,0.569196 -0.03125,0.84375 4.72e-4,0.01015 -6.12e-4,0.02113 0,0.03125 0.0037,0.06118 -0.03984,0.127716 -0.03125,0.1875 -0.003,0.04242 -0.03106,0.06169 -0.03125,0.09375 -6.1e-5,0.01026 -5.22e-4,0.02461 0,0.03125 0.0015,0.01601 -0.0016,0.02009 0,0.03125 -0.0093,0.0055 -0.02233,-0.0054 -0.03125,0 -0.215303,0.130576 -0.544555,0.293325 -0.59375,0.3125 -0.115514,0.04128 -0.321757,0.198332 -0.3125,0.1875 0.0093,-0.01083 0.02833,-0.01221 -0.125,0.03125 -0.153333,0.04346 -0.26184,0.193607 -0.46392,0.22358 -0.193097,0.02864 -0.372244,0.04993 -0.534601,0.129831 -0.444997,0.219008 -1.023227,0.06246 -1.118198,0.245169 -0.177385,0.341264 -0.179073,0.886733 0.429219,1.27642 0.384621,0.249509 0.711669,0.262216 1.03125,0.28125 0.319581,0.01903 0.618944,0.0013 0.9375,-0.03125 0.637111,-0.06514 1.23711,-0.170137 1.625,-0.28125 0.01066,-0.01017 0.02108,-0.02059 0.03125,-0.03125 0.294092,-0.09511 0.582987,-0.295126 0.875,-0.46875 0.428377,0.225683 0.874191,0.384928 1.34375,0.5 0.077,0.182147 0.135704,0.445961 0.59375,0.75 0.468517,0.311826 0.922551,0.356807 1.4375,0.15625 0.456461,-0.177757 0.80212,-0.638489 0.90625,-1.0625 l 0.3125,-1.25 0.9375,5.4375 c 0.02416,0.145804 0.04765,0.454717 0.15625,0.78125 0.0543,0.163266 0.128426,0.324136 0.28125,0.53125 0.152824,0.207114 0.500572,0.518986 0.96875,0.5 0.544823,-0.02209 0.800814,-0.35954 0.9375,-0.5625 0.136686,-0.20296 0.219099,-0.383971 0.28125,-0.5625 0.124302,-0.357057 0.194823,-0.681598 0.21875,-0.96875 0.09527,-1.092783 0.205463,-2.043692 0.28125,-3.03125 0.04087,-0.532622 0.174508,-0.778162 0.3125,-1.0625 0.357075,0.06362 0.649606,0.237454 1.0625,0.15625 0.488441,-0.0955 0.884645,-0.416908 1.09375,-0.875 l 0.03125,-0.09375 c 0.03424,0.131221 0.10925,0.04014 0.1875,0.46875 0.150302,0.828844 0.823406,1.328334 1.625,1.28125 0.562425,-0.03277 0.954425,-0.302449 1.3125,-0.5625 0.22517,0.195932 0.490027,0.411714 0.84375,0.4375 0.45219,0.03294 0.786446,-0.08231 1.125,-0.375 0.328149,-0.283603 0.507398,-0.734355 0.53125,-1.0625 0.07353,-1.015269 -0.500676,-1.763142 -1.25,-2.125 -0.559803,-0.270355 -1.096877,-0.29989 -1.4375,-0.3125 -0.16776,-0.0065 -0.252085,0.173873 -0.40625,0.21875 -0.0743,-0.115152 -0.237642,-0.478086 -0.25,-0.5 -0.08669,-0.153166 -0.215048,-0.289018 -0.40625,-0.4375 -1.075449,-0.84204 -2.482706,-0.872209 -3.5,-0.25 -0.284634,0.1744 -0.452692,0.37956 -0.59375,0.6875 l -0.125,0.25 C 25.8702,22.563894 25.304,22.569872 24.84375,22.9375 L 23.9375,16.96875 C 23.8927,16.70553 23.83888,16.43003 23.6875,16.125 23.61181,15.972485 23.505638,15.826917 23.34375,15.65625 23.181862,15.485583 22.893322,15.250856 22.46875,15.25 z" id="Q" opacity="0.5" fill="url(#P)"/>
  <path d="m 22.456504,16.199617 c -0.273118,1.25e-4 -0.571899,0.632498 -0.636314,0.897919 l -1.775092,7.267801 c -0.09233,-0.047 -0.194315,-0.08392 -0.300608,-0.100836 -0.528002,-0.08405 -1.112951,-0.302371 -1.466876,-0.536522 -0.104192,-0.06893 -0.178907,-0.135651 -0.235918,-0.194065 -6.27e-4,-0.197167 -0.03749,-0.398056 -0.121765,-0.587893 -0.09838,-0.220509 -0.336703,-0.370648 -0.578082,-0.36418 -0.24138,0.0065 -0.471316,0.169159 -0.557754,0.394625 -0.09311,0.244027 -0.0857,0.508154 -0.02282,0.745801 -0.0052,0.0059 -0.0037,0.0068 -0.0095,0.01331 -0.108551,0.125167 0.08846,0.663831 -0.247155,0.772374 -0.335608,0.108539 -0.630486,0.385809 -0.973036,0.519326 -0.433126,0.412806 -2.164449,0.466357 -1.96305,0.438741 0.507946,0.329513 2.232323,0.01973 2.842683,-0.155114 0.406519,-0.131476 0.794268,-0.321954 1.1111,-0.616432 0.02644,0.01851 0.04903,0.04106 0.0761,0.05898 0.533171,0.352733 1.199994,0.590865 1.866419,0.707755 0.0085,0.01281 0.0098,0.01156 0.03044,0.05137 0.06959,0.134065 0.151959,0.441029 0.519399,0.684926 0.163588,0.108878 0.3808,0.132414 0.563908,0.0611 0.183114,-0.07131 0.327193,-0.235555 0.374059,-0.426391 l 1.358428,-5.559308 1.678068,9.834368 c 0.04849,0.292658 0.179587,1.031752 0.475992,1.019732 0.296404,-0.01202 0.524382,-0.929207 0.549014,-1.224826 0.09657,-1.107746 0.192864,-2.072948 0.266838,-3.036881 0.0611,-0.796217 0.220639,-1.443285 0.63355,-1.961543 0.410113,0.199362 0.910277,0.331627 1.484002,0.218792 0.191008,-0.03735 0.360584,-0.171122 0.4414,-0.348168 L 28.376442,23.6024 c 0.263577,-0.13466 0.463261,-0.124383 0.833323,0.150304 0.263342,0.405818 0.395292,0.403991 0.616434,1.615272 0.05304,0.292489 0.344423,0.521614 0.641165,0.504184 0.433216,-0.02524 0.811272,-0.21614 1.073044,-0.450907 0.146064,-0.131 0.259196,-0.269365 0.359588,-0.407151 0.110829,0.01966 0.204418,0.04319 0.256845,0.06849 0.01812,0.0088 0.02733,0.0071 0.03614,0.0076 -6.27e-4,0.0028 -0.0019,0.0019 -0.0019,0.0057 -0.01175,0.16065 0.04273,0.325137 0.148059,0.447018 0.105306,0.121888 0.260151,0.199661 0.420801,0.211372 0.160654,0.0117 0.32513,-0.04278 0.446993,-0.148133 0.121874,-0.105327 0.199625,-0.260182 0.211302,-0.420832 0.0393,-0.542558 -0.348064,-1.028062 -0.724879,-1.210031 -0.376809,-0.181977 -0.752639,-0.214616 -1.071145,-0.226407 -0.213308,-0.0083 -0.427321,0.103574 -0.542232,0.283483 -0.08302,0.129983 -0.158426,0.233714 -0.230203,0.323435 -0.242272,-0.823666 -0.514192,-1.086213 -0.660195,-1.345111 -0.0399,-0.07049 -0.09393,-0.132965 -0.157913,-0.18265 -0.785977,-0.615394 -1.755666,-0.620952 -2.450503,-0.195968 -0.103398,0.06335 -0.187323,0.158019 -0.237824,0.268266 l -0.475646,1.038804 c -0.253651,-0.0122 -0.443534,-0.125217 -0.713459,-0.313921 -0.223397,-0.155866 -0.55237,-0.137684 -0.757221,0.04185 -0.486455,0.426836 -0.842307,1.480335 -1.047269,2.022995 l -1.327145,-8.550704 c -0.04816,-0.282964 -0.279082,-0.939195 -0.566107,-0.939774 l -1.4e-5,1.9e-5 z" id="R" fill="url(#O)"/>
 </g>
 <path d="m 5.21875,9.5 c -0.2768191,0 -0.4375,0.1606809 -0.4375,0.4375 l 0,28.125 c 0,0.276819 0.1606809,0.4375 0.4375,0.4375 l 37.5625,0 c 0.276819,0 0.4375,-0.160681 0.4375,-0.4375 l 0,-28.125 C 43.21875,9.6606809 43.058069,9.5 42.78125,9.5 l -37.5625,0 z" id="7" opacity="0.8" fill="none" stroke="url(#L)" stroke-linejoin="round" stroke-linecap="round" stroke-width="1.042"/>
 <path d="m 9.53125,14.09375 0,19.8125 28.9375,0 0,-19.8125 -28.9375,0 z" id="8" opacity="0.6" fill="none" stroke="url(#M)" stroke-linecap="round" stroke-width="1.042"/>
 <path d="m 8.96875,13.53125 0,15.5625 c 10.267155,-2.287078 20.360583,-3.97296 30.0625,-4.1875 l 0,-11.375 -30.0625,0 z" id="9" opacity="0.6" fill="url(#N)"/>
</svg>
